<?xml version="1.0" encoding="utf-8"?>
<!-- Generator: Adobe Illustrator 17.0.0, SVG Export Plug-In . SVG Version: 6.00 Build 0)  -->
<!DOCTYPE svg PUBLIC "-//W3C//DTD SVG 1.1//EN" "http://www.w3.org/Graphics/SVG/1.1/DTD/svg11.dtd">
<svg version="1.1" id="Layer_1" xmlns="http://www.w3.org/2000/svg" xmlns:xlink="http://www.w3.org/1999/xlink" x="0px" y="0px"
	 width="170px" height="270px" viewBox="0 0 170 270" enable-background="new 0 0 170 270" xml:space="preserve">
<g>
	<g>
		<path fill="#CFE6DF" d="M11.761,80C6.654,80,2.5,75.936,2.5,70.939V24.07c0-5.001,4.154-9.07,9.261-9.07h146.478
			c5.106,0,9.262,4.069,9.262,9.07v46.87c0,4.996-4.155,9.061-9.262,9.061L11.761,80L11.761,80z"/>
		<path fill="#CFE6DF" d="M158.238,17.5c3.729,0,6.762,2.946,6.762,6.57v46.87c0,3.618-3.033,6.56-6.762,6.56H11.761
			C8.033,77.5,5,74.558,5,70.94V24.07c0-3.624,3.033-6.57,6.761-6.57H158.238 M158.238,12.5H11.761C5.276,12.5,0,17.69,0,24.07
			v46.87C0,77.314,5.276,82.5,11.761,82.5h146.477c6.486,0,11.762-5.186,11.762-11.56V24.07C170,17.69,164.724,12.5,158.238,12.5
			L158.238,12.5z"/>
	</g>
</g>
<g>
	<g>
		<path fill="#CC527B" d="M158.275,7.5H11.724C8.017,7.5,5,10.446,5,14.07v46.87c0,3.618,3.017,6.56,6.724,6.56h146.552
			c3.708,0,6.725-2.942,6.725-6.56V14.07C165,10.446,161.983,7.5,158.275,7.5z"/>
	</g>
	<rect x="15" y="8.5" fill="#FAFAFA" width="140.881" height="40"/>
	<g>
		<path fill="#FF6680" d="M158.275,0H11.724C8.017,0,5,2.999,5,6.688v41.634C5,52.005,8.017,55,11.724,55h146.552
			c3.708,0,6.725-2.995,6.725-6.678V6.688C165,2.999,161.983,0,158.275,0z"/>
	</g>
</g>
<g>
	<g>
		<path fill="#CFE6DF" d="M11.761,170c-5.106,0-9.261-4.064-9.261-9.061V114.07c0-5.001,4.154-9.07,9.261-9.07h146.478
			c5.106,0,9.262,4.069,9.262,9.07v46.869c0,4.996-4.155,9.061-9.262,9.061H11.761z"/>
		<path fill="#CFE6DF" d="M158.238,107.5c3.729,0,6.762,2.946,6.762,6.57v46.87c0,3.618-3.033,6.56-6.762,6.56H11.761
			C8.033,167.5,5,164.558,5,160.94v-46.87c0-3.624,3.033-6.57,6.761-6.57L158.238,107.5 M158.238,102.5H11.761
			C5.276,102.5,0,107.69,0,114.07v46.87c0,6.374,5.276,11.56,11.761,11.56h146.477c6.486,0,11.762-5.186,11.762-11.56v-46.87
			C170,107.69,164.724,102.5,158.238,102.5L158.238,102.5z"/>
	</g>
</g>
<g>
	<g>
		<path fill="#C1C4CC" d="M158.275,97.5H11.724C8.017,97.5,5,100.446,5,104.07v46.87c0,3.618,3.017,6.56,6.724,6.56h146.552
			c3.708,0,6.725-2.942,6.725-6.56v-46.87C165,100.446,161.983,97.5,158.275,97.5z"/>
	</g>
	<g>
		<path fill="#FAFAFA" d="M158.275,90H11.724C8.017,90,5,92.999,5,96.688v41.634C5,142.005,8.017,145,11.724,145h146.552
			c3.708,0,6.725-2.995,6.725-6.678V96.688C165,92.999,161.983,90,158.275,90z"/>
	</g>
</g>
<g>
	<g>
		<path fill="#CFE6DF" d="M11.761,250c-5.106,0-9.261-4.064-9.261-9.061V207.07c0-5.001,4.154-9.07,9.261-9.07h146.478
			c5.106,0,9.262,4.069,9.262,9.07v33.869c0,4.996-4.155,9.061-9.262,9.061L11.761,250L11.761,250z"/>
		<path fill="#CFE6DF" d="M158.238,200.5c3.729,0,6.762,2.946,6.762,6.57v33.87c0,3.618-3.033,6.56-6.762,6.56H11.761
			C8.033,247.5,5,244.558,5,240.94v-33.87c0-3.624,3.033-6.57,6.761-6.57H158.238 M158.238,195.5H11.761
			C5.276,195.5,0,200.69,0,207.07v33.87c0,6.374,5.276,11.56,11.761,11.56h146.477c6.486,0,11.762-5.186,11.762-11.56v-33.87
			C170,200.69,164.724,195.5,158.238,195.5L158.238,195.5z"/>
	</g>
</g>
<g>
	<g id="PLAY_2_">
		<g>
			<g>
				<defs>
					<path id="SVGID_1_" d="M39.477,24.038l-7.215-4.165c0,0-13.143-7.589-13.916-8.035c-0.773-0.446-1.543-0.176-1.543,0.756
						c0,1.553,0,16.204,0,16.204s0,15.833,0,16.533c0,0.699,0.55,1,1.222,0.613c0.671-0.388,14.237-8.221,14.237-8.221l7.214-4.165
						c0,0,6.121-3.534,6.935-4.003c0.814-0.47,0.735-1.115,0.049-1.484C45.774,27.7,39.477,24.038,39.477,24.038z"/>
				</defs>
				<clipPath id="SVGID_2_">
					<use xlink:href="#SVGID_1_"  overflow="visible"/>
				</clipPath>
				
					<linearGradient id="SVGID_3_" gradientUnits="userSpaceOnUse" x1="-1062.8434" y1="-423.2282" x2="-1062.8434" y2="-420.2746" gradientTransform="matrix(12 0 0 12 12779.8604 5089.8145)">
					<stop  offset="0" style="stop-color:#257CB0"/>
					<stop  offset="0.2863" style="stop-color:#4A93B5"/>
					<stop  offset="0.767" style="stop-color:#78BCBB"/>
					<stop  offset="1" style="stop-color:#89CFBD"/>
				</linearGradient>
				<polygon clip-path="url(#SVGID_2_)" fill="url(#SVGID_3_)" points="16.804,11.076 16.804,28.798 16.804,46.519 34.676,28.798 
									"/>
			</g>
		</g>
		<g>
			<g>
				<defs>
					<path id="SVGID_4_" d="M39.477,24.038l-7.215-4.165c0,0-13.143-7.589-13.916-8.035c-0.773-0.446-1.543-0.176-1.543,0.756
						c0,1.553,0,16.204,0,16.204s0,15.833,0,16.533c0,0.699,0.55,1,1.222,0.613c0.671-0.388,14.237-8.221,14.237-8.221l7.214-4.165
						c0,0,6.121-3.534,6.935-4.003c0.814-0.47,0.735-1.115,0.049-1.484C45.774,27.7,39.477,24.038,39.477,24.038z"/>
				</defs>
				<clipPath id="SVGID_5_">
					<use xlink:href="#SVGID_4_"  overflow="visible"/>
				</clipPath>
				
					<linearGradient id="SVGID_6_" gradientUnits="userSpaceOnUse" x1="-1063.588" y1="-422.4951" x2="-1061.6986" y2="-422.4951" gradientTransform="matrix(12 0 0 12 12779.8604 5089.8145)">
					<stop  offset="0" style="stop-color:#52C1AD"/>
					<stop  offset="1" style="stop-color:#DEE89A"/>
				</linearGradient>
				<polygon clip-path="url(#SVGID_5_)" fill="url(#SVGID_6_)" points="39.477,24.038 32.262,19.873 16.804,10.947 16.804,11.076 
					34.676,28.798 				"/>
			</g>
		</g>
		<g>
			<g>
				<defs>
					<path id="SVGID_7_" d="M39.477,24.038l-7.215-4.165c0,0-13.143-7.589-13.916-8.035c-0.773-0.446-1.543-0.176-1.543,0.756
						c0,1.553,0,16.204,0,16.204s0,15.833,0,16.533c0,0.699,0.55,1,1.222,0.613c0.671-0.388,14.237-8.221,14.237-8.221l7.214-4.165
						c0,0,6.121-3.534,6.935-4.003c0.814-0.47,0.735-1.115,0.049-1.484C45.774,27.7,39.477,24.038,39.477,24.038z"/>
				</defs>
				<clipPath id="SVGID_8_">
					<use xlink:href="#SVGID_7_"  overflow="visible"/>
				</clipPath>
				
					<linearGradient id="SVGID_9_" gradientUnits="userSpaceOnUse" x1="-1062.6433" y1="-421.7514" x2="-1062.6433" y2="-420.2639" gradientTransform="matrix(12 0 0 12 12779.8604 5089.8145)">
					<stop  offset="0" style="stop-color:#EC413D"/>
					<stop  offset="0.1668" style="stop-color:#DA4452"/>
					<stop  offset="0.5748" style="stop-color:#B0487A"/>
					<stop  offset="0.8619" style="stop-color:#954A92"/>
					<stop  offset="1" style="stop-color:#8A4A9D"/>
				</linearGradient>
				<polygon clip-path="url(#SVGID_8_)" fill="url(#SVGID_9_)" points="16.804,46.519 16.804,46.648 32.262,37.723 39.476,33.557 
					34.676,28.798 				"/>
			</g>
		</g>
		<g>
			<g>
				<defs>
					<path id="SVGID_10_" d="M39.477,24.038l-7.215-4.165c0,0-13.143-7.589-13.916-8.035c-0.773-0.446-1.543-0.176-1.543,0.756
						c0,1.553,0,16.204,0,16.204s0,15.833,0,16.533c0,0.699,0.55,1,1.222,0.613c0.671-0.388,14.237-8.221,14.237-8.221l7.214-4.165
						c0,0,6.121-3.534,6.935-4.003c0.814-0.47,0.735-1.115,0.049-1.484C45.774,27.7,39.477,24.038,39.477,24.038z"/>
				</defs>
				<clipPath id="SVGID_11_">
					<use xlink:href="#SVGID_10_"  overflow="visible"/>
				</clipPath>
				
					<linearGradient id="SVGID_12_" gradientUnits="userSpaceOnUse" x1="-1061.5552" y1="-422.148" x2="-1061.5552" y2="-421.3548" gradientTransform="matrix(12 0 0 12 12779.8604 5089.8145)">
					<stop  offset="0" style="stop-color:#F58879"/>
					<stop  offset="0.1194" style="stop-color:#F69079"/>
					<stop  offset="0.7128" style="stop-color:#FCB877"/>
					<stop  offset="1" style="stop-color:#FEC874"/>
				</linearGradient>
				<polygon clip-path="url(#SVGID_11_)" fill="url(#SVGID_12_)" points="39.477,24.038 34.676,28.798 39.476,33.557 47.721,28.798 
									"/>
			</g>
		</g>
	</g>
	<path fill="#F9F9F9" d="M129.322,35.726c-0.671,0-1.284-0.124-1.838-0.371c-0.555-0.248-1.021-0.629-1.397-1.142h-0.113
		c0.075,0.602,0.113,1.172,0.113,1.711v4.241h-1.56V25.231h1.269l0.216,1.411h0.075c0.402-0.565,0.869-0.972,1.402-1.222
		c0.533-0.251,1.144-0.376,1.833-0.376c1.367,0,2.422,0.467,3.165,1.401c0.743,0.934,1.115,2.245,1.115,3.931
		c0,1.693-0.378,3.008-1.133,3.946C131.713,35.258,130.665,35.726,129.322,35.726z M129.096,26.369
		c-1.053,0-1.815,0.292-2.285,0.875s-0.712,1.511-0.724,2.784v0.348c0,1.449,0.241,2.485,0.724,3.109s1.258,0.935,2.323,0.935
		c0.891,0,1.588-0.36,2.093-1.081c0.504-0.721,0.757-1.715,0.757-2.982c0-1.285-0.252-2.271-0.757-2.958
		C130.723,26.711,130.012,26.369,129.096,26.369z"/>
	<path fill="#F9F9F9" d="M137.216,35.538h-1.561V20.904h1.561V35.538z"/>
	<path fill="#F9F9F9" d="M146.192,35.538l-0.311-1.467h-0.075c-0.514,0.646-1.027,1.084-1.538,1.312
		c-0.511,0.229-1.149,0.343-1.913,0.343c-1.022,0-1.823-0.263-2.403-0.79c-0.58-0.526-0.87-1.275-0.87-2.248
		c0-2.081,1.665-3.172,4.994-3.273l1.75-0.057V28.72c0-0.809-0.174-1.406-0.522-1.792s-0.905-0.579-1.669-0.579
		c-0.859,0-1.831,0.263-2.915,0.79l-0.48-1.194c0.508-0.276,1.064-0.492,1.67-0.649c0.605-0.157,1.211-0.235,1.82-0.235
		c1.229,0,2.139,0.272,2.732,0.818c0.592,0.546,0.888,1.42,0.888,2.624v7.034L146.192,35.538L146.192,35.538z M142.665,34.438
		c0.971,0,1.735-0.267,2.29-0.799c0.554-0.533,0.832-1.279,0.832-2.239v-0.931l-1.562,0.065c-1.241,0.045-2.136,0.237-2.685,0.579
		c-0.548,0.342-0.823,0.873-0.823,1.594c0,0.564,0.17,0.994,0.513,1.288C141.572,34.291,142.05,34.438,142.665,34.438z"/>
	<path fill="#F9F9F9" d="M148.255,25.231h1.674l2.257,5.878c0.495,1.342,0.803,2.31,0.922,2.906h0.075
		c0.082-0.32,0.253-0.867,0.512-1.642c0.26-0.775,1.112-3.155,2.553-7.143h1.675l-4.43,11.737c-0.439,1.16-0.951,1.983-1.538,2.47
		c-0.586,0.485-1.306,0.728-2.158,0.728c-0.477,0-0.947-0.053-1.411-0.16v-1.251c0.345,0.075,0.731,0.113,1.157,0.113
		c1.072,0,1.837-0.602,2.295-1.806l0.573-1.467L148.255,25.231z"/>
	<path fill="#F9F9F9" d="M100.403,26.188c0.496,0.41,1.53,1.272,1.53,2.911c0,1.594-0.906,2.351-1.811,3.061
		c-0.28,0.28-0.604,0.583-0.604,1.058c0,0.473,0.323,0.732,0.561,0.927l0.776,0.602c0.948,0.798,1.81,1.532,1.81,3.02
		c0,2.026-1.962,4.074-5.67,4.074c-3.127,0-4.635-1.487-4.635-3.083c0-0.776,0.386-1.875,1.66-2.63
		c1.336-0.819,3.148-0.926,4.118-0.992c-0.303-0.388-0.647-0.797-0.647-1.465c0-0.366,0.108-0.582,0.216-0.842
		c-0.238,0.022-0.475,0.043-0.691,0.043c-2.285,0-3.578-1.703-3.578-3.384c0-0.992,0.453-2.092,1.379-2.889
		c1.229-1.013,2.695-1.186,3.86-1.186h4.44l-1.38,0.776L100.403,26.188L100.403,26.188z M98.871,35.761
		c-0.172-0.023-0.281-0.023-0.495-0.023c-0.194,0-1.36,0.044-2.264,0.347c-0.474,0.171-1.854,0.689-1.854,2.22
		c0,1.53,1.488,2.631,3.795,2.631c2.068,0,3.169-0.994,3.169-2.329C101.222,37.506,100.51,36.926,98.871,35.761z M99.497,31.664
		c0.495-0.496,0.538-1.186,0.538-1.574c0-1.552-0.927-3.967-2.716-3.967c-0.561,0-1.164,0.28-1.509,0.712
		c-0.366,0.453-0.475,1.034-0.475,1.595c0,1.444,0.841,3.838,2.696,3.838C98.57,32.268,99.151,32.01,99.497,31.664z"/>
	<path fill="#F9F9F9" d="M86.83,35.416c-3.422,0-5.252-2.669-5.252-5.08c0-2.82,2.303-5.23,5.576-5.23
		c3.163,0,5.143,2.474,5.143,5.08C92.297,32.724,90.339,35.416,86.83,35.416z M89.52,33.673c0.517-0.689,0.647-1.55,0.647-2.39
		c0-1.895-0.904-5.51-3.573-5.51c-0.71,0-1.42,0.28-1.937,0.733c-0.84,0.752-0.991,1.7-0.991,2.626c0,2.129,1.055,5.637,3.66,5.637
		C88.165,34.769,89.026,34.361,89.52,33.673z"/>
	<path fill="#F9F9F9" d="M75.163,35.416c-3.423,0-5.253-2.669-5.253-5.08c0-2.82,2.304-5.23,5.576-5.23
		c3.164,0,5.144,2.474,5.144,5.08C80.63,32.724,78.672,35.416,75.163,35.416z M77.854,33.673c0.516-0.689,0.646-1.55,0.646-2.39
		c0-1.895-0.905-5.51-3.574-5.51c-0.71,0-1.421,0.28-1.937,0.733c-0.84,0.752-0.99,1.7-0.99,2.626c0,2.129,1.054,5.637,3.66,5.637
		C76.499,34.769,77.359,34.361,77.854,33.673z"/>
	<path fill="#F9F9F9" d="M68.266,35.079l-3.095,0.714c-1.256,0.195-2.381,0.367-3.57,0.367c-5.974,0-8.245-4.393-8.245-7.834
		c0-4.198,3.224-8.092,8.743-8.092c1.169,0,2.293,0.173,3.31,0.454c1.623,0.455,2.38,1.017,2.857,1.342l-1.797,1.71l-0.757,0.172
		l0.541-0.866c-0.735-0.714-2.078-2.033-4.631-2.033c-3.419,0-5.995,2.598-5.995,6.385c0,4.067,2.944,7.898,7.66,7.898
		c1.386,0,2.099-0.281,2.749-0.541V31.27l-3.267,0.173l1.731-0.932h4.588l-0.562,0.541c-0.153,0.13-0.174,0.174-0.217,0.346
		c-0.023,0.195-0.043,0.823-0.043,1.039V35.079L68.266,35.079z"/>
	<path fill="#F9F9F9" d="M107.242,34.456c-0.714-0.065-0.864-0.194-0.864-1.039v-0.238v-12.01c0.004-0.047,0.007-0.094,0.012-0.14
		c0.087-0.757,0.303-0.887,0.975-1.277h-3.096l-1.624,0.779h1.654v0.01l-0.001-0.008v12.645v0.715c0,0.432-0.085,0.498-0.584,1.146
		h3.831l0.801-0.475C107.979,34.52,107.611,34.499,107.242,34.456z"/>
	<path fill="#F9F9F9" d="M116.048,34.654c-0.236,0.129-0.472,0.28-0.708,0.387c-0.71,0.322-1.441,0.409-2.087,0.409
		c-0.686,0-1.761-0.044-2.859-0.839c-1.525-1.075-2.191-2.924-2.191-4.535c0-3.331,2.708-4.964,4.921-4.964
		c0.774,0,1.57,0.193,2.215,0.602c1.074,0.708,1.353,1.632,1.502,2.127l-5.049,2.042l-1.655,0.129
		c0.536,2.729,2.385,4.318,4.427,4.318c1.096,0,1.891-0.386,2.622-0.751L116.048,34.654z M114.029,28.249
		c0.408-0.15,0.623-0.279,0.623-0.58c0-0.859-0.967-1.848-2.128-1.848c-0.861,0-2.471,0.667-2.471,2.987
		c0,0.365,0.043,0.752,0.065,1.14L114.029,28.249z"/>
	<path fill="#F9F9F9" d="M118.122,25.26v1.418h-0.172V25.26h-0.469v-0.147h1.111v0.147H118.122z"/>
	<path fill="#F9F9F9" d="M120.056,26.678v-1.431h-0.008l-0.437,1.431h-0.135l-0.44-1.431h-0.006v1.431h-0.156v-1.565h0.268
		l0.399,1.265h0.006l0.393-1.265h0.272v1.565H120.056z"/>
	<path fill="#F9F9FA" d="M57.654,16.02h-1.075c0-0.148-0.102-0.567-0.306-1.257H54.72c-0.211,0.679-0.316,1.098-0.316,1.257h-1.011
		c0-0.087,0.262-0.804,0.785-2.151c0.523-1.346,0.785-2.088,0.785-2.224h1.27c0,0.128,0.237,0.858,0.711,2.193
		S57.654,15.899,57.654,16.02z M56.102,14.121c-0.383-1.156-0.575-1.781-0.575-1.875h-0.054c0,0.087-0.198,0.712-0.595,1.875H56.102
		z"/>
	<path fill="#F9F9FA" d="M61.988,16.02h-0.83c0-0.092-0.308-0.577-0.924-1.455c-0.645-0.925-1.013-1.558-1.102-1.898h-0.054
		c0.056,0.49,0.084,0.934,0.084,1.331c0,0.553,0.016,1.228,0.047,2.023h-0.827c0.033-0.694,0.05-1.457,0.05-2.288
		c0-0.818-0.017-1.513-0.05-2.087h0.998c0,0.119,0.277,0.593,0.83,1.421c0.589,0.88,0.928,1.477,1.015,1.791h0.05
		c-0.054-0.5-0.081-0.948-0.081-1.344c0-0.607-0.016-1.23-0.047-1.868h0.84c-0.032,0.556-0.047,1.251-0.047,2.087
		C61.94,14.574,61.956,15.336,61.988,16.02z"/>
	<path fill="#F9F9FA" d="M66.858,13.681c0,0.636-0.204,1.192-0.612,1.667c-0.408,0.475-0.979,0.712-1.714,0.712
		c-0.332,0-0.789-0.013-1.371-0.04c0.029-0.677,0.044-1.44,0.044-2.288c0-0.815-0.015-1.511-0.044-2.087h0.588
		c0.096,0,0.24-0.003,0.43-0.01c0.19-0.007,0.315-0.01,0.373-0.01c0.809,0,1.395,0.202,1.759,0.605
		C66.676,12.633,66.858,13.116,66.858,13.681z M65.941,13.826c0-0.43-0.125-0.792-0.376-1.087c-0.251-0.294-0.634-0.442-1.149-0.442
		c-0.096,0-0.228,0.01-0.397,0.03c0.022,0.448,0.033,0.916,0.033,1.405c0,0.536,0.011,1.066,0.033,1.593
		c0.145,0.029,0.291,0.044,0.437,0.044c0.482,0,0.838-0.15,1.07-0.449S65.941,14.256,65.941,13.826z"/>
	<path fill="#F9F9FA" d="M71.349,16.02h-0.995c-0.26-0.793-0.459-1.283-0.598-1.468c-0.139-0.186-0.363-0.279-0.672-0.279
		c-0.13,0-0.254,0.001-0.373,0.003c0,0.576,0.01,1.157,0.03,1.744h-0.934c0.029-0.677,0.044-1.44,0.044-2.288
		c0-0.815-0.015-1.511-0.044-2.087h0.581c0.067,0,0.208-0.003,0.422-0.01s0.412-0.01,0.593-0.01c1.028,0,1.543,0.352,1.543,1.055
		c0,0.558-0.293,0.946-0.88,1.166v0.05c0.226,0.063,0.424,0.239,0.595,0.529C70.83,14.715,71.06,15.247,71.349,16.02z
		 M70.089,12.928c0-0.446-0.287-0.669-0.86-0.669c-0.211,0-0.397,0.016-0.558,0.047c0.025,0.347,0.037,0.8,0.037,1.358
		c0.123,0.005,0.227,0.007,0.313,0.007C69.733,13.671,70.089,13.424,70.089,12.928z"/>
	<path fill="#F9F9FA" d="M76.166,13.752c0,0.688-0.211,1.258-0.632,1.71c-0.421,0.452-0.942,0.679-1.563,0.679
		c-0.592,0-1.087-0.208-1.485-0.623c-0.399-0.415-0.598-0.944-0.598-1.584c0-0.688,0.211-1.258,0.632-1.71
		c0.421-0.452,0.942-0.679,1.563-0.679c0.592,0,1.086,0.207,1.485,0.622S76.166,13.109,76.166,13.752z M75.239,13.849
		c0-0.468-0.12-0.848-0.359-1.139c-0.24-0.291-0.536-0.437-0.887-0.437c-0.327,0-0.605,0.147-0.833,0.44
		c-0.228,0.293-0.343,0.664-0.343,1.112c0,0.466,0.12,0.845,0.361,1.137s0.536,0.439,0.886,0.439c0.327,0,0.605-0.147,0.833-0.442
		C75.124,14.665,75.239,14.295,75.239,13.849z"/>
	<path fill="#F9F9FA" d="M78.066,16.02h-0.951c0.029-0.694,0.044-1.457,0.044-2.288c0-0.818-0.015-1.513-0.044-2.087h0.951
		c-0.029,0.565-0.044,1.26-0.044,2.087C78.022,14.576,78.037,15.339,78.066,16.02z"/>
	<path fill="#F9F9FA" d="M82.936,13.681c0,0.636-0.204,1.192-0.612,1.667c-0.408,0.475-0.979,0.712-1.714,0.712
		c-0.332,0-0.789-0.013-1.371-0.04c0.029-0.677,0.044-1.44,0.044-2.288c0-0.815-0.015-1.511-0.044-2.087h0.588
		c0.096,0,0.24-0.003,0.43-0.01s0.315-0.01,0.373-0.01c0.809,0,1.395,0.202,1.759,0.605C82.754,12.633,82.936,13.116,82.936,13.681z
		 M82.019,13.826c0-0.43-0.125-0.792-0.376-1.087c-0.251-0.294-0.634-0.442-1.149-0.442c-0.096,0-0.228,0.01-0.397,0.03
		c0.022,0.448,0.033,0.916,0.033,1.405c0,0.536,0.011,1.066,0.033,1.593c0.145,0.029,0.291,0.044,0.437,0.044
		c0.482,0,0.838-0.15,1.07-0.449C81.903,14.62,82.019,14.256,82.019,13.826z"/>
	<path fill="#F9F9FA" d="M89.398,16.02h-1.075c0-0.148-0.102-0.567-0.306-1.257h-1.553c-0.211,0.679-0.316,1.098-0.316,1.257h-1.011
		c0-0.087,0.262-0.804,0.785-2.151c0.523-1.346,0.785-2.088,0.785-2.224h1.27c0,0.128,0.237,0.858,0.711,2.193
		S89.398,15.899,89.398,16.02z M87.845,14.121c-0.383-1.156-0.575-1.781-0.575-1.875h-0.054c0,0.087-0.198,0.712-0.594,1.875H87.845
		z"/>
	<path fill="#F9F9FA" d="M93.318,12.79c0,0.536-0.199,0.931-0.597,1.186s-0.885,0.383-1.463,0.383c-0.105,0-0.18-0.002-0.225-0.007
		c0,0.421,0.012,0.977,0.037,1.667h-0.944c0.029-0.647,0.044-1.41,0.044-2.288c0-0.806-0.015-1.502-0.044-2.087h0.585
		c0.083,0,0.242-0.003,0.477-0.01s0.439-0.01,0.612-0.01c0.425,0,0.785,0.096,1.079,0.289C93.17,12.107,93.318,12.398,93.318,12.79z
		 M92.451,12.975c0-0.479-0.318-0.719-0.954-0.719c-0.159,0-0.327,0.017-0.504,0.05c0.025,0.424,0.037,0.903,0.037,1.438
		c0.056,0.005,0.121,0.007,0.195,0.007C92.042,13.752,92.451,13.493,92.451,12.975z"/>
	<path fill="#F9F9FA" d="M97.348,12.79c0,0.536-0.199,0.931-0.596,1.186c-0.398,0.255-0.886,0.383-1.464,0.383
		c-0.105,0-0.18-0.002-0.225-0.007c0,0.421,0.012,0.977,0.037,1.667h-0.944c0.029-0.647,0.044-1.41,0.044-2.288
		c0-0.806-0.015-1.502-0.044-2.087h0.585c0.083,0,0.242-0.003,0.477-0.01s0.439-0.01,0.612-0.01c0.425,0,0.785,0.096,1.079,0.289
		C97.201,12.107,97.348,12.398,97.348,12.79z M96.481,12.975c0-0.479-0.318-0.719-0.954-0.719c-0.159,0-0.327,0.017-0.504,0.05
		c0.025,0.424,0.037,0.903,0.037,1.438c0.056,0.005,0.121,0.007,0.195,0.007C96.072,13.752,96.481,13.493,96.481,12.975z"/>
	<path fill="#F9F9FA" d="M103.937,13.752c0,0.688-0.211,1.258-0.632,1.71c-0.421,0.453-0.942,0.679-1.563,0.679
		c-0.592,0-1.087-0.208-1.485-0.623c-0.399-0.415-0.598-0.944-0.598-1.584c0-0.688,0.211-1.258,0.632-1.71
		c0.421-0.453,0.942-0.679,1.563-0.679c0.592,0,1.087,0.207,1.485,0.622C103.738,12.58,103.937,13.109,103.937,13.752z
		 M103.01,13.849c0-0.468-0.12-0.848-0.359-1.139c-0.24-0.291-0.536-0.437-0.887-0.437c-0.327,0-0.605,0.147-0.833,0.44
		c-0.228,0.293-0.343,0.664-0.343,1.112c0,0.466,0.12,0.845,0.361,1.137s0.536,0.439,0.885,0.439c0.327,0,0.605-0.147,0.833-0.442
		C102.896,14.665,103.01,14.295,103.01,13.849z"/>
	<path fill="#F9F9FA" d="M108.492,16.02h-0.83c0-0.092-0.308-0.577-0.924-1.455c-0.645-0.925-1.013-1.558-1.102-1.898h-0.054
		c0.056,0.49,0.084,0.934,0.084,1.331c0,0.553,0.016,1.228,0.047,2.023h-0.827c0.033-0.694,0.05-1.457,0.05-2.288
		c0-0.818-0.017-1.513-0.05-2.087h0.998c0,0.119,0.277,0.593,0.83,1.421c0.589,0.88,0.927,1.477,1.015,1.791h0.05
		c-0.054-0.5-0.081-0.948-0.081-1.344c0-0.607-0.016-1.23-0.047-1.868h0.84c-0.032,0.556-0.047,1.251-0.047,2.087
		C108.445,14.574,108.461,15.336,108.492,16.02z"/>
</g>
<g>
	<g id="PLAY_1_">
		<g>
			<g>
				<defs>
					<path id="SVGID_13_" d="M39.477,114.2l-7.215-4.165c0,0-13.143-7.589-13.916-8.035s-1.543-0.176-1.543,0.756
						c0,1.553,0,16.204,0,16.204s0,15.833,0,16.533c0,0.699,0.55,1,1.222,0.613c0.671-0.388,14.237-8.221,14.237-8.221l7.214-4.165
						c0,0,6.121-3.534,6.935-4.003c0.814-0.47,0.735-1.115,0.049-1.484C45.774,117.862,39.477,114.2,39.477,114.2z"/>
				</defs>
				<clipPath id="SVGID_14_">
					<use xlink:href="#SVGID_13_"  overflow="visible"/>
				</clipPath>
				
					<linearGradient id="SVGID_15_" gradientUnits="userSpaceOnUse" x1="-1062.8434" y1="-415.7147" x2="-1062.8434" y2="-412.761" gradientTransform="matrix(12 0 0 12 12779.8604 5089.8145)">
					<stop  offset="0" style="stop-color:#257CB0"/>
					<stop  offset="0.2863" style="stop-color:#4A93B5"/>
					<stop  offset="0.767" style="stop-color:#78BCBB"/>
					<stop  offset="1" style="stop-color:#89CFBD"/>
				</linearGradient>
				<polygon clip-path="url(#SVGID_14_)" fill="url(#SVGID_15_)" points="16.804,101.238 16.804,118.96 16.804,136.682 
					34.676,118.96 				"/>
			</g>
		</g>
		<g>
			<g>
				<defs>
					<path id="SVGID_16_" d="M39.477,114.2l-7.215-4.165c0,0-13.143-7.589-13.916-8.035s-1.543-0.176-1.543,0.756
						c0,1.553,0,16.204,0,16.204s0,15.833,0,16.533c0,0.699,0.55,1,1.222,0.613c0.671-0.388,14.237-8.221,14.237-8.221l7.214-4.165
						c0,0,6.121-3.534,6.935-4.003c0.814-0.47,0.735-1.115,0.049-1.484C45.774,117.862,39.477,114.2,39.477,114.2z"/>
				</defs>
				<clipPath id="SVGID_17_">
					<use xlink:href="#SVGID_16_"  overflow="visible"/>
				</clipPath>
				
					<linearGradient id="SVGID_18_" gradientUnits="userSpaceOnUse" x1="-1063.588" y1="-414.9817" x2="-1061.6986" y2="-414.9817" gradientTransform="matrix(12 0 0 12 12779.8604 5089.8145)">
					<stop  offset="0" style="stop-color:#52C1AD"/>
					<stop  offset="1" style="stop-color:#DEE89A"/>
				</linearGradient>
				<polygon clip-path="url(#SVGID_17_)" fill="url(#SVGID_18_)" points="39.477,114.2 32.262,110.035 16.804,101.109 
					16.804,101.238 34.676,118.96 				"/>
			</g>
		</g>
		<g>
			<g>
				<defs>
					<path id="SVGID_19_" d="M39.477,114.2l-7.215-4.165c0,0-13.143-7.589-13.916-8.035s-1.543-0.176-1.543,0.756
						c0,1.553,0,16.204,0,16.204s0,15.833,0,16.533c0,0.699,0.55,1,1.222,0.613c0.671-0.388,14.237-8.221,14.237-8.221l7.214-4.165
						c0,0,6.121-3.534,6.935-4.003c0.814-0.47,0.735-1.115,0.049-1.484C45.774,117.862,39.477,114.2,39.477,114.2z"/>
				</defs>
				<clipPath id="SVGID_20_">
					<use xlink:href="#SVGID_19_"  overflow="visible"/>
				</clipPath>
				
					<linearGradient id="SVGID_21_" gradientUnits="userSpaceOnUse" x1="-1062.6433" y1="-414.2379" x2="-1062.6433" y2="-412.7504" gradientTransform="matrix(12 0 0 12 12779.8604 5089.8145)">
					<stop  offset="0" style="stop-color:#EC413D"/>
					<stop  offset="0.1668" style="stop-color:#DA4452"/>
					<stop  offset="0.5748" style="stop-color:#B0487A"/>
					<stop  offset="0.8619" style="stop-color:#954A92"/>
					<stop  offset="1" style="stop-color:#8A4A9D"/>
				</linearGradient>
				<polygon clip-path="url(#SVGID_20_)" fill="url(#SVGID_21_)" points="16.804,136.682 16.804,136.81 32.262,127.885 
					39.476,123.72 34.676,118.96 				"/>
			</g>
		</g>
		<g>
			<g>
				<defs>
					<path id="SVGID_22_" d="M39.477,114.2l-7.215-4.165c0,0-13.143-7.589-13.916-8.035s-1.543-0.176-1.543,0.756
						c0,1.553,0,16.204,0,16.204s0,15.833,0,16.533c0,0.699,0.55,1,1.222,0.613c0.671-0.388,14.237-8.221,14.237-8.221l7.214-4.165
						c0,0,6.121-3.534,6.935-4.003c0.814-0.47,0.735-1.115,0.049-1.484C45.774,117.862,39.477,114.2,39.477,114.2z"/>
				</defs>
				<clipPath id="SVGID_23_">
					<use xlink:href="#SVGID_22_"  overflow="visible"/>
				</clipPath>
				
					<linearGradient id="SVGID_24_" gradientUnits="userSpaceOnUse" x1="-1061.5552" y1="-414.6346" x2="-1061.5552" y2="-413.8412" gradientTransform="matrix(12 0 0 12 12779.8604 5089.8145)">
					<stop  offset="0" style="stop-color:#F58879"/>
					<stop  offset="0.1194" style="stop-color:#F69079"/>
					<stop  offset="0.7128" style="stop-color:#FCB877"/>
					<stop  offset="1" style="stop-color:#FEC874"/>
				</linearGradient>
				<polygon clip-path="url(#SVGID_23_)" fill="url(#SVGID_24_)" points="39.477,114.2 34.676,118.96 39.476,123.72 47.721,118.96 
									"/>
			</g>
		</g>
	</g>
	<path fill="#FF6680" d="M129.322,125.888c-0.671,0-1.284-0.124-1.838-0.371c-0.555-0.248-1.021-0.629-1.397-1.142h-0.113
		c0.075,0.602,0.113,1.172,0.113,1.711v4.241h-1.56v-14.935h1.269l0.216,1.411h0.075c0.402-0.565,0.869-0.972,1.402-1.222
		c0.533-0.251,1.144-0.376,1.833-0.376c1.367,0,2.422,0.467,3.165,1.401s1.115,2.245,1.115,3.931c0,1.693-0.378,3.008-1.133,3.946
		C131.713,125.42,130.665,125.888,129.322,125.888z M129.096,116.531c-1.053,0-1.815,0.292-2.285,0.875s-0.712,1.511-0.724,2.784
		v0.348c0,1.449,0.241,2.485,0.724,3.109s1.258,0.935,2.323,0.935c0.891,0,1.588-0.36,2.093-1.081
		c0.504-0.721,0.757-1.715,0.757-2.982c0-1.285-0.252-2.271-0.757-2.958C130.723,116.874,130.012,116.531,129.096,116.531z"/>
	<path fill="#FF6680" d="M137.216,125.7h-1.561v-14.634h1.561V125.7z"/>
	<path fill="#FF6680" d="M146.192,125.7l-0.311-1.467h-0.075c-0.514,0.646-1.027,1.084-1.538,1.312
		c-0.511,0.229-1.149,0.343-1.913,0.343c-1.022,0-1.823-0.263-2.403-0.79c-0.58-0.526-0.87-1.275-0.87-2.248
		c0-2.081,1.665-3.172,4.994-3.273l1.75-0.057v-0.639c0-0.809-0.174-1.406-0.522-1.792s-0.905-0.579-1.669-0.579
		c-0.859,0-1.831,0.263-2.915,0.79l-0.48-1.194c0.508-0.276,1.064-0.492,1.67-0.649c0.605-0.157,1.211-0.235,1.82-0.235
		c1.229,0,2.139,0.272,2.732,0.818c0.592,0.546,0.888,1.42,0.888,2.624v7.034L146.192,125.7L146.192,125.7z M142.665,124.6
		c0.971,0,1.735-0.267,2.29-0.799c0.554-0.533,0.832-1.279,0.832-2.239v-0.931l-1.562,0.065c-1.241,0.045-2.136,0.237-2.685,0.579
		c-0.548,0.342-0.823,0.873-0.823,1.594c0,0.564,0.17,0.994,0.513,1.288C141.572,124.453,142.05,124.6,142.665,124.6z"/>
	<path fill="#FF6680" d="M148.255,115.393h1.674l2.257,5.878c0.495,1.342,0.803,2.31,0.922,2.906h0.075
		c0.082-0.32,0.253-0.867,0.512-1.642c0.26-0.775,1.112-3.155,2.553-7.143h1.675l-4.43,11.737c-0.439,1.16-0.951,1.983-1.538,2.47
		c-0.586,0.486-1.306,0.728-2.158,0.728c-0.477,0-0.947-0.053-1.411-0.16v-1.251c0.345,0.075,0.731,0.113,1.157,0.113
		c1.072,0,1.837-0.602,2.295-1.806l0.573-1.467L148.255,115.393z"/>
	<path fill="#FF6680" d="M100.403,116.351c0.496,0.41,1.53,1.272,1.53,2.911c0,1.594-0.906,2.351-1.811,3.061
		c-0.28,0.28-0.604,0.583-0.604,1.058c0,0.473,0.323,0.732,0.561,0.927l0.776,0.602c0.948,0.798,1.81,1.532,1.81,3.02
		c0,2.026-1.962,4.074-5.67,4.074c-3.127,0-4.635-1.487-4.635-3.083c0-0.776,0.386-1.875,1.66-2.63
		c1.336-0.819,3.148-0.926,4.118-0.992c-0.303-0.388-0.647-0.797-0.647-1.465c0-0.366,0.108-0.582,0.216-0.842
		c-0.238,0.022-0.475,0.043-0.691,0.043c-2.285,0-3.578-1.703-3.578-3.384c0-0.992,0.453-2.092,1.379-2.889
		c1.229-1.013,2.695-1.186,3.86-1.186h4.44l-1.38,0.776L100.403,116.351L100.403,116.351z M98.871,125.923
		c-0.172-0.023-0.281-0.023-0.495-0.023c-0.194,0-1.36,0.044-2.264,0.347c-0.474,0.171-1.854,0.689-1.854,2.22
		c0,1.53,1.488,2.631,3.795,2.631c2.068,0,3.169-0.994,3.169-2.329C101.222,127.668,100.51,127.088,98.871,125.923z M99.497,121.826
		c0.495-0.496,0.538-1.186,0.538-1.574c0-1.552-0.927-3.967-2.716-3.967c-0.561,0-1.164,0.28-1.509,0.712
		c-0.366,0.453-0.475,1.034-0.475,1.595c0,1.444,0.841,3.838,2.696,3.838C98.57,122.43,99.151,122.172,99.497,121.826z"/>
	<path fill="#FF6680" d="M86.83,125.578c-3.422,0-5.252-2.669-5.252-5.08c0-2.82,2.303-5.23,5.576-5.23
		c3.163,0,5.143,2.474,5.143,5.08C92.297,122.887,90.339,125.578,86.83,125.578z M89.52,123.835c0.517-0.689,0.647-1.55,0.647-2.39
		c0-1.895-0.904-5.51-3.573-5.51c-0.71,0-1.42,0.28-1.937,0.733c-0.84,0.752-0.991,1.7-0.991,2.626c0,2.129,1.055,5.637,3.66,5.637
		C88.165,124.931,89.026,124.523,89.52,123.835z"/>
	<path fill="#FF6680" d="M75.163,125.578c-3.423,0-5.253-2.669-5.253-5.08c0-2.82,2.304-5.23,5.576-5.23
		c3.164,0,5.144,2.474,5.144,5.08C80.63,122.887,78.672,125.578,75.163,125.578z M77.854,123.835c0.516-0.689,0.646-1.55,0.646-2.39
		c0-1.895-0.905-5.51-3.574-5.51c-0.71,0-1.421,0.28-1.937,0.733c-0.84,0.752-0.99,1.7-0.99,2.626c0,2.129,1.054,5.637,3.66,5.637
		C76.499,124.931,77.359,124.523,77.854,123.835z"/>
	<path fill="#FF6680" d="M68.266,125.241l-3.095,0.714c-1.256,0.195-2.381,0.367-3.57,0.367c-5.974,0-8.245-4.393-8.245-7.834
		c0-4.198,3.224-8.092,8.743-8.092c1.169,0,2.293,0.173,3.31,0.454c1.623,0.455,2.38,1.017,2.857,1.342l-1.797,1.71l-0.757,0.172
		l0.541-0.866c-0.735-0.714-2.078-2.033-4.631-2.033c-3.419,0-5.995,2.598-5.995,6.385c0,4.067,2.944,7.898,7.66,7.898
		c1.386,0,2.099-0.281,2.749-0.541v-3.483l-3.267,0.173l1.731-0.932h4.588l-0.562,0.541c-0.153,0.13-0.174,0.174-0.217,0.346
		c-0.023,0.195-0.043,0.823-0.043,1.039V125.241L68.266,125.241z"/>
	<path fill="#FF6680" d="M107.242,124.618c-0.714-0.065-0.864-0.194-0.864-1.039v-0.238v-12.01c0.004-0.047,0.007-0.094,0.012-0.14
		c0.087-0.757,0.303-0.887,0.975-1.277h-3.096l-1.624,0.779h1.654v0.01l-0.001-0.008v12.645v0.715c0,0.432-0.085,0.498-0.584,1.146
		h3.831l0.801-0.475C107.979,124.682,107.611,124.661,107.242,124.618z"/>
	<path fill="#FF6680" d="M116.048,124.817c-0.236,0.129-0.472,0.28-0.708,0.387c-0.71,0.322-1.441,0.409-2.087,0.409
		c-0.686,0-1.761-0.044-2.859-0.839c-1.525-1.075-2.191-2.924-2.191-4.535c0-3.331,2.708-4.964,4.921-4.964
		c0.774,0,1.57,0.193,2.215,0.602c1.074,0.708,1.353,1.632,1.502,2.127l-5.049,2.042l-1.655,0.129
		c0.536,2.729,2.385,4.318,4.427,4.318c1.096,0,1.891-0.386,2.622-0.751L116.048,124.817z M114.029,118.411
		c0.408-0.15,0.623-0.279,0.623-0.58c0-0.859-0.967-1.848-2.128-1.848c-0.861,0-2.471,0.667-2.471,2.987
		c0,0.365,0.043,0.752,0.065,1.14L114.029,118.411z"/>
	<path fill="#FF6680" d="M118.122,115.422v1.418h-0.172v-1.418h-0.469v-0.147h1.111v0.147H118.122z"/>
	<path fill="#FF6680" d="M120.056,116.84v-1.431h-0.008l-0.437,1.431h-0.135l-0.44-1.431h-0.006v1.431h-0.156v-1.565h0.268
		l0.399,1.265h0.006l0.393-1.265h0.272v1.565H120.056z"/>
	<path fill="#FF6680" d="M57.654,106.182h-1.075c0-0.148-0.102-0.567-0.306-1.257H54.72c-0.211,0.679-0.316,1.098-0.316,1.257
		h-1.011c0-0.087,0.262-0.804,0.785-2.151c0.523-1.346,0.785-2.088,0.785-2.224h1.27c0,0.128,0.237,0.858,0.711,2.193
		S57.654,106.061,57.654,106.182z M56.102,104.283c-0.383-1.156-0.575-1.781-0.575-1.875h-0.054c0,0.087-0.198,0.712-0.595,1.875
		H56.102z"/>
	<path fill="#FF6680" d="M61.988,106.182h-0.83c0-0.092-0.308-0.577-0.924-1.455c-0.645-0.925-1.013-1.558-1.102-1.898h-0.054
		c0.056,0.491,0.084,0.934,0.084,1.331c0,0.553,0.016,1.228,0.047,2.023h-0.827c0.033-0.694,0.05-1.457,0.05-2.288
		c0-0.818-0.017-1.513-0.05-2.087h0.998c0,0.119,0.277,0.593,0.83,1.421c0.589,0.88,0.928,1.477,1.015,1.791h0.05
		c-0.054-0.5-0.081-0.948-0.081-1.344c0-0.607-0.016-1.23-0.047-1.868h0.84c-0.032,0.556-0.047,1.251-0.047,2.087
		C61.94,104.736,61.956,105.499,61.988,106.182z"/>
	<path fill="#FF6680" d="M66.858,103.843c0,0.636-0.204,1.192-0.612,1.667s-0.979,0.712-1.714,0.712
		c-0.332,0-0.789-0.013-1.371-0.04c0.029-0.677,0.044-1.44,0.044-2.288c0-0.815-0.015-1.511-0.044-2.087h0.588
		c0.096,0,0.24-0.003,0.43-0.01c0.19-0.007,0.315-0.01,0.373-0.01c0.809,0,1.395,0.202,1.759,0.605
		C66.676,102.795,66.858,103.279,66.858,103.843z M65.941,103.988c0-0.43-0.125-0.792-0.376-1.087
		c-0.251-0.294-0.634-0.442-1.149-0.442c-0.096,0-0.228,0.01-0.397,0.03c0.022,0.448,0.033,0.916,0.033,1.405
		c0,0.536,0.011,1.066,0.033,1.593c0.145,0.029,0.291,0.044,0.437,0.044c0.482,0,0.838-0.15,1.07-0.449
		S65.941,104.418,65.941,103.988z"/>
	<path fill="#FF6680" d="M71.349,106.182h-0.995c-0.26-0.793-0.459-1.283-0.598-1.468c-0.139-0.186-0.363-0.279-0.672-0.279
		c-0.13,0-0.254,0.001-0.373,0.003c0,0.576,0.01,1.157,0.03,1.744h-0.934c0.029-0.677,0.044-1.44,0.044-2.288
		c0-0.815-0.015-1.511-0.044-2.087h0.581c0.067,0,0.208-0.003,0.422-0.01s0.412-0.01,0.593-0.01c1.028,0,1.543,0.352,1.543,1.055
		c0,0.558-0.293,0.946-0.88,1.166v0.05c0.226,0.063,0.424,0.239,0.595,0.529C70.83,104.878,71.06,105.409,71.349,106.182z
		 M70.089,103.091c0-0.446-0.287-0.669-0.86-0.669c-0.211,0-0.397,0.016-0.558,0.047c0.025,0.347,0.037,0.8,0.037,1.358
		c0.123,0.005,0.227,0.007,0.313,0.007C69.733,103.833,70.089,103.586,70.089,103.091z"/>
	<path fill="#FF6680" d="M76.166,103.914c0,0.688-0.211,1.258-0.632,1.71c-0.421,0.452-0.942,0.679-1.563,0.679
		c-0.592,0-1.087-0.208-1.485-0.623c-0.399-0.415-0.598-0.944-0.598-1.584c0-0.688,0.211-1.258,0.632-1.71
		c0.421-0.452,0.942-0.679,1.563-0.679c0.592,0,1.086,0.207,1.485,0.622S76.166,103.271,76.166,103.914z M75.239,104.011
		c0-0.468-0.12-0.848-0.359-1.139c-0.24-0.291-0.536-0.437-0.887-0.437c-0.327,0-0.605,0.147-0.833,0.44s-0.343,0.664-0.343,1.112
		c0,0.466,0.12,0.845,0.361,1.137s0.536,0.439,0.886,0.439c0.327,0,0.605-0.147,0.833-0.442
		C75.124,104.827,75.239,104.457,75.239,104.011z"/>
	<path fill="#FF6680" d="M78.066,106.182h-0.951c0.029-0.694,0.044-1.457,0.044-2.288c0-0.818-0.015-1.513-0.044-2.087h0.951
		c-0.029,0.565-0.044,1.26-0.044,2.087C78.022,104.738,78.037,105.501,78.066,106.182z"/>
	<path fill="#FF6680" d="M82.936,103.843c0,0.636-0.204,1.192-0.612,1.667s-0.979,0.712-1.714,0.712
		c-0.332,0-0.789-0.013-1.371-0.04c0.029-0.677,0.044-1.44,0.044-2.288c0-0.815-0.015-1.511-0.044-2.087h0.588
		c0.096,0,0.24-0.003,0.43-0.01s0.315-0.01,0.373-0.01c0.809,0,1.395,0.202,1.759,0.605
		C82.754,102.795,82.936,103.279,82.936,103.843z M82.019,103.988c0-0.43-0.125-0.792-0.376-1.087
		c-0.251-0.294-0.634-0.442-1.149-0.442c-0.096,0-0.228,0.01-0.397,0.03c0.022,0.448,0.033,0.916,0.033,1.405
		c0,0.536,0.011,1.066,0.033,1.593c0.145,0.029,0.291,0.044,0.437,0.044c0.482,0,0.838-0.15,1.07-0.449
		C81.903,104.782,82.019,104.418,82.019,103.988z"/>
	<path fill="#FF6680" d="M89.398,106.182h-1.075c0-0.148-0.102-0.567-0.306-1.257h-1.553c-0.211,0.679-0.316,1.098-0.316,1.257
		h-1.011c0-0.087,0.262-0.804,0.785-2.151c0.523-1.346,0.785-2.088,0.785-2.224h1.27c0,0.128,0.237,0.858,0.711,2.193
		S89.398,106.061,89.398,106.182z M87.845,104.283c-0.383-1.156-0.575-1.781-0.575-1.875h-0.054c0,0.087-0.198,0.712-0.594,1.875
		H87.845z"/>
	<path fill="#FF6680" d="M93.318,102.953c0,0.536-0.199,0.931-0.597,1.186s-0.885,0.383-1.463,0.383
		c-0.105,0-0.18-0.002-0.225-0.007c0,0.421,0.012,0.977,0.037,1.667h-0.944c0.029-0.647,0.044-1.41,0.044-2.288
		c0-0.806-0.015-1.502-0.044-2.087h0.585c0.083,0,0.242-0.003,0.477-0.01s0.439-0.01,0.612-0.01c0.425,0,0.785,0.096,1.079,0.289
		S93.318,102.561,93.318,102.953z M92.451,103.137c0-0.479-0.318-0.719-0.954-0.719c-0.159,0-0.327,0.017-0.504,0.05
		c0.025,0.424,0.037,0.903,0.037,1.438c0.056,0.005,0.121,0.007,0.195,0.007C92.042,103.914,92.451,103.655,92.451,103.137z"/>
	<path fill="#FF6680" d="M97.348,102.953c0,0.536-0.199,0.931-0.596,1.186c-0.398,0.255-0.886,0.383-1.464,0.383
		c-0.105,0-0.18-0.002-0.225-0.007c0,0.421,0.012,0.977,0.037,1.667h-0.944c0.029-0.647,0.044-1.41,0.044-2.288
		c0-0.806-0.015-1.502-0.044-2.087h0.585c0.083,0,0.242-0.003,0.477-0.01s0.439-0.01,0.612-0.01c0.425,0,0.785,0.096,1.079,0.289
		S97.348,102.561,97.348,102.953z M96.481,103.137c0-0.479-0.318-0.719-0.954-0.719c-0.159,0-0.327,0.017-0.504,0.05
		c0.025,0.424,0.037,0.903,0.037,1.438c0.056,0.005,0.121,0.007,0.195,0.007C96.072,103.914,96.481,103.655,96.481,103.137z"/>
	<path fill="#FF6680" d="M103.937,103.914c0,0.688-0.211,1.258-0.632,1.71c-0.421,0.453-0.942,0.679-1.563,0.679
		c-0.592,0-1.087-0.208-1.485-0.623c-0.399-0.415-0.598-0.944-0.598-1.584c0-0.688,0.211-1.258,0.632-1.71s0.942-0.679,1.563-0.679
		c0.592,0,1.087,0.207,1.485,0.622C103.738,102.742,103.937,103.271,103.937,103.914z M103.01,104.011
		c0-0.468-0.12-0.848-0.359-1.139c-0.24-0.291-0.536-0.437-0.887-0.437c-0.327,0-0.605,0.147-0.833,0.44s-0.343,0.664-0.343,1.112
		c0,0.466,0.12,0.845,0.361,1.137s0.536,0.439,0.885,0.439c0.327,0,0.605-0.147,0.833-0.442
		C102.896,104.827,103.01,104.457,103.01,104.011z"/>
	<path fill="#FF6680" d="M108.492,106.182h-0.83c0-0.092-0.308-0.577-0.924-1.455c-0.645-0.925-1.013-1.558-1.102-1.898h-0.054
		c0.056,0.491,0.084,0.934,0.084,1.331c0,0.553,0.016,1.228,0.047,2.023h-0.827c0.033-0.694,0.05-1.457,0.05-2.288
		c0-0.818-0.017-1.513-0.05-2.087h0.998c0,0.119,0.277,0.593,0.83,1.421c0.589,0.88,0.927,1.477,1.015,1.791h0.05
		c-0.054-0.5-0.081-0.948-0.081-1.344c0-0.607-0.016-1.23-0.047-1.868h0.84c-0.032,0.556-0.047,1.251-0.047,2.087
		C108.445,104.736,108.461,105.499,108.492,106.182z"/>
</g>
<g>
	<g>
		<rect x="15" y="199.5" fill="#FAFAFA" width="140.881" height="40"/>
		<g>
			<path fill="#FF6680" d="M158.275,190H11.724C8.017,190,5,192.999,5,196.688v41.634C5,242.005,8.017,245,11.724,245h146.552
				c3.708,0,6.725-2.995,6.725-6.678v-41.634C165,192.999,161.983,190,158.275,190z"/>
		</g>
	</g>
	<g>
		<g id="PLAY_3_">
			<g>
				<g>
					<defs>
						<path id="SVGID_25_" d="M39.477,214.2l-7.215-4.165c0,0-13.143-7.589-13.916-8.035s-1.543-0.176-1.543,0.756
							c0,1.553,0,16.204,0,16.204s0,15.833,0,16.533c0,0.699,0.55,1,1.222,0.613c0.671-0.388,14.237-8.221,14.237-8.221l7.214-4.165
							c0,0,6.121-3.534,6.935-4.003c0.814-0.47,0.735-1.115,0.049-1.484C45.774,217.862,39.477,214.2,39.477,214.2z"/>
					</defs>
					<clipPath id="SVGID_26_">
						<use xlink:href="#SVGID_25_"  overflow="visible"/>
					</clipPath>
					
						<linearGradient id="SVGID_27_" gradientUnits="userSpaceOnUse" x1="-1062.8434" y1="-407.3814" x2="-1062.8434" y2="-404.4277" gradientTransform="matrix(12 0 0 12 12779.8604 5089.8145)">
						<stop  offset="0" style="stop-color:#257CB0"/>
						<stop  offset="0.2863" style="stop-color:#4A93B5"/>
						<stop  offset="0.767" style="stop-color:#78BCBB"/>
						<stop  offset="1" style="stop-color:#89CFBD"/>
					</linearGradient>
					<polygon clip-path="url(#SVGID_26_)" fill="url(#SVGID_27_)" points="16.804,201.238 16.804,218.96 16.804,236.682 
						34.676,218.96 					"/>
				</g>
			</g>
			<g>
				<g>
					<defs>
						<path id="SVGID_28_" d="M39.477,214.2l-7.215-4.165c0,0-13.143-7.589-13.916-8.035s-1.543-0.176-1.543,0.756
							c0,1.553,0,16.204,0,16.204s0,15.833,0,16.533c0,0.699,0.55,1,1.222,0.613c0.671-0.388,14.237-8.221,14.237-8.221l7.214-4.165
							c0,0,6.121-3.534,6.935-4.003c0.814-0.47,0.735-1.115,0.049-1.484C45.774,217.862,39.477,214.2,39.477,214.2z"/>
					</defs>
					<clipPath id="SVGID_29_">
						<use xlink:href="#SVGID_28_"  overflow="visible"/>
					</clipPath>
					
						<linearGradient id="SVGID_30_" gradientUnits="userSpaceOnUse" x1="-1063.588" y1="-406.6483" x2="-1061.6986" y2="-406.6483" gradientTransform="matrix(12 0 0 12 12779.8604 5089.8145)">
						<stop  offset="0" style="stop-color:#52C1AD"/>
						<stop  offset="1" style="stop-color:#DEE89A"/>
					</linearGradient>
					<polygon clip-path="url(#SVGID_29_)" fill="url(#SVGID_30_)" points="39.477,214.2 32.262,210.035 16.804,201.109 
						16.804,201.238 34.676,218.96 					"/>
				</g>
			</g>
			<g>
				<g>
					<defs>
						<path id="SVGID_31_" d="M39.477,214.2l-7.215-4.165c0,0-13.143-7.589-13.916-8.035s-1.543-0.176-1.543,0.756
							c0,1.553,0,16.204,0,16.204s0,15.833,0,16.533c0,0.699,0.55,1,1.222,0.613c0.671-0.388,14.237-8.221,14.237-8.221l7.214-4.165
							c0,0,6.121-3.534,6.935-4.003c0.814-0.47,0.735-1.115,0.049-1.484C45.774,217.862,39.477,214.2,39.477,214.2z"/>
					</defs>
					<clipPath id="SVGID_32_">
						<use xlink:href="#SVGID_31_"  overflow="visible"/>
					</clipPath>
					
						<linearGradient id="SVGID_33_" gradientUnits="userSpaceOnUse" x1="-1062.6433" y1="-405.9045" x2="-1062.6433" y2="-404.4171" gradientTransform="matrix(12 0 0 12 12779.8604 5089.8145)">
						<stop  offset="0" style="stop-color:#EC413D"/>
						<stop  offset="0.1668" style="stop-color:#DA4452"/>
						<stop  offset="0.5748" style="stop-color:#B0487A"/>
						<stop  offset="0.8619" style="stop-color:#954A92"/>
						<stop  offset="1" style="stop-color:#8A4A9D"/>
					</linearGradient>
					<polygon clip-path="url(#SVGID_32_)" fill="url(#SVGID_33_)" points="16.804,236.682 16.804,236.81 32.262,227.885 
						39.476,223.72 34.676,218.96 					"/>
				</g>
			</g>
			<g>
				<g>
					<defs>
						<path id="SVGID_34_" d="M39.477,214.2l-7.215-4.165c0,0-13.143-7.589-13.916-8.035s-1.543-0.176-1.543,0.756
							c0,1.553,0,16.204,0,16.204s0,15.833,0,16.533c0,0.699,0.55,1,1.222,0.613c0.671-0.388,14.237-8.221,14.237-8.221l7.214-4.165
							c0,0,6.121-3.534,6.935-4.003c0.814-0.47,0.735-1.115,0.049-1.484C45.774,217.862,39.477,214.2,39.477,214.2z"/>
					</defs>
					<clipPath id="SVGID_35_">
						<use xlink:href="#SVGID_34_"  overflow="visible"/>
					</clipPath>
					
						<linearGradient id="SVGID_36_" gradientUnits="userSpaceOnUse" x1="-1061.5552" y1="-406.3012" x2="-1061.5552" y2="-405.5079" gradientTransform="matrix(12 0 0 12 12779.8604 5089.8145)">
						<stop  offset="0" style="stop-color:#F58879"/>
						<stop  offset="0.1194" style="stop-color:#F69079"/>
						<stop  offset="0.7128" style="stop-color:#FCB877"/>
						<stop  offset="1" style="stop-color:#FEC874"/>
					</linearGradient>
					<polygon clip-path="url(#SVGID_35_)" fill="url(#SVGID_36_)" points="39.477,214.2 34.676,218.96 39.476,223.72 47.721,218.96 
											"/>
				</g>
			</g>
		</g>
		<path fill="#F9F9F9" d="M129.322,225.888c-0.671,0-1.284-0.124-1.838-0.371c-0.555-0.248-1.021-0.629-1.397-1.142h-0.113
			c0.075,0.602,0.113,1.172,0.113,1.711v4.242h-1.56v-14.935h1.269l0.216,1.411h0.075c0.402-0.565,0.869-0.972,1.402-1.222
			c0.533-0.251,1.144-0.376,1.833-0.376c1.367,0,2.422,0.467,3.165,1.401s1.115,2.245,1.115,3.931c0,1.693-0.378,3.008-1.133,3.946
			C131.713,225.42,130.665,225.888,129.322,225.888z M129.096,216.531c-1.053,0-1.815,0.292-2.285,0.875s-0.712,1.511-0.724,2.784
			v0.348c0,1.449,0.241,2.485,0.724,3.109s1.258,0.935,2.323,0.935c0.891,0,1.588-0.36,2.093-1.081
			c0.504-0.721,0.757-1.715,0.757-2.982c0-1.285-0.252-2.271-0.757-2.958C130.723,216.874,130.012,216.531,129.096,216.531z"/>
		<path fill="#F9F9F9" d="M137.216,225.7h-1.561v-14.634h1.561V225.7z"/>
		<path fill="#F9F9F9" d="M146.192,225.7l-0.311-1.467h-0.075c-0.514,0.646-1.027,1.084-1.538,1.312
			c-0.511,0.229-1.149,0.343-1.913,0.343c-1.022,0-1.823-0.263-2.403-0.79c-0.58-0.526-0.87-1.275-0.87-2.248
			c0-2.081,1.665-3.172,4.994-3.273l1.75-0.057v-0.639c0-0.809-0.174-1.406-0.522-1.792s-0.905-0.579-1.669-0.579
			c-0.859,0-1.831,0.263-2.915,0.79l-0.48-1.194c0.508-0.276,1.064-0.492,1.67-0.649c0.605-0.157,1.211-0.235,1.82-0.235
			c1.229,0,2.139,0.272,2.732,0.818c0.592,0.546,0.888,1.42,0.888,2.624v7.034L146.192,225.7L146.192,225.7z M142.665,224.6
			c0.971,0,1.735-0.267,2.29-0.799c0.554-0.533,0.832-1.279,0.832-2.239v-0.931l-1.562,0.065c-1.241,0.045-2.136,0.237-2.685,0.579
			c-0.548,0.342-0.823,0.873-0.823,1.594c0,0.564,0.17,0.994,0.513,1.288C141.572,224.453,142.05,224.6,142.665,224.6z"/>
		<path fill="#F9F9F9" d="M148.255,215.393h1.674l2.257,5.878c0.495,1.342,0.803,2.31,0.922,2.906h0.075
			c0.082-0.32,0.253-0.867,0.512-1.642c0.26-0.775,1.112-3.155,2.553-7.143h1.675l-4.43,11.737c-0.439,1.16-0.951,1.983-1.538,2.47
			c-0.586,0.486-1.306,0.728-2.158,0.728c-0.477,0-0.947-0.053-1.411-0.16v-1.251c0.345,0.075,0.731,0.113,1.157,0.113
			c1.072,0,1.837-0.602,2.295-1.806l0.573-1.467L148.255,215.393z"/>
		<path fill="#F9F9F9" d="M100.403,216.351c0.496,0.41,1.53,1.272,1.53,2.911c0,1.594-0.906,2.351-1.811,3.061
			c-0.28,0.28-0.604,0.583-0.604,1.058c0,0.473,0.323,0.732,0.561,0.927l0.776,0.602c0.948,0.798,1.81,1.532,1.81,3.02
			c0,2.026-1.962,4.074-5.67,4.074c-3.127,0-4.635-1.487-4.635-3.083c0-0.776,0.386-1.875,1.66-2.63
			c1.336-0.819,3.148-0.926,4.118-0.992c-0.303-0.388-0.647-0.797-0.647-1.465c0-0.366,0.108-0.582,0.216-0.842
			c-0.238,0.022-0.475,0.043-0.691,0.043c-2.285,0-3.578-1.703-3.578-3.384c0-0.992,0.453-2.092,1.379-2.889
			c1.229-1.013,2.695-1.186,3.86-1.186h4.44l-1.38,0.776L100.403,216.351L100.403,216.351z M98.871,225.923
			c-0.172-0.023-0.281-0.023-0.495-0.023c-0.194,0-1.36,0.044-2.264,0.347c-0.474,0.171-1.854,0.689-1.854,2.22
			c0,1.53,1.488,2.631,3.795,2.631c2.068,0,3.169-0.994,3.169-2.329C101.222,227.668,100.51,227.088,98.871,225.923z
			 M99.497,221.826c0.495-0.496,0.538-1.186,0.538-1.574c0-1.552-0.927-3.967-2.716-3.967c-0.561,0-1.164,0.28-1.509,0.712
			c-0.366,0.453-0.475,1.034-0.475,1.595c0,1.444,0.841,3.838,2.696,3.838C98.57,222.43,99.151,222.172,99.497,221.826z"/>
		<path fill="#F9F9F9" d="M86.83,225.578c-3.422,0-5.252-2.669-5.252-5.08c0-2.82,2.303-5.23,5.576-5.23
			c3.163,0,5.143,2.474,5.143,5.08C92.297,222.887,90.339,225.578,86.83,225.578z M89.52,223.835c0.517-0.689,0.647-1.55,0.647-2.39
			c0-1.895-0.904-5.51-3.573-5.51c-0.71,0-1.42,0.28-1.937,0.733c-0.84,0.752-0.991,1.7-0.991,2.626c0,2.129,1.055,5.637,3.66,5.637
			C88.165,224.931,89.026,224.523,89.52,223.835z"/>
		<path fill="#F9F9F9" d="M75.163,225.578c-3.423,0-5.253-2.669-5.253-5.08c0-2.82,2.304-5.23,5.576-5.23
			c3.164,0,5.144,2.474,5.144,5.08C80.63,222.887,78.672,225.578,75.163,225.578z M77.854,223.835
			c0.516-0.689,0.646-1.55,0.646-2.39c0-1.895-0.905-5.51-3.574-5.51c-0.71,0-1.421,0.28-1.937,0.733
			c-0.84,0.752-0.99,1.7-0.99,2.626c0,2.129,1.054,5.637,3.66,5.637C76.499,224.931,77.359,224.523,77.854,223.835z"/>
		<path fill="#F9F9F9" d="M68.266,225.241l-3.095,0.714c-1.256,0.195-2.381,0.367-3.57,0.367c-5.974,0-8.245-4.393-8.245-7.834
			c0-4.198,3.224-8.092,8.743-8.092c1.169,0,2.293,0.173,3.31,0.454c1.623,0.455,2.38,1.017,2.857,1.342l-1.797,1.71l-0.757,0.172
			l0.541-0.866c-0.735-0.714-2.078-2.033-4.631-2.033c-3.419,0-5.995,2.598-5.995,6.385c0,4.067,2.944,7.898,7.66,7.898
			c1.386,0,2.099-0.281,2.749-0.541v-3.483l-3.267,0.173l1.731-0.932h4.588l-0.562,0.541c-0.153,0.13-0.174,0.174-0.217,0.346
			c-0.023,0.195-0.043,0.823-0.043,1.04V225.241L68.266,225.241z"/>
		<path fill="#F9F9F9" d="M107.242,224.618c-0.714-0.065-0.864-0.194-0.864-1.039v-0.238v-12.01c0.004-0.047,0.007-0.094,0.012-0.14
			c0.087-0.757,0.303-0.887,0.975-1.277h-3.096l-1.624,0.779h1.654v0.01l-0.001-0.008v12.645v0.715c0,0.432-0.085,0.498-0.584,1.146
			h3.831l0.801-0.475C107.979,224.682,107.611,224.661,107.242,224.618z"/>
		<path fill="#F9F9F9" d="M116.048,224.817c-0.236,0.129-0.472,0.28-0.708,0.387c-0.71,0.322-1.441,0.409-2.087,0.409
			c-0.686,0-1.761-0.044-2.859-0.839c-1.525-1.075-2.191-2.924-2.191-4.535c0-3.331,2.708-4.964,4.921-4.964
			c0.774,0,1.57,0.193,2.215,0.602c1.074,0.708,1.353,1.632,1.502,2.127l-5.049,2.042l-1.655,0.129
			c0.536,2.729,2.385,4.318,4.427,4.318c1.096,0,1.891-0.386,2.622-0.751L116.048,224.817z M114.029,218.411
			c0.408-0.15,0.623-0.279,0.623-0.58c0-0.859-0.967-1.848-2.128-1.848c-0.861,0-2.471,0.667-2.471,2.987
			c0,0.365,0.043,0.752,0.065,1.14L114.029,218.411z"/>
		<path fill="#F9F9F9" d="M118.122,215.422v1.418h-0.172v-1.418h-0.469v-0.147h1.111v0.147H118.122z"/>
		<path fill="#F9F9F9" d="M120.056,216.84v-1.431h-0.008l-0.437,1.431h-0.135l-0.44-1.431h-0.006v1.431h-0.156v-1.565h0.268
			l0.399,1.265h0.006l0.393-1.265h0.272v1.565H120.056z"/>
		<path fill="#F9F9FA" d="M57.654,206.182h-1.075c0-0.148-0.102-0.567-0.306-1.257H54.72c-0.211,0.679-0.316,1.098-0.316,1.257
			h-1.011c0-0.087,0.262-0.804,0.785-2.151c0.523-1.346,0.785-2.088,0.785-2.224h1.27c0,0.128,0.237,0.858,0.711,2.193
			S57.654,206.061,57.654,206.182z M56.102,204.283c-0.383-1.156-0.575-1.781-0.575-1.875h-0.054c0,0.087-0.198,0.712-0.595,1.875
			H56.102z"/>
		<path fill="#F9F9FA" d="M61.988,206.182h-0.83c0-0.092-0.308-0.577-0.924-1.455c-0.645-0.925-1.013-1.558-1.102-1.898h-0.054
			c0.056,0.49,0.084,0.934,0.084,1.331c0,0.553,0.016,1.228,0.047,2.023h-0.827c0.033-0.694,0.05-1.457,0.05-2.288
			c0-0.818-0.017-1.513-0.05-2.087h0.998c0,0.119,0.277,0.593,0.83,1.421c0.589,0.88,0.928,1.477,1.015,1.791h0.05
			c-0.054-0.5-0.081-0.948-0.081-1.344c0-0.607-0.016-1.23-0.047-1.868h0.84c-0.032,0.556-0.047,1.251-0.047,2.087
			C61.94,204.736,61.956,205.499,61.988,206.182z"/>
		<path fill="#F9F9FA" d="M66.858,203.843c0,0.636-0.204,1.192-0.612,1.667s-0.979,0.712-1.714,0.712
			c-0.332,0-0.789-0.013-1.371-0.04c0.029-0.677,0.044-1.44,0.044-2.288c0-0.815-0.015-1.511-0.044-2.087h0.588
			c0.096,0,0.24-0.003,0.43-0.01c0.19-0.007,0.315-0.01,0.373-0.01c0.809,0,1.395,0.202,1.759,0.605
			C66.676,202.795,66.858,203.279,66.858,203.843z M65.941,203.988c0-0.43-0.125-0.792-0.376-1.087
			c-0.251-0.294-0.634-0.442-1.149-0.442c-0.096,0-0.228,0.01-0.397,0.03c0.022,0.448,0.033,0.916,0.033,1.405
			c0,0.536,0.011,1.066,0.033,1.593c0.145,0.029,0.291,0.044,0.437,0.044c0.482,0,0.838-0.15,1.07-0.449
			C65.824,204.782,65.941,204.418,65.941,203.988z"/>
		<path fill="#F9F9FA" d="M71.349,206.182h-0.995c-0.26-0.793-0.459-1.283-0.598-1.468c-0.139-0.186-0.363-0.279-0.672-0.279
			c-0.13,0-0.254,0.001-0.373,0.003c0,0.576,0.01,1.157,0.03,1.744h-0.934c0.029-0.677,0.044-1.44,0.044-2.288
			c0-0.815-0.015-1.511-0.044-2.087h0.581c0.067,0,0.208-0.003,0.422-0.01c0.214-0.007,0.412-0.01,0.593-0.01
			c1.028,0,1.543,0.352,1.543,1.055c0,0.558-0.293,0.946-0.88,1.166v0.05c0.226,0.063,0.424,0.239,0.595,0.529
			C70.83,204.878,71.06,205.409,71.349,206.182z M70.089,203.091c0-0.446-0.287-0.669-0.86-0.669c-0.211,0-0.397,0.016-0.558,0.047
			c0.025,0.347,0.037,0.8,0.037,1.358c0.123,0.005,0.227,0.007,0.313,0.007C69.733,203.833,70.089,203.586,70.089,203.091z"/>
		<path fill="#F9F9FA" d="M76.166,203.914c0,0.688-0.211,1.258-0.632,1.71c-0.421,0.452-0.942,0.679-1.563,0.679
			c-0.592,0-1.087-0.208-1.485-0.623c-0.399-0.415-0.598-0.944-0.598-1.584c0-0.688,0.211-1.258,0.632-1.71
			c0.421-0.452,0.942-0.679,1.563-0.679c0.592,0,1.086,0.207,1.485,0.622C75.966,202.742,76.166,203.271,76.166,203.914z
			 M75.239,204.011c0-0.468-0.12-0.848-0.359-1.139c-0.24-0.291-0.536-0.437-0.887-0.437c-0.327,0-0.605,0.147-0.833,0.44
			s-0.343,0.664-0.343,1.112c0,0.466,0.12,0.845,0.361,1.137c0.241,0.292,0.536,0.439,0.886,0.439c0.327,0,0.605-0.147,0.833-0.442
			C75.124,204.827,75.239,204.457,75.239,204.011z"/>
		<path fill="#F9F9FA" d="M78.066,206.182h-0.951c0.029-0.694,0.044-1.457,0.044-2.288c0-0.818-0.015-1.513-0.044-2.087h0.951
			c-0.029,0.565-0.044,1.26-0.044,2.087C78.022,204.738,78.037,205.501,78.066,206.182z"/>
		<path fill="#F9F9FA" d="M82.936,203.843c0,0.636-0.204,1.192-0.612,1.667s-0.979,0.712-1.714,0.712
			c-0.332,0-0.789-0.013-1.371-0.04c0.029-0.677,0.044-1.44,0.044-2.288c0-0.815-0.015-1.511-0.044-2.087h0.588
			c0.096,0,0.24-0.003,0.43-0.01c0.19-0.007,0.315-0.01,0.373-0.01c0.809,0,1.395,0.202,1.759,0.605
			C82.754,202.795,82.936,203.279,82.936,203.843z M82.019,203.988c0-0.43-0.125-0.792-0.376-1.087
			c-0.251-0.294-0.634-0.442-1.149-0.442c-0.096,0-0.228,0.01-0.397,0.03c0.022,0.448,0.033,0.916,0.033,1.405
			c0,0.536,0.011,1.066,0.033,1.593c0.145,0.029,0.291,0.044,0.437,0.044c0.482,0,0.838-0.15,1.07-0.449
			C81.903,204.782,82.019,204.418,82.019,203.988z"/>
		<path fill="#F9F9FA" d="M89.398,206.182h-1.075c0-0.148-0.102-0.567-0.306-1.257h-1.553c-0.211,0.679-0.316,1.098-0.316,1.257
			h-1.011c0-0.087,0.262-0.804,0.785-2.151c0.523-1.346,0.785-2.088,0.785-2.224h1.27c0,0.128,0.237,0.858,0.711,2.193
			S89.398,206.061,89.398,206.182z M87.845,204.283c-0.383-1.156-0.575-1.781-0.575-1.875h-0.054c0,0.087-0.198,0.712-0.594,1.875
			H87.845z"/>
		<path fill="#F9F9FA" d="M93.318,202.953c0,0.536-0.199,0.931-0.597,1.186s-0.885,0.383-1.463,0.383
			c-0.105,0-0.18-0.002-0.225-0.007c0,0.421,0.012,0.977,0.037,1.667h-0.944c0.029-0.647,0.044-1.41,0.044-2.288
			c0-0.806-0.015-1.502-0.044-2.087h0.585c0.083,0,0.242-0.003,0.477-0.01c0.235-0.007,0.439-0.01,0.612-0.01
			c0.425,0,0.785,0.096,1.079,0.289C93.17,202.269,93.318,202.561,93.318,202.953z M92.451,203.137c0-0.479-0.318-0.719-0.954-0.719
			c-0.159,0-0.327,0.017-0.504,0.05c0.025,0.424,0.037,0.903,0.037,1.438c0.056,0.005,0.121,0.007,0.195,0.007
			C92.042,203.914,92.451,203.655,92.451,203.137z"/>
		<path fill="#F9F9FA" d="M97.348,202.953c0,0.536-0.199,0.931-0.596,1.186c-0.398,0.255-0.886,0.383-1.464,0.383
			c-0.105,0-0.18-0.002-0.225-0.007c0,0.421,0.012,0.977,0.037,1.667h-0.944c0.029-0.647,0.044-1.41,0.044-2.288
			c0-0.806-0.015-1.502-0.044-2.087h0.585c0.083,0,0.242-0.003,0.477-0.01c0.235-0.007,0.439-0.01,0.612-0.01
			c0.425,0,0.785,0.096,1.079,0.289C97.201,202.269,97.348,202.561,97.348,202.953z M96.481,203.137
			c0-0.479-0.318-0.719-0.954-0.719c-0.159,0-0.327,0.017-0.504,0.05c0.025,0.424,0.037,0.903,0.037,1.438
			c0.056,0.005,0.121,0.007,0.195,0.007C96.072,203.914,96.481,203.655,96.481,203.137z"/>
		<path fill="#F9F9FA" d="M103.937,203.914c0,0.688-0.211,1.258-0.632,1.71c-0.421,0.453-0.942,0.679-1.563,0.679
			c-0.592,0-1.087-0.208-1.485-0.623c-0.399-0.415-0.598-0.944-0.598-1.584c0-0.688,0.211-1.258,0.632-1.71s0.942-0.679,1.563-0.679
			c0.592,0,1.087,0.207,1.485,0.622C103.738,202.742,103.937,203.271,103.937,203.914z M103.01,204.011
			c0-0.468-0.12-0.848-0.359-1.139c-0.24-0.291-0.536-0.437-0.887-0.437c-0.327,0-0.605,0.147-0.833,0.44s-0.343,0.664-0.343,1.112
			c0,0.466,0.12,0.845,0.361,1.137c0.241,0.292,0.536,0.439,0.885,0.439c0.327,0,0.605-0.147,0.833-0.442
			C102.896,204.827,103.01,204.457,103.01,204.011z"/>
		<path fill="#F9F9FA" d="M108.492,206.182h-0.83c0-0.092-0.308-0.577-0.924-1.455c-0.645-0.925-1.013-1.558-1.102-1.898h-0.054
			c0.056,0.49,0.084,0.934,0.084,1.331c0,0.553,0.016,1.228,0.047,2.023h-0.827c0.033-0.694,0.05-1.457,0.05-2.288
			c0-0.818-0.017-1.513-0.05-2.087h0.998c0,0.119,0.277,0.593,0.83,1.421c0.589,0.88,0.927,1.477,1.015,1.791h0.05
			c-0.054-0.5-0.081-0.948-0.081-1.344c0-0.607-0.016-1.23-0.047-1.868h0.84c-0.032,0.556-0.047,1.251-0.047,2.087
			C108.445,204.736,108.461,205.499,108.492,206.182z"/>
	</g>
</g>
</svg>
