<?xml version="1.0" encoding="utf-8"?>
<!-- Generator: Adobe Illustrator 17.0.0, SVG Export Plug-In . SVG Version: 6.00 Build 0)  -->
<!DOCTYPE svg PUBLIC "-//W3C//DTD SVG 1.1//EN" "http://www.w3.org/Graphics/SVG/1.1/DTD/svg11.dtd">
<svg version="1.1" id="Layer_1" xmlns="http://www.w3.org/2000/svg" xmlns:xlink="http://www.w3.org/1999/xlink" x="0px" y="0px"
	 width="170px" height="270px" viewBox="0 0 170 270" enable-background="new 0 0 170 270" xml:space="preserve">
<g>
	<g>
		<path fill="#CFE6DF" d="M11.761,80C6.654,80,2.5,75.936,2.5,70.939V24.07c0-5.001,4.154-9.07,9.261-9.07h146.478
			c5.106,0,9.262,4.069,9.262,9.07v46.87c0,4.996-4.155,9.061-9.262,9.061L11.761,80L11.761,80z"/>
		<path fill="#CFE6DF" d="M158.238,17.5c3.729,0,6.762,2.946,6.762,6.57v46.87c0,3.618-3.033,6.56-6.762,6.56H11.761
			C8.033,77.5,5,74.558,5,70.94V24.07c0-3.624,3.033-6.57,6.761-6.57H158.238 M158.238,12.5H11.761C5.276,12.5,0,17.69,0,24.07
			v46.87C0,77.314,5.276,82.5,11.761,82.5h146.477c6.486,0,11.762-5.186,11.762-11.56V24.07C170,17.69,164.724,12.5,158.238,12.5
			L158.238,12.5z"/>
	</g>
</g>
<g>
	<g>
		<path fill="#1F75B3" d="M158.275,7.5H11.724C8.017,7.5,5,10.446,5,14.07v46.87c0,3.618,3.017,6.56,6.724,6.56h146.552
			c3.708,0,6.725-2.942,6.725-6.56V14.07C165,10.446,161.983,7.5,158.275,7.5z"/>
	</g>
	<path fill="#66CCFF" d="M158.275,0H11.724C8.017,0,5,2.999,5,6.688v41.634C5,52.005,8.017,55,11.724,55h146.552
		c3.708,0,6.725-2.995,6.725-6.678V6.688C165,2.999,161.983,0,158.275,0z"/>
	<g>
		<defs>
			<path id="SVGID_1_" d="M158.275,0H11.724C8.017,0,5,2.999,5,6.688v41.634C5,52.005,8.017,55,11.724,55h146.552
				c3.708,0,6.725-2.995,6.725-6.678V6.688C165,2.999,161.983,0,158.275,0z"/>
		</defs>
		<clipPath id="SVGID_2_">
			<use xlink:href="#SVGID_1_"  overflow="visible"/>
		</clipPath>
		<g clip-path="url(#SVGID_2_)">
			<rect x="4.85" y="-8" fill="#269FD9" width="160.122" height="71.16"/>
			<g>
				<g id="bag_1_">
					<g id="handles_1_">
						<path fill="#FFFFFF" d="M30.138,11.482c-1.57,0.552-2.718,1.023-2.718,4.022v1.444l0.941-0.19v-1.246
							c-0.023-2.034,0.505-2.46,1.878-3.052C30.232,12.076,30.198,11.751,30.138,11.482z"/>
						<path fill="#FFFFFF" d="M32.873,10.841c0.062,0.29,0.112,0.606,0.146,0.946c2.458-0.354,2.411,0.66,2.411,2.778v0.782
							l0.93-0.191v-0.591C36.359,11.277,35.846,10.396,32.873,10.841z"/>
						<path fill="#FFFFFF" d="M23.185,17.795v-4.324c-0.03-2.678,1.354-3.498,3.908-4.097c3.847-0.902,4.092,1.578,4.092,3.156
							v3.666l0.942-0.19V12.61c-0.01-2.986-0.941-5.223-5.222-4.252c-2.306,0.523-4.66,1.111-4.66,5.024v4.6L23.185,17.795z"/>
					</g>
					<path fill="#FFFFFF" d="M41.067,15.354l-25.882,5.175v18.824l25.882,5.175l5.173-1.881V17.236L41.067,15.354z M26.493,35.459
						l-5.743-0.81v-4.767h5.743V35.459z M26.493,29.159H20.75v-4.385l5.743-0.811V29.159z M34.454,36.563l-7.24-1.058v-5.622h7.24
						V36.563z M34.454,29.159h-7.24v-5.238l7.24-1.06V29.159z"/>
				</g>
			</g>
			<g>
				<path fill="#FFFFFF" d="M66.857,25.623h-0.784l-3.051-10.321c-0.153-0.523-0.239-0.953-0.258-1.291h-0.038
					c-0.026,0.3-0.124,0.724-0.297,1.272l-3.252,10.34h-0.784l-4.075-13.716h1.062l3.128,10.991c0.121,0.433,0.22,0.838,0.297,1.214
					h0.038c0.006-0.063,0.02-0.14,0.043-0.23c0.022-0.089,1.248-4.081,3.678-11.975h0.478l3.109,10.991
					c0.153,0.561,0.252,0.966,0.297,1.214h0.038l0.067-0.287l3.3-11.918h1.023L66.857,25.623z"/>
				<path fill="#FFFFFF" d="M73.165,13.361c-0.191,0-0.361-0.07-0.507-0.21c-0.147-0.14-0.22-0.319-0.22-0.536
					c0-0.21,0.075-0.381,0.225-0.512c0.15-0.131,0.317-0.196,0.502-0.196c0.198,0,0.371,0.064,0.521,0.191
					c0.15,0.128,0.225,0.3,0.225,0.517c0,0.204-0.074,0.379-0.22,0.526C73.544,13.288,73.369,13.361,73.165,13.361z M72.735,25.623
					v-9.795h0.88v9.795H72.735z"/>
				<path fill="#FFFFFF" d="M83.213,25.623v-5.701c0-2.353-0.848-3.529-2.544-3.529c-0.931,0-1.703,0.344-2.315,1.033
					c-0.612,0.689-0.918,1.546-0.918,2.573v5.624h-0.88v-9.795h0.88v1.779h0.038c0.714-1.345,1.83-2.018,3.348-2.018
					c1.065,0,1.876,0.351,2.434,1.052c0.558,0.702,0.837,1.709,0.837,3.023v5.959H83.213z"/>
				<path fill="#FFFFFF" d="M93.797,25.623v-1.779h-0.038c-0.325,0.619-0.802,1.11-1.431,1.473
					c-0.628,0.363-1.327,0.546-2.099,0.546c-1.224,0-2.212-0.447-2.965-1.339c-0.752-0.893-1.129-2.101-1.129-3.626
					c0-1.014,0.186-1.926,0.56-2.736c0.373-0.81,0.902-1.441,1.588-1.894c0.685-0.453,1.465-0.679,2.339-0.679
					c1.466,0,2.512,0.603,3.137,1.808h0.038v-6.275h0.88v14.501H93.797z M93.797,19.665c0-0.944-0.299-1.725-0.895-2.344
					c-0.596-0.618-1.362-0.928-2.3-0.928c-1.04,0-1.891,0.402-2.554,1.205c-0.663,0.804-0.995,1.878-0.995,3.223
					c0,1.295,0.29,2.325,0.871,3.09c0.58,0.765,1.367,1.148,2.362,1.148c1.052,0,1.901-0.33,2.544-0.99
					c0.645-0.66,0.966-1.519,0.966-2.578V19.665z"/>
				<path fill="#FFFFFF" d="M101.55,25.863c-1.416,0-2.543-0.466-3.382-1.397c-0.838-0.931-1.258-2.158-1.258-3.683
					c0-1.6,0.429-2.866,1.287-3.797c0.858-0.931,2.01-1.397,3.458-1.397c1.397,0,2.5,0.459,3.31,1.377
					c0.81,0.918,1.215,2.178,1.215,3.778c0,1.53-0.421,2.766-1.263,3.707C104.075,25.393,102.952,25.863,101.55,25.863z
					 M101.617,16.393c-1.154,0-2.074,0.391-2.76,1.172c-0.685,0.781-1.028,1.86-1.028,3.238c0,1.295,0.339,2.328,1.019,3.099
					c0.679,0.772,1.589,1.158,2.731,1.158c1.167,0,2.073-0.383,2.716-1.148c0.645-0.765,0.966-1.827,0.966-3.186
					c0-1.402-0.316-2.475-0.947-3.218C103.683,16.765,102.783,16.393,101.617,16.393z"/>
				<path fill="#FFFFFF" d="M116.715,25.623h-0.823l-2.133-7.384c-0.038-0.127-0.09-0.402-0.153-0.822h-0.048
					c-0.006,0.128-0.07,0.396-0.191,0.803l-2.391,7.403h-0.823l-2.955-9.795h0.976l2.277,7.815c0.063,0.217,0.108,0.491,0.134,0.823
					h0.077c0.012-0.147,0.073-0.421,0.181-0.823l2.487-7.815h0.603l2.219,7.815c0.051,0.198,0.096,0.472,0.134,0.823h0.077
					c0-0.172,0.054-0.447,0.162-0.823l2.325-7.815h0.908L116.715,25.623z"/>
				<path fill="#FFFFFF" d="M120.967,25.193v-1.062c0.294,0.255,0.681,0.474,1.163,0.655c0.481,0.182,0.903,0.273,1.267,0.273
					c1.537,0,2.306-0.628,2.306-1.885c0-0.408-0.155-0.764-0.464-1.066c-0.309-0.303-0.872-0.633-1.688-0.99
					c-0.886-0.376-1.532-0.78-1.936-1.21c-0.405-0.43-0.608-0.981-0.608-1.65c0-0.778,0.302-1.417,0.904-1.918
					c0.603-0.501,1.357-0.751,2.262-0.751c0.835,0,1.555,0.172,2.162,0.517v0.995c-0.734-0.472-1.486-0.708-2.257-0.708
					c-0.638,0-1.156,0.169-1.555,0.507c-0.398,0.338-0.598,0.772-0.598,1.301c0,0.377,0.059,0.67,0.177,0.88
					c0.118,0.21,0.319,0.413,0.603,0.608c0.284,0.195,0.696,0.41,1.238,0.646c1.046,0.465,1.753,0.896,2.123,1.291
					c0.369,0.396,0.555,0.912,0.555,1.55c0,0.803-0.3,1.453-0.899,1.947c-0.6,0.495-1.396,0.742-2.391,0.742
					C122.38,25.863,121.593,25.639,120.967,25.193z"/>
				<path fill="#FFFFFF" d="M56.536,38.009v5.5h-0.947V29.793h3.31c1.422,0,2.503,0.325,3.243,0.976
					c0.739,0.65,1.11,1.607,1.11,2.87c0,1.32-0.429,2.378-1.287,3.176c-0.858,0.797-2.01,1.196-3.458,1.196H56.536z M56.536,30.663
					v6.476h1.951c1.243,0,2.185-0.293,2.826-0.88c0.641-0.587,0.961-1.422,0.961-2.506c0-2.06-1.183-3.09-3.549-3.09H56.536z"/>
				<path fill="#FFFFFF" d="M72.515,43.509v-5.873c0-1.161-0.21-2.01-0.631-2.549c-0.421-0.539-1.078-0.808-1.97-0.808
					c-0.593,0-1.134,0.159-1.622,0.478c-0.488,0.319-0.869,0.767-1.143,1.344c-0.274,0.577-0.411,1.239-0.411,1.985v5.423h-0.88
					V29.009h0.88v6.466h0.038c0.778-1.333,1.9-1.999,3.367-1.999c1.065,0,1.873,0.34,2.425,1.018c0.551,0.68,0.828,1.66,0.828,2.942
					v6.074H72.515z"/>
				<path fill="#FFFFFF" d="M80.076,43.748c-1.416,0-2.543-0.465-3.381-1.397c-0.838-0.931-1.258-2.158-1.258-3.683
					c0-1.601,0.429-2.866,1.286-3.797c0.858-0.931,2.01-1.397,3.458-1.397c1.397,0,2.499,0.459,3.31,1.377
					c0.81,0.918,1.215,2.178,1.215,3.778c0,1.53-0.421,2.766-1.263,3.706C82.601,43.278,81.479,43.748,80.076,43.748z
					 M80.143,34.279c-1.154,0-2.074,0.39-2.76,1.171c-0.685,0.781-1.028,1.861-1.028,3.238c0,1.295,0.339,2.328,1.018,3.099
					c0.679,0.771,1.589,1.157,2.731,1.157c1.167,0,2.072-0.383,2.716-1.148c0.644-0.765,0.966-1.827,0.966-3.185
					c0-1.403-0.316-2.476-0.947-3.219C82.209,34.65,81.31,34.279,80.143,34.279z"/>
				<path fill="#FFFFFF" d="M93.596,43.509v-5.701c0-2.353-0.848-3.529-2.544-3.529c-0.931,0-1.703,0.344-2.315,1.033
					c-0.612,0.689-0.918,1.546-0.918,2.573v5.624h-0.88v-9.795h0.88v1.779h0.038c0.714-1.345,1.831-2.018,3.348-2.018
					c1.065,0,1.876,0.351,2.435,1.052c0.558,0.702,0.837,1.709,0.837,3.023v5.959H93.596z"/>
				<path fill="#FFFFFF" d="M97.437,38.65c0,1.358,0.312,2.414,0.937,3.166c0.625,0.752,1.476,1.129,2.553,1.129
					c1.104,0,2.175-0.405,3.214-1.215v0.937c-1.02,0.721-2.152,1.081-3.395,1.081c-1.288,0-2.315-0.464-3.08-1.392
					c-0.765-0.927-1.148-2.195-1.148-3.802c0-0.944,0.19-1.806,0.569-2.588c0.379-0.781,0.906-1.392,1.579-1.832
					c0.672-0.44,1.42-0.66,2.242-0.66c1.193,0,2.12,0.421,2.784,1.263c0.663,0.842,0.995,2.015,0.995,3.52v0.392H97.437z
					 M103.769,37.847c-0.038-1.135-0.311-2.014-0.818-2.635c-0.507-0.622-1.201-0.933-2.081-0.933c-0.924,0-1.687,0.309-2.286,0.928
					c-0.6,0.618-0.97,1.498-1.11,2.64H103.769z"/>
			</g>
		</g>
	</g>
</g>
<g>
	<g>
		<path fill="#CFE6DF" d="M11.761,170c-5.106,0-9.261-4.064-9.261-9.061V114.07c0-5.001,4.154-9.07,9.261-9.07h146.478
			c5.106,0,9.262,4.069,9.262,9.07v46.869c0,4.996-4.155,9.061-9.262,9.061H11.761z"/>
		<path fill="#CFE6DF" d="M158.238,107.5c3.729,0,6.762,2.946,6.762,6.57v46.87c0,3.618-3.033,6.56-6.762,6.56H11.761
			C8.033,167.5,5,164.558,5,160.94v-46.87c0-3.624,3.033-6.57,6.761-6.57L158.238,107.5 M158.238,102.5H11.761
			C5.276,102.5,0,107.69,0,114.07v46.87c0,6.374,5.276,11.56,11.761,11.56h146.477c6.486,0,11.762-5.186,11.762-11.56v-46.87
			C170,107.69,164.724,102.5,158.238,102.5L158.238,102.5z"/>
	</g>
</g>
<g>
	<g>
		<path fill="#CFE6DF" d="M11.761,250c-5.106,0-9.261-4.064-9.261-9.061V207.07c0-5.001,4.154-9.07,9.261-9.07h146.478
			c5.106,0,9.262,4.069,9.262,9.07v33.869c0,4.996-4.155,9.061-9.262,9.061L11.761,250L11.761,250z"/>
		<path fill="#CFE6DF" d="M158.238,200.5c3.729,0,6.762,2.946,6.762,6.57v33.87c0,3.618-3.033,6.56-6.762,6.56H11.761
			C8.033,247.5,5,244.558,5,240.94v-33.87c0-3.624,3.033-6.57,6.761-6.57H158.238 M158.238,195.5H11.761
			C5.276,195.5,0,200.69,0,207.07v33.87c0,6.374,5.276,11.56,11.761,11.56h146.477c6.486,0,11.762-5.186,11.762-11.56v-33.87
			C170,200.69,164.724,195.5,158.238,195.5L158.238,195.5z"/>
	</g>
</g>
<g>
	<g>
		<path fill="#C1C4CC" d="M158.275,97.5H11.724C8.017,97.5,5,100.446,5,104.07v46.87c0,3.618,3.017,6.56,6.724,6.56h146.552
			c3.708,0,6.725-2.942,6.725-6.56v-46.87C165,100.446,161.983,97.5,158.275,97.5z"/>
	</g>
	<g>
		<defs>
			<path id="SVGID_3_" d="M158.275,90H11.724C8.017,90,5,92.999,5,96.688v41.634C5,142.005,8.017,145,11.724,145h146.552
				c3.708,0,6.725-2.995,6.725-6.678V96.688C165,92.999,161.983,90,158.275,90z"/>
		</defs>
		<clipPath id="SVGID_4_">
			<use xlink:href="#SVGID_3_"  overflow="visible"/>
		</clipPath>
		<g clip-path="url(#SVGID_4_)">
			<rect x="4.85" y="82" fill="#FFFFFF" width="160.122" height="71.16"/>
			<g>
				<g id="bag_2_">
					<g id="handles_2_">
						<path fill="#269FD9" d="M30.138,101.482c-1.57,0.552-2.718,1.023-2.718,4.022v1.444l0.941-0.19v-1.246
							c-0.023-2.034,0.505-2.46,1.878-3.052C30.232,102.076,30.198,101.751,30.138,101.482z"/>
						<path fill="#269FD9" d="M32.873,100.841c0.062,0.29,0.112,0.606,0.146,0.946c2.458-0.354,2.411,0.66,2.411,2.778v0.782
							l0.93-0.191v-0.591C36.359,101.277,35.846,100.396,32.873,100.841z"/>
						<path fill="#269FD9" d="M23.185,107.795v-4.324c-0.03-2.678,1.354-3.498,3.908-4.097c3.847-0.902,4.092,1.578,4.092,3.156
							v3.666l0.942-0.19v-3.394c-0.01-2.986-0.941-5.223-5.222-4.252c-2.306,0.523-4.66,1.111-4.66,5.024v4.6L23.185,107.795z"/>
					</g>
					<path fill="#269FD9" d="M41.067,105.354l-25.882,5.175v18.824l25.882,5.175l5.173-1.881v-25.411L41.067,105.354z
						 M26.493,125.459l-5.743-0.81v-4.767h5.743V125.459z M26.493,119.159H20.75v-4.385l5.743-0.811V119.159z M34.454,126.563
						l-7.24-1.058v-5.622h7.24V126.563z M34.454,119.159h-7.24v-5.238l7.24-1.06V119.159z"/>
				</g>
			</g>
			<g>
				<path fill="#269FD9" d="M66.857,115.623h-0.784l-3.051-10.321c-0.153-0.523-0.239-0.953-0.258-1.291h-0.038
					c-0.026,0.3-0.124,0.724-0.297,1.272l-3.252,10.34h-0.784l-4.075-13.716h1.062l3.128,10.991c0.121,0.433,0.22,0.838,0.297,1.214
					h0.038c0.006-0.063,0.02-0.14,0.043-0.23c0.022-0.089,1.248-4.081,3.678-11.975h0.478l3.109,10.991
					c0.153,0.561,0.252,0.966,0.297,1.214h0.038l0.067-0.287l3.3-11.918h1.023L66.857,115.623z"/>
				<path fill="#269FD9" d="M73.165,103.361c-0.191,0-0.361-0.07-0.507-0.21c-0.147-0.14-0.22-0.319-0.22-0.536
					c0-0.21,0.075-0.381,0.225-0.512c0.15-0.131,0.317-0.196,0.502-0.196c0.198,0,0.371,0.064,0.521,0.191
					c0.15,0.128,0.225,0.3,0.225,0.517c0,0.204-0.074,0.379-0.22,0.526C73.544,103.288,73.369,103.361,73.165,103.361z
					 M72.735,115.623v-9.795h0.88v9.795H72.735z"/>
				<path fill="#269FD9" d="M83.213,115.623v-5.701c0-2.353-0.848-3.529-2.544-3.529c-0.931,0-1.703,0.344-2.315,1.033
					c-0.612,0.689-0.918,1.546-0.918,2.573v5.624h-0.88v-9.795h0.88v1.779h0.038c0.714-1.345,1.83-2.018,3.348-2.018
					c1.065,0,1.876,0.351,2.434,1.052c0.558,0.702,0.837,1.709,0.837,3.023v5.959H83.213z"/>
				<path fill="#269FD9" d="M93.797,115.623v-1.779h-0.038c-0.325,0.619-0.802,1.11-1.431,1.473
					c-0.628,0.363-1.327,0.546-2.099,0.546c-1.224,0-2.212-0.447-2.965-1.339c-0.752-0.893-1.129-2.101-1.129-3.626
					c0-1.014,0.186-1.926,0.56-2.736c0.373-0.81,0.902-1.441,1.588-1.894c0.685-0.453,1.465-0.679,2.339-0.679
					c1.466,0,2.512,0.603,3.137,1.808h0.038v-6.275h0.88v14.501H93.797z M93.797,109.665c0-0.944-0.299-1.725-0.895-2.344
					c-0.596-0.618-1.362-0.928-2.3-0.928c-1.04,0-1.891,0.402-2.554,1.205c-0.663,0.804-0.995,1.878-0.995,3.223
					c0,1.295,0.29,2.325,0.871,3.09c0.58,0.765,1.367,1.148,2.362,1.148c1.052,0,1.901-0.33,2.544-0.99
					c0.645-0.66,0.966-1.519,0.966-2.578V109.665z"/>
				<path fill="#269FD9" d="M101.55,115.863c-1.416,0-2.543-0.466-3.382-1.397c-0.838-0.931-1.258-2.158-1.258-3.683
					c0-1.6,0.429-2.866,1.287-3.797c0.858-0.931,2.01-1.397,3.458-1.397c1.397,0,2.5,0.459,3.31,1.377
					c0.81,0.918,1.215,2.178,1.215,3.778c0,1.53-0.421,2.766-1.263,3.707C104.075,115.393,102.952,115.863,101.55,115.863z
					 M101.617,106.393c-1.154,0-2.074,0.391-2.76,1.172c-0.685,0.781-1.028,1.86-1.028,3.238c0,1.295,0.339,2.328,1.019,3.099
					c0.679,0.772,1.589,1.158,2.731,1.158c1.167,0,2.073-0.383,2.716-1.148c0.645-0.765,0.966-1.827,0.966-3.186
					c0-1.402-0.316-2.475-0.947-3.218C103.683,106.765,102.783,106.393,101.617,106.393z"/>
				<path fill="#269FD9" d="M116.715,115.623h-0.823l-2.133-7.384c-0.038-0.127-0.09-0.402-0.153-0.822h-0.048
					c-0.006,0.128-0.07,0.396-0.191,0.803l-2.391,7.403h-0.823l-2.955-9.795h0.976l2.277,7.815c0.063,0.217,0.108,0.491,0.134,0.823
					h0.077c0.012-0.147,0.073-0.421,0.181-0.823l2.487-7.815h0.603l2.219,7.815c0.051,0.198,0.096,0.472,0.134,0.823h0.077
					c0-0.172,0.054-0.447,0.162-0.823l2.325-7.815h0.908L116.715,115.623z"/>
				<path fill="#269FD9" d="M120.967,115.193v-1.062c0.294,0.255,0.681,0.474,1.163,0.655c0.481,0.182,0.903,0.273,1.267,0.273
					c1.537,0,2.306-0.628,2.306-1.885c0-0.408-0.155-0.764-0.464-1.066c-0.309-0.303-0.872-0.633-1.688-0.99
					c-0.886-0.376-1.532-0.78-1.936-1.21c-0.405-0.43-0.608-0.981-0.608-1.65c0-0.778,0.302-1.417,0.904-1.918
					c0.603-0.501,1.357-0.751,2.262-0.751c0.835,0,1.555,0.172,2.162,0.517v0.995c-0.734-0.472-1.486-0.708-2.257-0.708
					c-0.638,0-1.156,0.169-1.555,0.507c-0.398,0.338-0.598,0.772-0.598,1.301c0,0.377,0.059,0.67,0.177,0.88
					c0.118,0.21,0.319,0.413,0.603,0.608c0.284,0.195,0.696,0.41,1.238,0.646c1.046,0.465,1.753,0.896,2.123,1.291
					c0.369,0.396,0.555,0.912,0.555,1.55c0,0.803-0.3,1.453-0.899,1.947c-0.6,0.495-1.396,0.742-2.391,0.742
					C122.38,115.863,121.593,115.639,120.967,115.193z"/>
				<path fill="#269FD9" d="M56.536,128.009v5.5h-0.947v-13.716h3.31c1.422,0,2.503,0.325,3.243,0.976
					c0.739,0.65,1.11,1.607,1.11,2.87c0,1.32-0.429,2.378-1.287,3.176c-0.858,0.797-2.01,1.196-3.458,1.196H56.536z M56.536,120.663
					v6.476h1.951c1.243,0,2.185-0.293,2.826-0.88c0.641-0.587,0.961-1.422,0.961-2.506c0-2.06-1.183-3.09-3.549-3.09H56.536z"/>
				<path fill="#269FD9" d="M72.515,133.509v-5.873c0-1.161-0.21-2.01-0.631-2.549c-0.421-0.539-1.078-0.808-1.97-0.808
					c-0.593,0-1.134,0.159-1.622,0.478c-0.488,0.319-0.869,0.767-1.143,1.344c-0.274,0.577-0.411,1.239-0.411,1.985v5.423h-0.88
					v-14.501h0.88v6.466h0.038c0.778-1.333,1.9-1.999,3.367-1.999c1.065,0,1.873,0.34,2.425,1.018
					c0.551,0.68,0.828,1.66,0.828,2.942v6.074H72.515z"/>
				<path fill="#269FD9" d="M80.076,133.748c-1.416,0-2.543-0.465-3.381-1.397c-0.838-0.931-1.258-2.158-1.258-3.683
					c0-1.601,0.429-2.866,1.286-3.797c0.858-0.931,2.01-1.397,3.458-1.397c1.397,0,2.499,0.459,3.31,1.377
					c0.81,0.918,1.215,2.178,1.215,3.778c0,1.53-0.421,2.766-1.263,3.706C82.601,133.278,81.479,133.748,80.076,133.748z
					 M80.143,124.279c-1.154,0-2.074,0.39-2.76,1.171c-0.685,0.781-1.028,1.861-1.028,3.238c0,1.295,0.339,2.328,1.018,3.099
					c0.679,0.771,1.589,1.157,2.731,1.157c1.167,0,2.072-0.383,2.716-1.148c0.644-0.765,0.966-1.827,0.966-3.185
					c0-1.403-0.316-2.476-0.947-3.219C82.209,124.65,81.31,124.279,80.143,124.279z"/>
				<path fill="#269FD9" d="M93.596,133.509v-5.701c0-2.353-0.848-3.529-2.544-3.529c-0.931,0-1.703,0.344-2.315,1.033
					c-0.612,0.689-0.918,1.546-0.918,2.573v5.624h-0.88v-9.795h0.88v1.779h0.038c0.714-1.345,1.831-2.018,3.348-2.018
					c1.065,0,1.876,0.351,2.435,1.052c0.558,0.702,0.837,1.709,0.837,3.023v5.959H93.596z"/>
				<path fill="#269FD9" d="M97.437,128.65c0,1.358,0.312,2.414,0.937,3.166c0.625,0.752,1.476,1.129,2.553,1.129
					c1.104,0,2.175-0.405,3.214-1.215v0.937c-1.02,0.721-2.152,1.081-3.395,1.081c-1.288,0-2.315-0.464-3.08-1.392
					c-0.765-0.927-1.148-2.195-1.148-3.802c0-0.944,0.19-1.806,0.569-2.588c0.379-0.781,0.906-1.392,1.579-1.832
					c0.672-0.44,1.42-0.66,2.242-0.66c1.193,0,2.12,0.421,2.784,1.263c0.663,0.842,0.995,2.015,0.995,3.52v0.392H97.437z
					 M103.769,127.847c-0.038-1.135-0.311-2.014-0.818-2.635c-0.507-0.622-1.201-0.933-2.081-0.933
					c-0.924,0-1.687,0.309-2.286,0.928c-0.6,0.618-0.97,1.498-1.11,2.64H103.769z"/>
			</g>
		</g>
	</g>
</g>
<g>
	<path fill="#66CCFF" d="M158.275,193H11.724C8.017,193,5,195.999,5,199.688v41.634C5,245.005,8.017,248,11.724,248h146.552
		c3.708,0,6.725-2.995,6.725-6.678v-41.634C165,195.999,161.983,193,158.275,193z"/>
	<g>
		<defs>
			<path id="SVGID_5_" d="M158.275,193H11.724C8.017,193,5,195.999,5,199.688v41.634C5,245.005,8.017,248,11.724,248h146.552
				c3.708,0,6.725-2.995,6.725-6.678v-41.634C165,195.999,161.983,193,158.275,193z"/>
		</defs>
		<clipPath id="SVGID_6_">
			<use xlink:href="#SVGID_5_"  overflow="visible"/>
		</clipPath>
		<g clip-path="url(#SVGID_6_)">
			<rect x="4.85" y="185" fill="#269FD9" width="160.122" height="71.16"/>
			<g>
				<g id="bag_3_">
					<g id="handles_3_">
						<path fill="#FFFFFF" d="M30.138,204.482c-1.57,0.552-2.718,1.023-2.718,4.022v1.444l0.941-0.19v-1.246
							c-0.023-2.034,0.505-2.46,1.878-3.052C30.232,205.076,30.198,204.751,30.138,204.482z"/>
						<path fill="#FFFFFF" d="M32.873,203.841c0.062,0.29,0.112,0.606,0.146,0.946c2.458-0.354,2.411,0.66,2.411,2.778v0.782
							l0.93-0.191v-0.591C36.359,204.277,35.846,203.396,32.873,203.841z"/>
						<path fill="#FFFFFF" d="M23.185,210.795v-4.324c-0.03-2.678,1.354-3.498,3.908-4.097c3.847-0.902,4.092,1.578,4.092,3.156
							v3.666l0.942-0.19v-3.394c-0.01-2.986-0.941-5.223-5.222-4.252c-2.306,0.523-4.66,1.111-4.66,5.024v4.6L23.185,210.795z"/>
					</g>
					<path fill="#FFFFFF" d="M41.067,208.354l-25.882,5.175v18.824l25.882,5.175l5.173-1.881v-25.411L41.067,208.354z
						 M26.493,228.459l-5.743-0.81v-4.767h5.743V228.459z M26.493,222.159H20.75v-4.385l5.743-0.811V222.159z M34.454,229.563
						l-7.24-1.058v-5.622h7.24V229.563z M34.454,222.159h-7.24v-5.238l7.24-1.06V222.159z"/>
				</g>
			</g>
			<g>
				<path fill="#FFFFFF" d="M66.857,218.623h-0.784l-3.051-10.321c-0.153-0.523-0.239-0.953-0.258-1.291h-0.038
					c-0.026,0.3-0.124,0.724-0.297,1.272l-3.252,10.34h-0.784l-4.075-13.716h1.062l3.128,10.991c0.121,0.433,0.22,0.838,0.297,1.214
					h0.038c0.006-0.063,0.02-0.14,0.043-0.23c0.022-0.089,1.248-4.081,3.678-11.975h0.478l3.109,10.991
					c0.153,0.561,0.252,0.966,0.297,1.214h0.038l0.067-0.287l3.3-11.918h1.023L66.857,218.623z"/>
				<path fill="#FFFFFF" d="M73.165,206.361c-0.191,0-0.361-0.07-0.507-0.21c-0.147-0.14-0.22-0.319-0.22-0.536
					c0-0.21,0.075-0.381,0.225-0.512c0.15-0.131,0.317-0.196,0.502-0.196c0.198,0,0.371,0.064,0.521,0.191
					c0.15,0.128,0.225,0.3,0.225,0.517c0,0.204-0.074,0.379-0.22,0.526C73.544,206.288,73.369,206.361,73.165,206.361z
					 M72.735,218.623v-9.795h0.88v9.795H72.735z"/>
				<path fill="#FFFFFF" d="M83.213,218.623v-5.701c0-2.353-0.848-3.529-2.544-3.529c-0.931,0-1.703,0.344-2.315,1.033
					c-0.612,0.689-0.918,1.546-0.918,2.573v5.624h-0.88v-9.795h0.88v1.779h0.038c0.714-1.345,1.83-2.018,3.348-2.018
					c1.065,0,1.876,0.351,2.434,1.052c0.558,0.702,0.837,1.709,0.837,3.023v5.959H83.213z"/>
				<path fill="#FFFFFF" d="M93.797,218.623v-1.779h-0.038c-0.325,0.619-0.802,1.11-1.431,1.473
					c-0.628,0.363-1.327,0.546-2.099,0.546c-1.224,0-2.212-0.447-2.965-1.339c-0.752-0.893-1.129-2.101-1.129-3.626
					c0-1.014,0.186-1.926,0.56-2.736c0.373-0.81,0.902-1.441,1.588-1.894c0.685-0.453,1.465-0.679,2.339-0.679
					c1.466,0,2.512,0.603,3.137,1.808h0.038v-6.275h0.88v14.501H93.797z M93.797,212.665c0-0.944-0.299-1.725-0.895-2.344
					c-0.596-0.618-1.362-0.928-2.3-0.928c-1.04,0-1.891,0.402-2.554,1.205c-0.663,0.804-0.995,1.878-0.995,3.223
					c0,1.295,0.29,2.325,0.871,3.09c0.58,0.765,1.367,1.148,2.362,1.148c1.052,0,1.901-0.33,2.544-0.99
					c0.645-0.66,0.966-1.519,0.966-2.578V212.665z"/>
				<path fill="#FFFFFF" d="M101.55,218.863c-1.416,0-2.543-0.466-3.382-1.397c-0.838-0.931-1.258-2.158-1.258-3.683
					c0-1.6,0.429-2.866,1.287-3.797c0.858-0.931,2.01-1.397,3.458-1.397c1.397,0,2.5,0.459,3.31,1.377
					c0.81,0.918,1.215,2.178,1.215,3.778c0,1.53-0.421,2.766-1.263,3.707C104.075,218.393,102.952,218.863,101.55,218.863z
					 M101.617,209.393c-1.154,0-2.074,0.391-2.76,1.172c-0.685,0.781-1.028,1.86-1.028,3.238c0,1.295,0.339,2.328,1.019,3.099
					c0.679,0.772,1.589,1.158,2.731,1.158c1.167,0,2.073-0.383,2.716-1.148c0.645-0.765,0.966-1.827,0.966-3.186
					c0-1.402-0.316-2.475-0.947-3.218C103.683,209.765,102.783,209.393,101.617,209.393z"/>
				<path fill="#FFFFFF" d="M116.715,218.623h-0.823l-2.133-7.384c-0.038-0.127-0.09-0.402-0.153-0.822h-0.048
					c-0.006,0.128-0.07,0.396-0.191,0.803l-2.391,7.403h-0.823l-2.955-9.795h0.976l2.277,7.815c0.063,0.217,0.108,0.491,0.134,0.823
					h0.077c0.012-0.147,0.073-0.421,0.181-0.823l2.487-7.815h0.603l2.219,7.815c0.051,0.198,0.096,0.472,0.134,0.823h0.077
					c0-0.172,0.054-0.447,0.162-0.823l2.325-7.815h0.908L116.715,218.623z"/>
				<path fill="#FFFFFF" d="M120.967,218.193v-1.062c0.294,0.255,0.681,0.474,1.163,0.655c0.481,0.182,0.903,0.273,1.267,0.273
					c1.537,0,2.306-0.628,2.306-1.885c0-0.408-0.155-0.764-0.464-1.066c-0.309-0.303-0.872-0.633-1.688-0.99
					c-0.886-0.376-1.532-0.78-1.936-1.21c-0.405-0.43-0.608-0.981-0.608-1.65c0-0.778,0.302-1.417,0.904-1.918
					c0.603-0.501,1.357-0.751,2.262-0.751c0.835,0,1.555,0.172,2.162,0.517v0.995c-0.734-0.472-1.486-0.708-2.257-0.708
					c-0.638,0-1.156,0.169-1.555,0.507c-0.398,0.338-0.598,0.772-0.598,1.301c0,0.377,0.059,0.67,0.177,0.88
					c0.118,0.21,0.319,0.413,0.603,0.608c0.284,0.195,0.696,0.41,1.238,0.646c1.046,0.465,1.753,0.896,2.123,1.291
					c0.369,0.396,0.555,0.912,0.555,1.55c0,0.803-0.3,1.453-0.899,1.947c-0.6,0.495-1.396,0.742-2.391,0.742
					C122.38,218.863,121.593,218.639,120.967,218.193z"/>
				<path fill="#FFFFFF" d="M56.536,231.009v5.5h-0.947v-13.716h3.31c1.422,0,2.503,0.325,3.243,0.976
					c0.739,0.65,1.11,1.607,1.11,2.87c0,1.32-0.429,2.378-1.287,3.176c-0.858,0.797-2.01,1.196-3.458,1.196H56.536z M56.536,223.663
					v6.476h1.951c1.243,0,2.185-0.293,2.826-0.88c0.641-0.587,0.961-1.422,0.961-2.506c0-2.06-1.183-3.09-3.549-3.09H56.536z"/>
				<path fill="#FFFFFF" d="M72.515,236.509v-5.873c0-1.161-0.21-2.01-0.631-2.549c-0.421-0.539-1.078-0.808-1.97-0.808
					c-0.593,0-1.134,0.159-1.622,0.478c-0.488,0.319-0.869,0.767-1.143,1.344c-0.274,0.577-0.411,1.239-0.411,1.985v5.423h-0.88
					v-14.501h0.88v6.466h0.038c0.778-1.333,1.9-1.999,3.367-1.999c1.065,0,1.873,0.34,2.425,1.018
					c0.551,0.68,0.828,1.66,0.828,2.942v6.074H72.515z"/>
				<path fill="#FFFFFF" d="M80.076,236.748c-1.416,0-2.543-0.465-3.381-1.397c-0.838-0.931-1.258-2.158-1.258-3.683
					c0-1.601,0.429-2.866,1.286-3.797c0.858-0.931,2.01-1.397,3.458-1.397c1.397,0,2.499,0.459,3.31,1.377
					c0.81,0.918,1.215,2.178,1.215,3.778c0,1.53-0.421,2.766-1.263,3.706C82.601,236.278,81.479,236.748,80.076,236.748z
					 M80.143,227.279c-1.154,0-2.074,0.39-2.76,1.171c-0.685,0.781-1.028,1.861-1.028,3.238c0,1.295,0.339,2.328,1.018,3.099
					c0.679,0.771,1.589,1.157,2.731,1.157c1.167,0,2.072-0.383,2.716-1.148c0.644-0.765,0.966-1.827,0.966-3.185
					c0-1.403-0.316-2.476-0.947-3.219C82.209,227.65,81.31,227.279,80.143,227.279z"/>
				<path fill="#FFFFFF" d="M93.596,236.509v-5.701c0-2.353-0.848-3.529-2.544-3.529c-0.931,0-1.703,0.344-2.315,1.033
					c-0.612,0.689-0.918,1.546-0.918,2.573v5.624h-0.88v-9.795h0.88v1.779h0.038c0.714-1.345,1.831-2.018,3.348-2.018
					c1.065,0,1.876,0.351,2.435,1.052c0.558,0.702,0.837,1.709,0.837,3.023v5.959H93.596z"/>
				<path fill="#FFFFFF" d="M97.437,231.65c0,1.358,0.312,2.414,0.937,3.166c0.625,0.752,1.476,1.129,2.553,1.129
					c1.104,0,2.175-0.405,3.214-1.215v0.937c-1.02,0.721-2.152,1.081-3.395,1.081c-1.288,0-2.315-0.464-3.08-1.392
					c-0.765-0.927-1.148-2.195-1.148-3.802c0-0.944,0.19-1.806,0.569-2.588c0.379-0.781,0.906-1.392,1.579-1.832
					c0.672-0.44,1.42-0.66,2.242-0.66c1.193,0,2.12,0.421,2.784,1.263c0.663,0.842,0.995,2.015,0.995,3.52v0.392H97.437z
					 M103.769,230.847c-0.038-1.135-0.311-2.014-0.818-2.635c-0.507-0.622-1.201-0.933-2.081-0.933
					c-0.924,0-1.687,0.309-2.286,0.928c-0.6,0.618-0.97,1.498-1.11,2.64H103.769z"/>
			</g>
		</g>
	</g>
</g>
</svg>
