<?xml version="1.0" encoding="utf-8"?>
<!-- Generator: Adobe Illustrator 17.0.0, SVG Export Plug-In . SVG Version: 6.00 Build 0)  -->
<!DOCTYPE svg PUBLIC "-//W3C//DTD SVG 1.1//EN" "http://www.w3.org/Graphics/SVG/1.1/DTD/svg11.dtd">
<svg version="1.1" xmlns="http://www.w3.org/2000/svg" xmlns:xlink="http://www.w3.org/1999/xlink" x="0px" y="0px" width="170px"
	 height="270px" viewBox="0 0 170 270" enable-background="new 0 0 170 270" xml:space="preserve">
<g id="Layer_1">
	<g>
		<g>
			<path fill="#CFE6DF" d="M11.761,80C6.654,80,2.5,75.936,2.5,70.939V24.07c0-5.001,4.154-9.07,9.261-9.07h146.478
				c5.106,0,9.262,4.069,9.262,9.07v46.87c0,4.996-4.155,9.061-9.262,9.061L11.761,80L11.761,80z"/>
			<path fill="#CFE6DF" d="M158.238,17.5c3.729,0,6.762,2.946,6.762,6.57v46.87c0,3.618-3.033,6.56-6.762,6.56H11.761
				C8.033,77.5,5,74.558,5,70.94V24.07c0-3.624,3.033-6.57,6.761-6.57H158.238 M158.238,12.5H11.761C5.276,12.5,0,17.69,0,24.07
				v46.87C0,77.314,5.276,82.5,11.761,82.5h146.477c6.486,0,11.762-5.186,11.762-11.56V24.07C170,17.69,164.724,12.5,158.238,12.5
				L158.238,12.5z"/>
		</g>
	</g>
	<g>
		<g>
			<path fill="#FFA64D" d="M158.275,7.5H11.724C8.017,7.5,5,10.446,5,14.07v46.87c0,3.618,3.017,6.56,6.724,6.56h146.552
				c3.708,0,6.725-2.942,6.725-6.56V14.07C165,10.446,161.983,7.5,158.275,7.5z"/>
		</g>
		<rect x="15" y="8.5" fill="#FAFAFA" width="140.881" height="40"/>
		<g>
			<path fill="#FFCC66" d="M158.275,0H11.724C8.017,0,5,2.999,5,6.688v41.634C5,52.005,8.017,55,11.724,55h146.552
				c3.708,0,6.725-2.995,6.725-6.678V6.688C165,2.999,161.983,0,158.275,0z"/>
		</g>
	</g>
	<g>
		<g>
			<path fill="#CFE6DF" d="M11.761,170c-5.106,0-9.261-4.064-9.261-9.061V114.07c0-5.001,4.154-9.07,9.261-9.07h146.478
				c5.106,0,9.262,4.069,9.262,9.07v46.869c0,4.996-4.155,9.061-9.262,9.061H11.761z"/>
			<path fill="#CFE6DF" d="M158.238,107.5c3.729,0,6.762,2.946,6.762,6.57v46.87c0,3.618-3.033,6.56-6.762,6.56H11.761
				C8.033,167.5,5,164.558,5,160.94v-46.87c0-3.624,3.033-6.57,6.761-6.57L158.238,107.5 M158.238,102.5H11.761
				C5.276,102.5,0,107.69,0,114.07v46.87c0,6.374,5.276,11.56,11.761,11.56h146.477c6.486,0,11.762-5.186,11.762-11.56v-46.87
				C170,107.69,164.724,102.5,158.238,102.5L158.238,102.5z"/>
		</g>
	</g>
	<g>
		<g>
			<path fill="#C1C4CC" d="M158.275,97.5H11.724C8.017,97.5,5,100.446,5,104.07v46.87c0,3.618,3.017,6.56,6.724,6.56h146.552
				c3.708,0,6.725-2.942,6.725-6.56v-46.87C165,100.446,161.983,97.5,158.275,97.5z"/>
		</g>
		<g>
			<path fill="#FAFAFA" d="M158.275,90H11.724C8.017,90,5,92.999,5,96.688v41.634C5,142.005,8.017,145,11.724,145h146.552
				c3.708,0,6.725-2.995,6.725-6.678V96.688C165,92.999,161.983,90,158.275,90z"/>
		</g>
	</g>
	<g>
		<g>
			<path fill="#CFE6DF" d="M11.761,250c-5.106,0-9.261-4.064-9.261-9.061V207.07c0-5.001,4.154-9.07,9.261-9.07h146.478
				c5.106,0,9.262,4.069,9.262,9.07v33.869c0,4.996-4.155,9.061-9.262,9.061L11.761,250L11.761,250z"/>
			<path fill="#CFE6DF" d="M158.238,200.5c3.729,0,6.762,2.946,6.762,6.57v33.87c0,3.618-3.033,6.56-6.762,6.56H11.761
				C8.033,247.5,5,244.558,5,240.94v-33.87c0-3.624,3.033-6.57,6.761-6.57H158.238 M158.238,195.5H11.761
				C5.276,195.5,0,200.69,0,207.07v33.87c0,6.374,5.276,11.56,11.761,11.56h146.477c6.486,0,11.762-5.186,11.762-11.56v-33.87
				C170,200.69,164.724,195.5,158.238,195.5L158.238,195.5z"/>
		</g>
	</g>
	<g>
		<g>
			<rect x="15" y="199.5" fill="#FAFAFA" width="140.881" height="40"/>
			<g>
				<path fill="#FFCC66" d="M158.275,190H11.724C8.017,190,5,192.999,5,196.688v41.634C5,242.005,8.017,245,11.724,245h146.552
					c3.708,0,6.725-2.995,6.725-6.678v-41.634C165,192.999,161.983,190,158.275,190z"/>
			</g>
		</g>
	</g>
	<g>
		<g>
			<path fill="#FFFFFF" d="M54.778,43.453c0,3.059-2.506,5.539-5.597,5.539H16.148c-3.091,0-5.597-2.479-5.597-5.539V10.767
				c0-3.059,2.506-5.539,5.597-5.539h33.033c3.091,0,5.597,2.48,5.597,5.539V43.453z"/>
			<linearGradient id="SVGID_1_" gradientUnits="userSpaceOnUse" x1="32.7512" y1="19.5024" x2="32.7512" y2="49.0779">
				<stop  offset="0" style="stop-color:#F89E3A"/>
				<stop  offset="1" style="stop-color:#C56A23"/>
			</linearGradient>
			<path fill="url(#SVGID_1_)" d="M54.865,43.539c0,3.059-2.506,5.539-5.598,5.539H16.235c-3.091,0-5.597-2.48-5.597-5.539V19.502
				c0,0,9.415,1.624,22.114,1.532c11.923-0.086,22.113-1.532,22.113-1.532V43.539z"/>
			<path fill="#231F20" d="M49.267,49.035H16.235c-3.11,0-5.641-2.504-5.641-5.582V10.767c0-3.078,2.531-5.582,5.641-5.582h33.032
				c3.111,0,5.641,2.504,5.641,5.582v32.686C54.908,46.531,52.378,49.035,49.267,49.035z M16.235,5.271
				c-3.063,0-5.554,2.466-5.554,5.496v32.686c0,3.031,2.492,5.497,5.554,5.497h33.032c3.063,0,5.555-2.466,5.555-5.497V10.767
				c0-3.031-2.492-5.496-5.555-5.496H16.235z"/>
			<path fill-rule="evenodd" clip-rule="evenodd" fill="#231F20" d="M36.505,16.718c-1.805,1.352-4.423,2.071-6.676,2.071
				c-3.159,0-6.003-1.185-8.156-3.157c-0.169-0.155-0.018-0.366,0.185-0.246c2.322,1.371,5.194,2.197,8.16,2.197
				c2.001,0,4.201-0.421,6.225-1.292C36.547,16.158,36.804,16.494,36.505,16.718z"/>
			<path fill-rule="evenodd" clip-rule="evenodd" fill="#231F20" d="M37.256,15.848c-0.231-0.3-1.526-0.142-2.108-0.072
				c-0.176,0.021-0.203-0.135-0.045-0.248c1.033-0.737,2.727-0.524,2.924-0.277c0.198,0.249-0.052,1.971-1.021,2.794
				c-0.149,0.127-0.29,0.059-0.225-0.108C36.999,17.384,37.487,16.147,37.256,15.848z"/>
			<path fill-rule="evenodd" clip-rule="evenodd" fill="#231F20" d="M35.102,10.325V9.609c0-0.109,0.081-0.181,0.179-0.181h3.161
				c0.101,0,0.182,0.075,0.182,0.181l0,0.614c-0.001,0.103-0.086,0.237-0.238,0.451l-1.638,2.372
				c0.608-0.014,1.251,0.078,1.803,0.393c0.125,0.071,0.158,0.176,0.168,0.279v0.764c0,0.105-0.114,0.227-0.233,0.163
				c-0.973-0.517-2.264-0.574-3.34,0.006c-0.11,0.06-0.225-0.06-0.225-0.165v-0.726c0-0.116,0.002-0.315,0.118-0.492l1.897-2.762
				h-1.652C35.184,10.505,35.103,10.432,35.102,10.325z"/>
			<path fill-rule="evenodd" clip-rule="evenodd" fill="#231F20" d="M23.658,14.795h-0.962c-0.091-0.006-0.165-0.076-0.172-0.165
				l0.001-5.008c0-0.1,0.083-0.18,0.186-0.18l0.895,0c0.094,0.005,0.169,0.077,0.175,0.168v0.654h0.018
				c0.233-0.632,0.673-0.928,1.266-0.928c0.601,0,0.978,0.295,1.248,0.928c0.233-0.632,0.763-0.928,1.329-0.928
				c0.404,0,0.844,0.169,1.113,0.548c0.305,0.422,0.243,1.033,0.243,1.57l-0.001,3.161c0,0.1-0.083,0.18-0.185,0.18H27.85
				c-0.097-0.006-0.173-0.084-0.173-0.18V11.96c0-0.211,0.018-0.737-0.027-0.938c-0.072-0.337-0.287-0.432-0.565-0.432
				c-0.234,0-0.476,0.158-0.575,0.411c-0.099,0.253-0.09,0.675-0.09,0.959v2.655c0,0.1-0.083,0.18-0.185,0.18h-0.961
				c-0.097-0.006-0.173-0.084-0.173-0.18l-0.001-2.655c0-0.559,0.09-1.38-0.592-1.38c-0.691,0-0.665,0.801-0.665,1.38l0,2.655
				C23.844,14.715,23.761,14.795,23.658,14.795z"/>
			<path fill-rule="evenodd" clip-rule="evenodd" fill="#231F20" d="M41.259,9.336c1.427,0,2.199,1.244,2.199,2.825
				c0,1.528-0.853,2.74-2.199,2.74c-1.4,0-2.164-1.244-2.164-2.793C39.096,10.548,39.868,9.336,41.259,9.336z M41.268,10.358
				c-0.71,0-0.754,0.98-0.754,1.591c0,0.611-0.009,1.918,0.745,1.918c0.745,0,0.781-1.054,0.781-1.697
				c0-0.421-0.018-0.927-0.144-1.328C41.789,10.495,41.573,10.358,41.268,10.358z"/>
			<path fill-rule="evenodd" clip-rule="evenodd" fill="#231F20" d="M45.31,14.795h-0.958c-0.096-0.006-0.173-0.084-0.173-0.18
				l-0.002-5.01c0.008-0.092,0.088-0.163,0.185-0.163l0.892,0c0.084,0.004,0.153,0.062,0.171,0.14v0.766h0.018
				c0.269-0.685,0.646-1.012,1.311-1.012c0.431,0,0.853,0.158,1.122,0.59c0.251,0.4,0.251,1.075,0.251,1.56v3.152
				c-0.011,0.089-0.089,0.158-0.184,0.158h-0.964c-0.089-0.006-0.161-0.072-0.171-0.158v-2.719c0-0.548,0.063-1.349-0.601-1.349
				c-0.234,0-0.449,0.158-0.557,0.4c-0.134,0.306-0.152,0.611-0.152,0.949v2.697C45.495,14.715,45.412,14.795,45.31,14.795z"/>
			<path fill-rule="evenodd" clip-rule="evenodd" fill="#231F20" d="M32.669,12.403c0,0.38,0.009,0.697-0.18,1.035
				c-0.153,0.275-0.396,0.443-0.666,0.443c-0.368,0-0.585-0.285-0.585-0.707c0-0.831,0.735-0.982,1.43-0.982V12.403z M33.638,14.782
				c-0.064,0.058-0.155,0.062-0.227,0.023c-0.319-0.269-0.376-0.394-0.551-0.65c-0.528,0.546-0.902,0.709-1.586,0.709
				c-0.81,0-1.439-0.507-1.439-1.521c0-0.792,0.423-1.33,1.025-1.595c0.522-0.232,1.251-0.275,1.808-0.338v-0.127
				c0-0.232,0.018-0.507-0.117-0.707c-0.117-0.18-0.342-0.254-0.54-0.254c-0.366,0-0.693,0.191-0.773,0.586
				c-0.017,0.088-0.08,0.175-0.167,0.179l-0.932-0.102c-0.079-0.018-0.166-0.082-0.143-0.204c0.214-1.147,1.236-1.494,2.151-1.494
				c0.468,0,1.079,0.127,1.448,0.486c0.468,0.443,0.423,1.035,0.423,1.679v1.52c0,0.458,0.187,0.658,0.363,0.905
				c0.062,0.089,0.075,0.194-0.003,0.259c-0.196,0.167-0.545,0.475-0.737,0.648L33.638,14.782z"/>
			<path fill-rule="evenodd" clip-rule="evenodd" fill="#231F20" d="M20.149,12.403c0,0.38,0.009,0.697-0.18,1.035
				c-0.153,0.275-0.396,0.443-0.666,0.443c-0.369,0-0.585-0.285-0.585-0.707c0-0.831,0.735-0.982,1.43-0.982V12.403z M21.118,14.782
				c-0.064,0.058-0.156,0.062-0.227,0.023c-0.32-0.269-0.377-0.394-0.551-0.65c-0.528,0.546-0.902,0.709-1.586,0.709
				c-0.81,0-1.439-0.507-1.439-1.521c0-0.792,0.423-1.33,1.026-1.595c0.521-0.232,1.25-0.275,1.808-0.338v-0.127
				c0-0.232,0.018-0.507-0.117-0.707c-0.117-0.18-0.342-0.254-0.54-0.254c-0.367,0-0.693,0.191-0.773,0.586
				c-0.017,0.088-0.08,0.175-0.167,0.179l-0.932-0.102c-0.079-0.018-0.166-0.082-0.143-0.204c0.214-1.147,1.235-1.494,2.151-1.494
				c0.468,0,1.079,0.127,1.448,0.486c0.468,0.443,0.423,1.035,0.423,1.679v1.52c0,0.458,0.187,0.658,0.363,0.905
				c0.062,0.089,0.075,0.194-0.003,0.259c-0.196,0.167-0.545,0.475-0.737,0.648L21.118,14.782z"/>
			<ellipse fill="#182B72" cx="20.285" cy="33.392" rx="7.818" ry="7.737"/>
			<path fill="#FFFFFF" d="M20.722,30.438h-1.875v6.878c0,0-0.083,0.135-0.248-0.086c-0.082-0.11-2.289-3.353-2.289-3.353
				s-0.359-0.354-0.883-0.218c-0.524,0.136-0.717,0.491-0.469,0.928c0.248,0.436,1.93,4.393,4.109,5.485
				c1.549,0.776,3.392,0.49,4.44,0c0.928-0.434,2.378-1.501,2.488-2.92c0.11-1.42-0.002-2.675-0.002-2.675h-0.976v1.719H24.39
				v-2.511h-1.104v2.053h-0.658v-2.68h-1.241v2.543h-0.603L20.722,30.438z"/>
			<rect x="15.537" y="30.438" fill="#FFFFFF" width="1.572" height="0.956"/>
			<rect x="22.556" y="30.438" fill="#FFFFFF" width="1.572" height="0.956"/>
			<rect x="18.957" y="27" fill="#FFFFFF" width="1.627" height="1.801"/>
			<polygon fill="#FFFFFF" points="17.55,29.674 18.13,29.101 17.058,28.01 16.41,28.583 			"/>
			<polygon fill="#FFFFFF" points="22.188,29.504 21.696,28.845 22.854,27.924 23.329,28.583 			"/>
			<g>
				<g>
					<path fill="#FFFFFF" d="M30.61,29.999c0.41-0.212,0.983-0.503,1.908-0.503c1.873,0,2.306,1.033,2.306,2.742v2.981
						c0,0.491-0.04,0.941-0.005,1.206h-1.311c-0.03-0.312,0.004-0.595,0.004-0.927H33.49c-0.363,0.557-0.82,1.034-1.686,1.034
						c-0.936,0-1.803-0.729-1.803-2.001c0-1.855,1.334-2.319,3.172-2.319h0.293v-0.252c0-0.676-0.293-1.298-1.124-1.298
						c-0.726,0-1.37,0.398-1.65,0.662L30.61,29.999z M33.466,33.086h-0.129c-1.241,0-1.978,0.291-1.978,1.285
						c0,0.623,0.363,1.047,0.925,1.047c0.866,0,1.182-0.729,1.182-1.947V33.086z"/>
					<path fill="#FFFFFF" d="M31.804,36.573c-0.917,0-1.846-0.702-1.846-2.044c0-2.093,1.718-2.361,3.215-2.361h0.249v-0.209
						c0-0.377-0.105-1.256-1.08-1.256c-0.735,0-1.364,0.41-1.621,0.651c-0.012,0.012-0.03,0.015-0.046,0.009
						c-0.016-0.006-0.026-0.02-0.027-0.037l-0.082-1.325c-0.001-0.016,0.008-0.032,0.023-0.041c0.391-0.202,0.982-0.508,1.928-0.508
						c1.95,0,2.349,1.113,2.349,2.785v2.981c0,0.183-0.005,0.357-0.011,0.525c-0.009,0.275-0.016,0.512,0.006,0.675
						c0.002,0.013-0.002,0.025-0.01,0.034c-0.008,0.009-0.02,0.015-0.032,0.015h-1.311c-0.022,0-0.041-0.017-0.043-0.039
						c-0.019-0.204-0.012-0.393-0.004-0.593c0.003-0.075,0.006-0.151,0.007-0.23C33.133,36.098,32.666,36.573,31.804,36.573z
						 M33.174,32.254c-2.164,0-3.129,0.702-3.129,2.276c0,1.285,0.885,1.958,1.759,1.958c0.868,0,1.306-0.488,1.649-1.014
						c0.008-0.012,0.022-0.019,0.037-0.019h0.023c0.024,0,0.043,0.019,0.043,0.042c0,0.119-0.004,0.233-0.009,0.342
						c-0.007,0.185-0.014,0.359,0.001,0.544h1.223c-0.016-0.166-0.009-0.388-0.001-0.641c0.005-0.167,0.01-0.34,0.01-0.522v-2.981
						c0-1.621-0.385-2.7-2.262-2.7c-0.905,0-1.479,0.287-1.863,0.486l0.075,1.209c0.298-0.252,0.909-0.614,1.613-0.614
						c0.742,0,1.167,0.488,1.167,1.341v0.252c0,0.024-0.019,0.043-0.043,0.043H33.174z M32.284,35.46
						c-0.579,0-0.968-0.438-0.968-1.09c0-0.931,0.605-1.327,2.021-1.327h0.129c0.024,0,0.043,0.019,0.043,0.042v0.385
						C33.509,34.828,33.12,35.46,32.284,35.46z M33.338,33.129c-1.356,0-1.935,0.372-1.935,1.242c0,0.61,0.346,1.004,0.881,1.004
						c0.777,0,1.139-0.605,1.139-1.905v-0.342H33.338z"/>
				</g>
				<g>
					<path fill="#FFFFFF" d="M36.193,30.767c0-0.49-0.004-0.865-0.004-1.154l1.27,0.003c0.012,0.213,0.005,0.239,0.005,0.703H37.5
						c0.234-0.582,0.753-0.823,1.69-0.823c1.498,0,2.205,1.616,2.205,3.51c0,2.226-0.871,3.353-2.169,3.353
						c-0.867,0-1.347-0.129-1.557-0.659h-0.023v3.244h-1.452V30.767z M38.768,35.154c0.808,0,1.261-0.716,1.261-2.081
						c0-1.576-0.395-2.371-1.238-2.371c-0.855,0-1.147,0.961-1.147,2.246C37.645,34.272,37.972,35.154,38.768,35.154z"/>
					<path fill="#FFFFFF" d="M37.645,38.987h-1.452c-0.024,0-0.043-0.019-0.043-0.043v-8.177c0-0.277-0.001-0.518-0.002-0.726
						c-0.001-0.161-0.002-0.302-0.002-0.428c0-0.011,0.004-0.023,0.013-0.031c0.008-0.007,0.019-0.012,0.031-0.012l0,0l1.271,0.003
						c0.023,0,0.042,0.018,0.043,0.041c0.007,0.142,0.007,0.201,0.006,0.359c0,0.058-0.001,0.129-0.001,0.222
						c0.258-0.519,0.769-0.742,1.682-0.742c1.366,0,2.248,1.395,2.248,3.553s-0.806,3.396-2.212,3.396
						c-0.772,0-1.283-0.095-1.537-0.558v3.1C37.688,38.967,37.669,38.987,37.645,38.987z M36.237,38.902h1.365V35.7
						c0-0.024,0.019-0.043,0.043-0.043h0.023c0.018,0,0.034,0.011,0.04,0.028c0.185,0.466,0.582,0.632,1.517,0.632
						c1.351,0,2.126-1.206,2.126-3.311c0-1.6-0.566-3.468-2.162-3.468c-0.932,0-1.425,0.239-1.65,0.798
						c-0.007,0.016-0.022,0.027-0.04,0.027h-0.035c-0.024,0-0.043-0.02-0.043-0.043c0-0.158,0.001-0.265,0.002-0.347
						c0.001-0.14,0.002-0.201-0.004-0.313l-1.186-0.003c0,0.115,0.001,0.243,0.002,0.385c0.001,0.209,0.003,0.449,0.003,0.727
						V38.902z M38.768,35.197c-0.763,0-1.167-0.778-1.167-2.25c0-1.519,0.4-2.289,1.19-2.289c0.862,0,1.281,0.789,1.281,2.414
						C40.073,34.442,39.61,35.197,38.768,35.197z M38.792,30.743c-0.733,0-1.104,0.741-1.104,2.203c0,0.987,0.187,2.164,1.081,2.164
						c0.785,0,1.218-0.724,1.218-2.038C39.986,31.505,39.596,30.743,38.792,30.743z"/>
				</g>
				<g>
					<path fill="#FFFFFF" d="M48.46,34.595c0.244,0.103,0.866,0.523,1.573,0.523c0.549,0,0.976-0.142,0.976-0.656
						c0-0.257-0.122-0.501-0.671-0.837l-0.881-0.557c-0.634-0.399-1.07-0.689-1.07-1.61c0-1.063,0.841-1.963,2.17-1.963
						c0.805,0,1.427,0.218,1.573,0.27L52.045,31c-0.378-0.154-0.78-0.296-1.329-0.296c-0.61,0-0.866,0.245-0.866,0.643
						c0,0.36,0.184,0.5,0.622,0.796l1.042,0.493c0.82,0.475,1.043,1.137,1.043,1.735c0,1.223-0.889,2.041-2.255,2.041
						c-0.781,0-1.6-0.278-1.917-0.407L48.46,34.595z"/>
					<path fill="#FFFFFF" d="M50.303,36.456c-0.878,0-1.764-0.342-1.933-0.41c-0.017-0.007-0.027-0.024-0.027-0.041l0.073-1.411
						c0.001-0.014,0.008-0.027,0.02-0.034c0.012-0.007,0.027-0.009,0.04-0.003c0.052,0.022,0.12,0.057,0.198,0.098
						c0.302,0.157,0.806,0.421,1.358,0.421c0.636,0,0.932-0.195,0.932-0.613c0-0.242-0.11-0.471-0.65-0.8l-0.882-0.557
						c-0.609-0.383-1.09-0.686-1.09-1.645c0-1.163,0.931-2.006,2.213-2.006c0.371,0,0.947,0.047,1.588,0.273
						c0.018,0.006,0.03,0.024,0.029,0.043l-0.086,1.236c-0.001,0.014-0.009,0.026-0.02,0.033c-0.012,0.007-0.027,0.008-0.039,0.003
						c-0.362-0.148-0.762-0.293-1.313-0.293c-0.553,0-0.822,0.196-0.822,0.6c0,0.34,0.174,0.471,0.603,0.761l1.036,0.489
						c0.71,0.411,1.068,1.008,1.068,1.774C52.601,35.618,51.678,36.456,50.303,36.456z M48.432,35.977
						c0.221,0.088,1.051,0.393,1.872,0.393c1.343,0,2.212-0.784,2.212-1.999c0-0.733-0.344-1.305-1.022-1.698l-1.039-0.491
						c-0.451-0.303-0.647-0.452-0.647-0.835c0-0.312,0.158-0.686,0.909-0.686c0.538,0,0.934,0.133,1.29,0.277l0.079-1.144
						c-0.617-0.212-1.17-0.257-1.528-0.257c-1.233,0-2.127,0.808-2.127,1.921c0,0.914,0.44,1.19,1.05,1.573l0.881,0.557
						c0.49,0.298,0.69,0.552,0.69,0.872c0,0.471-0.333,0.699-1.019,0.699c-0.573,0-1.09-0.269-1.398-0.431
						c-0.05-0.026-0.096-0.049-0.135-0.069L48.432,35.977z"/>
				</g>
				<g>
					<path fill="#FFFFFF" d="M42.43,30.767c0-0.49-0.004-0.865-0.004-1.154l1.271,0.003c0.012,0.213,0.005,0.239,0.005,0.703h0.035
						c0.234-0.582,0.754-0.823,1.69-0.823c1.498,0,2.205,1.616,2.205,3.51c0,2.226-0.87,3.353-2.169,3.353
						c-0.866,0-1.346-0.129-1.557-0.659h-0.023v3.244H42.43V30.767z M45.005,35.154c0.808,0,1.261-0.716,1.261-2.081
						c0-1.576-0.395-2.371-1.238-2.371c-0.854,0-1.147,0.961-1.147,2.246C43.881,34.272,44.209,35.154,45.005,35.154z"/>
					<path fill="#FFFFFF" d="M43.881,38.987H42.43c-0.024,0-0.043-0.019-0.043-0.043v-8.177c0-0.277-0.001-0.518-0.003-0.726
						c-0.001-0.161-0.001-0.302-0.001-0.428c0-0.011,0.004-0.023,0.013-0.031c0.008-0.007,0.019-0.012,0.03-0.012l0,0l1.271,0.003
						c0.023,0,0.042,0.018,0.043,0.041c0.008,0.142,0.007,0.201,0.006,0.359c0,0.058-0.001,0.129-0.001,0.222
						c0.258-0.519,0.769-0.742,1.681-0.742c1.366,0,2.249,1.395,2.249,3.553s-0.807,3.396-2.213,3.396
						c-0.772,0-1.283-0.095-1.537-0.558v3.1C43.925,38.967,43.905,38.987,43.881,38.987z M42.473,38.902h1.365V35.7
						c0-0.024,0.02-0.043,0.043-0.043h0.023c0.018,0,0.034,0.011,0.04,0.028c0.185,0.466,0.583,0.632,1.517,0.632
						c1.351,0,2.126-1.206,2.126-3.311c0-1.6-0.566-3.468-2.162-3.468c-0.932,0-1.425,0.239-1.65,0.798
						c-0.007,0.016-0.022,0.027-0.04,0.027h-0.035c-0.024,0-0.043-0.02-0.043-0.043c0-0.158,0.001-0.265,0.001-0.347
						c0.001-0.14,0.002-0.201-0.004-0.313l-1.186-0.003c0,0.115,0.001,0.243,0.001,0.385c0.001,0.209,0.002,0.449,0.002,0.727
						V38.902z M45.005,35.197c-0.763,0-1.167-0.778-1.167-2.25c0-1.519,0.4-2.289,1.19-2.289c0.862,0,1.281,0.789,1.281,2.414
						C46.309,34.442,45.846,35.197,45.005,35.197z M45.028,30.743c-0.733,0-1.104,0.741-1.104,2.203c0,0.987,0.187,2.164,1.08,2.164
						c0.785,0,1.218-0.724,1.218-2.038C46.223,31.505,45.832,30.743,45.028,30.743z"/>
				</g>
			</g>
		</g>
		<g>
			<g>
				<path fill-rule="evenodd" clip-rule="evenodd" fill="#F7971F" d="M118.215,43.366c-4.957,3.619-12.144,5.545-18.333,5.545
					c-8.673,0-16.483-3.172-22.393-8.453c-0.464-0.415-0.05-0.982,0.508-0.66c6.377,3.672,14.263,5.883,22.407,5.883
					c5.495,0,11.534-1.129,17.091-3.459C118.332,41.869,119.035,42.768,118.215,43.366z"/>
				<path fill-rule="evenodd" clip-rule="evenodd" fill="#F7971F" d="M120.278,41.036c-0.635-0.804-4.191-0.381-5.789-0.191
					c-0.485,0.058-0.559-0.361-0.123-0.664c2.838-1.971,7.487-1.403,8.028-0.742c0.544,0.666-0.143,5.279-2.802,7.48
					c-0.408,0.339-0.798,0.158-0.617-0.29C119.573,45.151,120.912,41.839,120.278,41.036z"/>
			</g>
			<path fill-rule="evenodd" clip-rule="evenodd" fill="#231F20" d="M114.602,26.249v-1.917c0.001-0.292,0.223-0.486,0.49-0.485
				l8.679-0.001c0.278,0,0.501,0.2,0.501,0.484v1.644c-0.002,0.276-0.237,0.636-0.654,1.206l-4.495,6.353
				c1.668-0.039,3.434,0.209,4.951,1.051c0.341,0.19,0.433,0.472,0.459,0.748v2.044c0,0.282-0.311,0.609-0.638,0.439
				c-2.672-1.385-6.217-1.537-9.171,0.015c-0.302,0.16-0.617-0.161-0.617-0.443v-1.945c0-0.311,0.006-0.842,0.322-1.316l5.21-7.395
				l-4.536-0.001C114.826,26.731,114.603,26.535,114.602,26.249z"/>
			<path fill-rule="evenodd" clip-rule="evenodd" fill="#231F20" d="M82.94,38.218H80.3c-0.252-0.016-0.453-0.203-0.472-0.441
				l0.002-13.41c0-0.27,0.228-0.484,0.509-0.484l2.459-0.001c0.257,0.013,0.464,0.206,0.481,0.45v1.751h0.049
				c0.641-1.693,1.848-2.483,3.475-2.483c1.651,0,2.687,0.79,3.426,2.483c0.641-1.693,2.095-2.483,3.648-2.483
				c1.109,0,2.317,0.452,3.056,1.468c0.838,1.128,0.666,2.766,0.666,4.205l-0.002,8.463c0,0.269-0.229,0.483-0.509,0.483h-2.638
				c-0.265-0.016-0.475-0.225-0.475-0.483v-7.108c0-0.565,0.049-1.976-0.075-2.512c-0.197-0.903-0.788-1.157-1.552-1.157
				c-0.641,0-1.307,0.424-1.577,1.101c-0.271,0.678-0.247,1.805-0.247,2.569v7.108c0,0.269-0.228,0.483-0.509,0.483h-2.638
				c-0.265-0.016-0.475-0.225-0.475-0.483l-0.002-7.108c0-1.496,0.246-3.698-1.627-3.698c-1.898,0-1.824,2.145-1.824,3.698
				l-0.001,7.108C83.45,38.004,83.222,38.218,82.94,38.218z"/>
			<path fill-rule="evenodd" clip-rule="evenodd" fill="#231F20" d="M131.744,23.6c3.92,0,6.039,3.33,6.039,7.563
				c0,4.092-2.341,7.338-6.039,7.338c-3.845,0-5.94-3.331-5.94-7.479C125.804,26.845,127.923,23.6,131.744,23.6z M131.769,26.337
				c-1.947,0-2.07,2.624-2.07,4.262c0,1.636-0.025,5.135,2.046,5.135c2.046,0,2.145-2.821,2.145-4.542
				c0-1.129-0.049-2.483-0.394-3.556C133.198,26.704,132.606,26.337,131.769,26.337z"/>
			<path fill-rule="evenodd" clip-rule="evenodd" fill="#231F20" d="M142.866,38.218h-2.631c-0.265-0.016-0.474-0.225-0.474-0.483
				l-0.004-13.414c0.023-0.246,0.241-0.438,0.508-0.438l2.45-0.001c0.23,0.012,0.421,0.167,0.469,0.376v2.051h0.05
				c0.739-1.834,1.774-2.709,3.598-2.709c1.183,0,2.342,0.424,3.081,1.581c0.69,1.073,0.69,2.878,0.69,4.176v8.438
				c-0.03,0.239-0.245,0.423-0.505,0.423h-2.647c-0.245-0.016-0.442-0.193-0.471-0.423v-7.281c0-1.468,0.174-3.612-1.651-3.612
				c-0.641,0-1.233,0.423-1.527,1.072c-0.37,0.818-0.42,1.636-0.42,2.54v7.221C143.376,38.004,143.147,38.218,142.866,38.218z"/>
			<path fill-rule="evenodd" clip-rule="evenodd" fill="#231F20" d="M107.683,31.813c0,1.018,0.025,1.866-0.494,2.772
				c-0.421,0.735-1.087,1.188-1.828,1.188c-1.013,0-1.605-0.764-1.605-1.895c0-2.226,2.017-2.63,3.928-2.63V31.813z M110.345,38.184
				c-0.175,0.156-0.427,0.165-0.624,0.062c-0.878-0.722-1.035-1.055-1.514-1.741c-1.45,1.461-2.476,1.899-4.354,1.899
				c-2.223,0-3.953-1.359-3.953-4.074c0-2.12,1.161-3.563,2.816-4.27c1.433-0.622,3.435-0.735,4.966-0.906v-0.338
				c0-0.622,0.048-1.357-0.321-1.894c-0.321-0.482-0.939-0.679-1.482-0.679c-1.007,0-1.902,0.51-2.123,1.569
				c-0.046,0.234-0.219,0.467-0.458,0.48l-2.56-0.274c-0.216-0.048-0.456-0.22-0.394-0.546c0.588-3.072,3.392-4.001,5.905-4.001
				c1.284,0,2.964,0.34,3.976,1.302c1.286,1.188,1.161,2.772,1.161,4.497v4.071c0,1.223,0.515,1.761,0.997,2.423
				c0.169,0.237,0.207,0.519-0.009,0.693c-0.539,0.446-1.497,1.271-2.024,1.735L110.345,38.184z"/>
			<path fill-rule="evenodd" clip-rule="evenodd" fill="#231F20" d="M73.067,31.813c0,1.018,0.025,1.866-0.494,2.772
				c-0.419,0.735-1.086,1.188-1.828,1.188c-1.012,0-1.606-0.764-1.606-1.895c0-2.226,2.018-2.63,3.928-2.63V31.813z M75.729,38.184
				c-0.175,0.156-0.427,0.165-0.623,0.062c-0.877-0.722-1.035-1.055-1.514-1.741c-1.449,1.461-2.476,1.899-4.353,1.899
				c-2.224,0-3.952-1.359-3.952-4.074c0-2.12,1.161-3.563,2.815-4.27c1.433-0.622,3.434-0.735,4.965-0.906v-0.338
				c0-0.622,0.05-1.357-0.321-1.894c-0.322-0.482-0.939-0.679-1.483-0.679c-1.007,0-1.903,0.51-2.122,1.569
				c-0.046,0.234-0.219,0.467-0.459,0.48l-2.559-0.274c-0.217-0.048-0.457-0.22-0.394-0.546c0.588-3.072,3.392-4.001,5.905-4.001
				c1.284,0,2.964,0.34,3.978,1.302c1.284,1.188,1.16,2.772,1.16,4.497v4.071c0,1.223,0.514,1.761,0.997,2.423
				c0.169,0.237,0.206,0.519-0.009,0.693c-0.539,0.446-1.498,1.271-2.025,1.735L75.729,38.184z"/>
		</g>
		<g>
			<path fill="#231F20" d="M68.338,9.71h1.178l3.13,7.927h-1.178l-0.875-2.387h-3.389l-0.897,2.387h-1.099L68.338,9.71z
				 M67.541,14.362h2.715l-1.335-3.697h-0.022L67.541,14.362z"/>
			<path fill="#231F20" d="M75.046,17.637h-1.021l-2.154-5.74h1.066l1.627,4.785h0.023l1.582-4.785h0.999L75.046,17.637z"/>
			<path fill="#231F20" d="M82.62,17.614c-0.169,0.1-0.382,0.156-0.685,0.156c-0.494,0-0.808-0.267-0.808-0.888
				c-0.528,0.611-1.234,0.888-2.042,0.888c-1.055,0-1.919-0.466-1.919-1.61c0-1.299,0.976-1.576,1.963-1.765
				c1.055-0.2,1.952-0.133,1.952-0.844c0-0.822-0.684-0.955-1.29-0.955c-0.808,0-1.402,0.244-1.447,1.088h-0.954
				c0.056-1.421,1.167-1.921,2.457-1.921c1.043,0,2.176,0.233,2.176,1.576v2.954c0,0.444,0,0.644,0.303,0.644
				c0.079,0,0.169-0.011,0.292-0.056V17.614z M81.071,14.673c-0.37,0.267-1.088,0.277-1.728,0.389
				c-0.628,0.111-1.167,0.333-1.167,1.032c0,0.622,0.538,0.844,1.122,0.844c1.256,0,1.773-0.777,1.773-1.299V14.673z"/>
			<path fill="#231F20" d="M84.235,10.864h-0.954V9.71h0.954V10.864z M83.281,11.897h0.954v5.74h-0.954V11.897z"/>
			<path fill="#231F20" d="M85.547,9.71H86.5v7.927h-0.953V9.71z"/>
			<path fill="#231F20" d="M92.84,17.614c-0.169,0.1-0.382,0.156-0.685,0.156c-0.494,0-0.808-0.267-0.808-0.888
				c-0.527,0.611-1.235,0.888-2.042,0.888c-1.054,0-1.918-0.466-1.918-1.61c0-1.299,0.976-1.576,1.964-1.765
				c1.054-0.2,1.952-0.133,1.952-0.844c0-0.822-0.685-0.955-1.29-0.955c-0.808,0-1.402,0.244-1.447,1.088h-0.953
				c0.056-1.421,1.167-1.921,2.457-1.921c1.043,0,2.176,0.233,2.176,1.576v2.954c0,0.444,0,0.644,0.303,0.644
				c0.079,0,0.168-0.011,0.292-0.056V17.614z M91.291,14.673c-0.37,0.267-1.088,0.277-1.728,0.389
				c-0.628,0.111-1.167,0.333-1.167,1.032c0,0.622,0.539,0.844,1.122,0.844c1.257,0,1.773-0.777,1.773-1.299V14.673z"/>
			<path fill="#231F20" d="M93.478,9.71h0.954v2.964h0.023c0.314-0.633,1.054-0.91,1.851-0.91c1.784,0,2.67,1.399,2.67,3.02
				c0,1.621-0.876,2.987-2.648,2.987c-0.594,0-1.447-0.222-1.873-0.899h-0.023v0.766h-0.954V9.71z M96.172,12.597
				c-1.279,0-1.773,1.088-1.773,2.165c0,1.132,0.516,2.176,1.828,2.176c1.301,0,1.739-1.099,1.739-2.22
				C97.966,13.64,97.406,12.597,96.172,12.597z"/>
			<path fill="#231F20" d="M99.705,9.71h0.954v7.927h-0.954V9.71z"/>
			<path fill="#231F20" d="M106.807,15.816c-0.258,1.266-1.178,1.954-2.48,1.954c-1.851,0-2.726-1.266-2.782-3.02
				c0-1.721,1.144-2.986,2.726-2.986c2.053,0,2.682,1.898,2.625,3.286h-4.342c-0.034,0.999,0.539,1.888,1.806,1.888
				c0.785,0,1.336-0.378,1.504-1.121H106.807z M105.886,14.218c-0.044-0.899-0.729-1.621-1.671-1.621
				c-0.999,0-1.594,0.744-1.661,1.621H105.886z"/>
			<path fill="#231F20" d="M116.141,17.614c-0.168,0.1-0.381,0.156-0.684,0.156c-0.493,0-0.808-0.267-0.808-0.888
				c-0.527,0.611-1.234,0.888-2.042,0.888c-1.054,0-1.918-0.466-1.918-1.61c0-1.299,0.976-1.576,1.963-1.765
				c1.055-0.2,1.953-0.133,1.953-0.844c0-0.822-0.685-0.955-1.29-0.955c-0.808,0-1.403,0.244-1.448,1.088h-0.953
				c0.056-1.421,1.166-1.921,2.456-1.921c1.044,0,2.177,0.233,2.177,1.576v2.954c0,0.444,0,0.644,0.302,0.644
				c0.079,0,0.169-0.011,0.292-0.056V17.614z M114.593,14.673c-0.371,0.267-1.089,0.277-1.728,0.389
				c-0.628,0.111-1.167,0.333-1.167,1.032c0,0.622,0.539,0.844,1.122,0.844c1.256,0,1.773-0.777,1.773-1.299V14.673z"/>
			<path fill="#231F20" d="M118.351,11.897h1.155v0.832h-1.155v3.564c0,0.433,0.123,0.511,0.718,0.511h0.437v0.832h-0.729
				c-0.987,0-1.38-0.2-1.38-1.254V12.73h-0.988v-0.832h0.988v-1.721h0.953V11.897z"/>
		</g>
	</g>
	<g>
		<g>
			<path fill="#FFFFFF" d="M54.778,133.953c0,3.059-2.506,5.539-5.597,5.539H16.148c-3.091,0-5.597-2.479-5.597-5.539v-32.686
				c0-3.059,2.506-5.539,5.597-5.539h33.033c3.091,0,5.597,2.48,5.597,5.539V133.953z"/>
			<linearGradient id="SVGID_2_" gradientUnits="userSpaceOnUse" x1="32.7512" y1="110.0024" x2="32.7512" y2="139.5779">
				<stop  offset="0" style="stop-color:#F89E3A"/>
				<stop  offset="1" style="stop-color:#C56A23"/>
			</linearGradient>
			<path fill="url(#SVGID_2_)" d="M54.865,134.039c0,3.059-2.506,5.539-5.598,5.539H16.235c-3.091,0-5.597-2.48-5.597-5.539v-24.037
				c0,0,9.415,1.624,22.114,1.532c11.923-0.086,22.113-1.532,22.113-1.532V134.039z"/>
			<path fill="#231F20" d="M49.267,139.535H16.235c-3.11,0-5.641-2.504-5.641-5.582v-32.686c0-3.078,2.531-5.582,5.641-5.582h33.032
				c3.111,0,5.641,2.504,5.641,5.582v32.686C54.908,137.031,52.378,139.535,49.267,139.535z M16.235,95.771
				c-3.063,0-5.554,2.466-5.554,5.496v32.686c0,3.031,2.492,5.497,5.554,5.497h33.032c3.063,0,5.555-2.466,5.555-5.497v-32.686
				c0-3.031-2.492-5.496-5.555-5.496H16.235z"/>
			<path fill-rule="evenodd" clip-rule="evenodd" fill="#231F20" d="M36.505,107.218c-1.805,1.352-4.423,2.071-6.676,2.071
				c-3.159,0-6.003-1.185-8.156-3.157c-0.169-0.155-0.018-0.366,0.185-0.246c2.322,1.371,5.194,2.197,8.16,2.197
				c2.001,0,4.201-0.421,6.225-1.292C36.547,106.658,36.804,106.994,36.505,107.218z"/>
			<path fill-rule="evenodd" clip-rule="evenodd" fill="#231F20" d="M37.256,106.348c-0.231-0.3-1.526-0.142-2.108-0.072
				c-0.176,0.021-0.203-0.135-0.045-0.248c1.033-0.737,2.727-0.524,2.924-0.277c0.198,0.249-0.052,1.971-1.021,2.794
				c-0.149,0.127-0.29,0.059-0.225-0.108C36.999,107.884,37.487,106.647,37.256,106.348z"/>
			<path fill-rule="evenodd" clip-rule="evenodd" fill="#231F20" d="M35.102,100.825v-0.716c0-0.109,0.081-0.181,0.179-0.181h3.161
				c0.101,0,0.182,0.075,0.182,0.181l0,0.614c-0.001,0.103-0.086,0.237-0.238,0.451l-1.638,2.372
				c0.608-0.014,1.251,0.078,1.803,0.393c0.125,0.071,0.158,0.176,0.168,0.279v0.764c0,0.105-0.114,0.227-0.233,0.163
				c-0.973-0.517-2.264-0.574-3.34,0.006c-0.11,0.06-0.225-0.06-0.225-0.165v-0.726c0-0.116,0.002-0.315,0.118-0.492l1.897-2.762
				h-1.652C35.184,101.005,35.103,100.932,35.102,100.825z"/>
			<path fill-rule="evenodd" clip-rule="evenodd" fill="#231F20" d="M23.658,105.295h-0.962c-0.091-0.006-0.165-0.076-0.172-0.165
				l0.001-5.008c0-0.1,0.083-0.18,0.186-0.18l0.895,0c0.094,0.005,0.169,0.077,0.175,0.168v0.654h0.018
				c0.233-0.632,0.673-0.928,1.266-0.928c0.601,0,0.978,0.295,1.248,0.928c0.233-0.632,0.763-0.928,1.329-0.928
				c0.404,0,0.844,0.169,1.113,0.548c0.305,0.422,0.243,1.033,0.243,1.57l-0.001,3.161c0,0.1-0.083,0.18-0.185,0.18H27.85
				c-0.097-0.006-0.173-0.084-0.173-0.18v-2.655c0-0.211,0.018-0.737-0.027-0.938c-0.072-0.337-0.287-0.432-0.565-0.432
				c-0.234,0-0.476,0.158-0.575,0.411c-0.099,0.253-0.09,0.675-0.09,0.959v2.655c0,0.1-0.083,0.18-0.185,0.18h-0.961
				c-0.097-0.006-0.173-0.084-0.173-0.18l-0.001-2.655c0-0.559,0.09-1.38-0.592-1.38c-0.691,0-0.665,0.801-0.665,1.38l0,2.655
				C23.844,105.215,23.761,105.295,23.658,105.295z"/>
			<path fill-rule="evenodd" clip-rule="evenodd" fill="#231F20" d="M41.259,99.836c1.427,0,2.199,1.244,2.199,2.825
				c0,1.528-0.853,2.74-2.199,2.74c-1.4,0-2.164-1.244-2.164-2.793C39.096,101.048,39.868,99.836,41.259,99.836z M41.268,100.858
				c-0.71,0-0.754,0.98-0.754,1.591c0,0.611-0.009,1.918,0.745,1.918c0.745,0,0.781-1.054,0.781-1.697
				c0-0.421-0.018-0.927-0.144-1.328C41.789,100.995,41.573,100.858,41.268,100.858z"/>
			<path fill-rule="evenodd" clip-rule="evenodd" fill="#231F20" d="M45.31,105.295h-0.958c-0.096-0.006-0.173-0.084-0.173-0.18
				l-0.002-5.01c0.008-0.092,0.088-0.163,0.185-0.163l0.892,0c0.084,0.004,0.153,0.062,0.171,0.14v0.766h0.018
				c0.269-0.685,0.646-1.012,1.311-1.012c0.431,0,0.853,0.158,1.122,0.59c0.251,0.4,0.251,1.075,0.251,1.56v3.152
				c-0.011,0.089-0.089,0.158-0.184,0.158h-0.964c-0.089-0.006-0.161-0.072-0.171-0.158v-2.719c0-0.548,0.063-1.349-0.601-1.349
				c-0.234,0-0.449,0.158-0.557,0.4c-0.134,0.306-0.152,0.611-0.152,0.949v2.697C45.495,105.215,45.412,105.295,45.31,105.295z"/>
			<path fill-rule="evenodd" clip-rule="evenodd" fill="#231F20" d="M32.669,102.903c0,0.38,0.009,0.697-0.18,1.035
				c-0.153,0.275-0.396,0.443-0.666,0.443c-0.368,0-0.585-0.285-0.585-0.707c0-0.831,0.735-0.982,1.43-0.982V102.903z
				 M33.638,105.282c-0.064,0.058-0.155,0.062-0.227,0.023c-0.319-0.269-0.376-0.394-0.551-0.65
				c-0.528,0.546-0.902,0.709-1.586,0.709c-0.81,0-1.439-0.507-1.439-1.521c0-0.792,0.423-1.33,1.025-1.595
				c0.522-0.232,1.251-0.275,1.808-0.338v-0.127c0-0.232,0.018-0.507-0.117-0.707c-0.117-0.18-0.342-0.254-0.54-0.254
				c-0.366,0-0.693,0.191-0.773,0.586c-0.017,0.088-0.08,0.175-0.167,0.179l-0.932-0.102c-0.079-0.018-0.166-0.082-0.143-0.204
				c0.214-1.147,1.236-1.494,2.151-1.494c0.468,0,1.079,0.127,1.448,0.486c0.468,0.443,0.423,1.035,0.423,1.679v1.52
				c0,0.458,0.187,0.658,0.363,0.905c0.062,0.089,0.075,0.194-0.003,0.259c-0.196,0.167-0.545,0.475-0.737,0.648L33.638,105.282z"/>
			<path fill-rule="evenodd" clip-rule="evenodd" fill="#231F20" d="M20.149,102.903c0,0.38,0.009,0.697-0.18,1.035
				c-0.153,0.275-0.396,0.443-0.666,0.443c-0.369,0-0.585-0.285-0.585-0.707c0-0.831,0.735-0.982,1.43-0.982V102.903z
				 M21.118,105.282c-0.064,0.058-0.156,0.062-0.227,0.023c-0.32-0.269-0.377-0.394-0.551-0.65
				c-0.528,0.546-0.902,0.709-1.586,0.709c-0.81,0-1.439-0.507-1.439-1.521c0-0.792,0.423-1.33,1.026-1.595
				c0.521-0.232,1.25-0.275,1.808-0.338v-0.127c0-0.232,0.018-0.507-0.117-0.707c-0.117-0.18-0.342-0.254-0.54-0.254
				c-0.367,0-0.693,0.191-0.773,0.586c-0.017,0.088-0.08,0.175-0.167,0.179l-0.932-0.102c-0.079-0.018-0.166-0.082-0.143-0.204
				c0.214-1.147,1.235-1.494,2.151-1.494c0.468,0,1.079,0.127,1.448,0.486c0.468,0.443,0.423,1.035,0.423,1.679v1.52
				c0,0.458,0.187,0.658,0.363,0.905c0.062,0.089,0.075,0.194-0.003,0.259c-0.196,0.167-0.545,0.475-0.737,0.648L21.118,105.282z"/>
			<ellipse fill="#182B72" cx="20.285" cy="123.892" rx="7.818" ry="7.737"/>
			<path fill="#FFFFFF" d="M20.722,120.938h-1.875v6.878c0,0-0.083,0.135-0.248-0.086c-0.082-0.11-2.289-3.353-2.289-3.353
				s-0.359-0.354-0.883-0.218c-0.524,0.136-0.717,0.491-0.469,0.928c0.248,0.436,1.93,4.393,4.109,5.485
				c1.549,0.776,3.392,0.49,4.44,0c0.928-0.434,2.378-1.501,2.488-2.92c0.11-1.42-0.002-2.675-0.002-2.675h-0.976v1.719H24.39
				v-2.511h-1.104v2.053h-0.658v-2.68h-1.241v2.543h-0.603L20.722,120.938z"/>
			<rect x="15.537" y="120.938" fill="#FFFFFF" width="1.572" height="0.956"/>
			<rect x="22.556" y="120.938" fill="#FFFFFF" width="1.572" height="0.956"/>
			<rect x="18.957" y="117.5" fill="#FFFFFF" width="1.627" height="1.801"/>
			<polygon fill="#FFFFFF" points="17.55,120.174 18.13,119.601 17.058,118.51 16.41,119.083 			"/>
			<polygon fill="#FFFFFF" points="22.188,120.004 21.696,119.345 22.854,118.424 23.329,119.083 			"/>
			<g>
				<g>
					<path fill="#FFFFFF" d="M30.61,120.499c0.41-0.212,0.983-0.503,1.908-0.503c1.873,0,2.306,1.033,2.306,2.742v2.981
						c0,0.491-0.04,0.941-0.005,1.206h-1.311c-0.03-0.312,0.004-0.595,0.004-0.927H33.49c-0.363,0.557-0.82,1.034-1.686,1.034
						c-0.936,0-1.803-0.729-1.803-2.001c0-1.855,1.334-2.319,3.172-2.319h0.293v-0.252c0-0.676-0.293-1.298-1.124-1.298
						c-0.726,0-1.37,0.398-1.65,0.662L30.61,120.499z M33.466,123.586h-0.129c-1.241,0-1.978,0.291-1.978,1.285
						c0,0.623,0.363,1.047,0.925,1.047c0.866,0,1.182-0.729,1.182-1.947V123.586z"/>
					<path fill="#FFFFFF" d="M31.804,127.073c-0.917,0-1.846-0.702-1.846-2.044c0-2.093,1.718-2.361,3.215-2.361h0.249v-0.209
						c0-0.377-0.105-1.256-1.08-1.256c-0.735,0-1.364,0.41-1.621,0.651c-0.012,0.012-0.03,0.015-0.046,0.009
						c-0.016-0.006-0.026-0.02-0.027-0.037l-0.082-1.325c-0.001-0.016,0.008-0.032,0.023-0.041c0.391-0.202,0.982-0.508,1.928-0.508
						c1.95,0,2.349,1.113,2.349,2.785v2.981c0,0.183-0.005,0.357-0.011,0.525c-0.009,0.275-0.016,0.512,0.006,0.675
						c0.002,0.013-0.002,0.025-0.01,0.034c-0.008,0.009-0.02,0.015-0.032,0.015h-1.311c-0.022,0-0.041-0.017-0.043-0.039
						c-0.019-0.204-0.012-0.393-0.004-0.593c0.003-0.075,0.006-0.151,0.007-0.23C33.133,126.598,32.666,127.073,31.804,127.073z
						 M33.174,122.754c-2.164,0-3.129,0.702-3.129,2.276c0,1.285,0.885,1.958,1.759,1.958c0.868,0,1.306-0.488,1.649-1.014
						c0.008-0.012,0.022-0.019,0.037-0.019h0.023c0.024,0,0.043,0.019,0.043,0.042c0,0.119-0.004,0.233-0.009,0.342
						c-0.007,0.185-0.014,0.359,0.001,0.544h1.223c-0.016-0.166-0.009-0.388-0.001-0.641c0.005-0.167,0.01-0.34,0.01-0.522v-2.981
						c0-1.621-0.385-2.7-2.262-2.7c-0.905,0-1.479,0.287-1.863,0.486l0.075,1.209c0.298-0.252,0.909-0.614,1.613-0.614
						c0.742,0,1.167,0.488,1.167,1.341v0.252c0,0.024-0.019,0.043-0.043,0.043H33.174z M32.284,125.96
						c-0.579,0-0.968-0.438-0.968-1.09c0-0.931,0.605-1.327,2.021-1.327h0.129c0.024,0,0.043,0.019,0.043,0.042v0.385
						C33.509,125.328,33.12,125.96,32.284,125.96z M33.338,123.629c-1.356,0-1.935,0.372-1.935,1.242
						c0,0.61,0.346,1.004,0.881,1.004c0.777,0,1.139-0.605,1.139-1.905v-0.342H33.338z"/>
				</g>
				<g>
					<path fill="#FFFFFF" d="M36.193,121.267c0-0.49-0.004-0.865-0.004-1.154l1.27,0.003c0.012,0.213,0.005,0.239,0.005,0.703H37.5
						c0.234-0.582,0.753-0.823,1.69-0.823c1.498,0,2.205,1.616,2.205,3.51c0,2.226-0.871,3.353-2.169,3.353
						c-0.867,0-1.347-0.129-1.557-0.659h-0.023v3.244h-1.452V121.267z M38.768,125.654c0.808,0,1.261-0.716,1.261-2.081
						c0-1.576-0.395-2.371-1.238-2.371c-0.855,0-1.147,0.961-1.147,2.246C37.645,124.772,37.972,125.654,38.768,125.654z"/>
					<path fill="#FFFFFF" d="M37.645,129.487h-1.452c-0.024,0-0.043-0.019-0.043-0.043v-8.177c0-0.277-0.001-0.518-0.002-0.726
						c-0.001-0.161-0.002-0.302-0.002-0.428c0-0.011,0.004-0.023,0.013-0.031c0.008-0.007,0.019-0.012,0.031-0.012l0,0l1.271,0.003
						c0.023,0,0.042,0.018,0.043,0.041c0.007,0.142,0.007,0.201,0.006,0.359c0,0.058-0.001,0.129-0.001,0.222
						c0.258-0.519,0.769-0.742,1.682-0.742c1.366,0,2.248,1.395,2.248,3.553c0,2.159-0.806,3.396-2.212,3.396
						c-0.772,0-1.283-0.095-1.537-0.558v3.1C37.688,129.467,37.669,129.487,37.645,129.487z M36.237,129.402h1.365V126.2
						c0-0.024,0.019-0.043,0.043-0.043h0.023c0.018,0,0.034,0.011,0.04,0.028c0.185,0.466,0.582,0.632,1.517,0.632
						c1.351,0,2.126-1.206,2.126-3.311c0-1.6-0.566-3.468-2.162-3.468c-0.932,0-1.425,0.239-1.65,0.798
						c-0.007,0.016-0.022,0.027-0.04,0.027h-0.035c-0.024,0-0.043-0.02-0.043-0.043c0-0.158,0.001-0.265,0.002-0.347
						c0.001-0.14,0.002-0.201-0.004-0.313l-1.186-0.003c0,0.115,0.001,0.243,0.002,0.385c0.001,0.209,0.003,0.449,0.003,0.727
						V129.402z M38.768,125.697c-0.763,0-1.167-0.778-1.167-2.25c0-1.519,0.4-2.289,1.19-2.289c0.862,0,1.281,0.789,1.281,2.414
						C40.073,124.942,39.61,125.697,38.768,125.697z M38.792,121.243c-0.733,0-1.104,0.741-1.104,2.203
						c0,0.987,0.187,2.164,1.081,2.164c0.785,0,1.218-0.724,1.218-2.038C39.986,122.005,39.596,121.243,38.792,121.243z"/>
				</g>
				<g>
					<path fill="#FFFFFF" d="M48.46,125.095c0.244,0.103,0.866,0.523,1.573,0.523c0.549,0,0.976-0.142,0.976-0.656
						c0-0.257-0.122-0.501-0.671-0.837l-0.881-0.557c-0.634-0.399-1.07-0.689-1.07-1.61c0-1.063,0.841-1.963,2.17-1.963
						c0.805,0,1.427,0.218,1.573,0.27l-0.086,1.235c-0.378-0.154-0.78-0.296-1.329-0.296c-0.61,0-0.866,0.245-0.866,0.643
						c0,0.36,0.184,0.5,0.622,0.796l1.042,0.493c0.82,0.475,1.043,1.137,1.043,1.735c0,1.223-0.889,2.041-2.255,2.041
						c-0.781,0-1.6-0.278-1.917-0.407L48.46,125.095z"/>
					<path fill="#FFFFFF" d="M50.303,126.956c-0.878,0-1.764-0.342-1.933-0.41c-0.017-0.007-0.027-0.024-0.027-0.041l0.073-1.411
						c0.001-0.014,0.008-0.027,0.02-0.034c0.012-0.007,0.027-0.009,0.04-0.003c0.052,0.022,0.12,0.057,0.198,0.098
						c0.302,0.157,0.806,0.421,1.358,0.421c0.636,0,0.932-0.195,0.932-0.613c0-0.242-0.11-0.471-0.65-0.8l-0.882-0.557
						c-0.609-0.383-1.09-0.686-1.09-1.645c0-1.163,0.931-2.006,2.213-2.006c0.371,0,0.947,0.047,1.588,0.273
						c0.018,0.006,0.03,0.024,0.029,0.043l-0.086,1.236c-0.001,0.014-0.009,0.026-0.02,0.033c-0.012,0.007-0.027,0.008-0.039,0.003
						c-0.362-0.148-0.762-0.293-1.313-0.293c-0.553,0-0.822,0.196-0.822,0.6c0,0.34,0.174,0.471,0.603,0.761l1.036,0.489
						c0.71,0.411,1.068,1.008,1.068,1.774C52.601,126.118,51.678,126.956,50.303,126.956z M48.432,126.477
						c0.221,0.088,1.051,0.393,1.872,0.393c1.343,0,2.212-0.785,2.212-1.999c0-0.733-0.344-1.305-1.022-1.698l-1.039-0.491
						c-0.451-0.303-0.647-0.452-0.647-0.835c0-0.312,0.158-0.686,0.909-0.686c0.538,0,0.934,0.133,1.29,0.277l0.079-1.144
						c-0.617-0.212-1.17-0.257-1.528-0.257c-1.233,0-2.127,0.808-2.127,1.921c0,0.914,0.44,1.19,1.05,1.573l0.881,0.557
						c0.49,0.299,0.69,0.552,0.69,0.872c0,0.471-0.333,0.699-1.019,0.699c-0.573,0-1.09-0.269-1.398-0.431
						c-0.05-0.026-0.096-0.049-0.135-0.069L48.432,126.477z"/>
				</g>
				<g>
					<path fill="#FFFFFF" d="M42.43,121.267c0-0.49-0.004-0.865-0.004-1.154l1.271,0.003c0.012,0.213,0.005,0.239,0.005,0.703h0.035
						c0.234-0.582,0.754-0.823,1.69-0.823c1.498,0,2.205,1.616,2.205,3.51c0,2.226-0.87,3.353-2.169,3.353
						c-0.866,0-1.346-0.129-1.557-0.659h-0.023v3.244H42.43V121.267z M45.005,125.654c0.808,0,1.261-0.716,1.261-2.081
						c0-1.576-0.395-2.371-1.238-2.371c-0.854,0-1.147,0.961-1.147,2.246C43.881,124.772,44.209,125.654,45.005,125.654z"/>
					<path fill="#FFFFFF" d="M43.881,129.487H42.43c-0.024,0-0.043-0.019-0.043-0.043v-8.177c0-0.277-0.001-0.518-0.003-0.726
						c-0.001-0.161-0.001-0.302-0.001-0.428c0-0.011,0.004-0.023,0.013-0.031c0.008-0.007,0.019-0.012,0.03-0.012l0,0l1.271,0.003
						c0.023,0,0.042,0.018,0.043,0.041c0.008,0.142,0.007,0.201,0.006,0.359c0,0.058-0.001,0.129-0.001,0.222
						c0.258-0.519,0.769-0.742,1.681-0.742c1.366,0,2.249,1.395,2.249,3.553c0,2.159-0.807,3.396-2.213,3.396
						c-0.772,0-1.283-0.095-1.537-0.558v3.1C43.925,129.467,43.905,129.487,43.881,129.487z M42.473,129.402h1.365V126.2
						c0-0.024,0.02-0.043,0.043-0.043h0.023c0.018,0,0.034,0.011,0.04,0.028c0.185,0.466,0.583,0.632,1.517,0.632
						c1.351,0,2.126-1.206,2.126-3.311c0-1.6-0.566-3.468-2.162-3.468c-0.932,0-1.425,0.239-1.65,0.798
						c-0.007,0.016-0.022,0.027-0.04,0.027h-0.035c-0.024,0-0.043-0.02-0.043-0.043c0-0.158,0.001-0.265,0.001-0.347
						c0.001-0.14,0.002-0.201-0.004-0.313l-1.186-0.003c0,0.115,0.001,0.243,0.001,0.385c0.001,0.209,0.002,0.449,0.002,0.727
						V129.402z M45.005,125.697c-0.763,0-1.167-0.778-1.167-2.25c0-1.519,0.4-2.289,1.19-2.289c0.862,0,1.281,0.789,1.281,2.414
						C46.309,124.942,45.846,125.697,45.005,125.697z M45.028,121.243c-0.733,0-1.104,0.741-1.104,2.203
						c0,0.987,0.187,2.164,1.08,2.164c0.785,0,1.218-0.724,1.218-2.038C46.223,122.005,45.832,121.243,45.028,121.243z"/>
				</g>
			</g>
		</g>
		<g>
			<g>
				<path fill-rule="evenodd" clip-rule="evenodd" fill="#F7971F" d="M118.215,133.866c-4.957,3.619-12.144,5.545-18.333,5.545
					c-8.673,0-16.483-3.172-22.393-8.453c-0.464-0.415-0.05-0.982,0.508-0.66c6.377,3.672,14.263,5.883,22.407,5.883
					c5.495,0,11.534-1.129,17.091-3.459C118.332,132.369,119.035,133.268,118.215,133.866z"/>
				<path fill-rule="evenodd" clip-rule="evenodd" fill="#F7971F" d="M120.278,131.536c-0.635-0.804-4.191-0.381-5.789-0.191
					c-0.485,0.058-0.559-0.361-0.123-0.664c2.838-1.971,7.487-1.403,8.028-0.742c0.544,0.666-0.143,5.279-2.802,7.48
					c-0.408,0.339-0.798,0.158-0.617-0.29C119.573,135.651,120.912,132.339,120.278,131.536z"/>
			</g>
			<path fill-rule="evenodd" clip-rule="evenodd" fill="#231F20" d="M114.602,116.749v-1.917c0.001-0.292,0.223-0.486,0.49-0.485
				l8.679-0.001c0.278,0,0.501,0.2,0.501,0.484v1.644c-0.002,0.276-0.237,0.636-0.654,1.206l-4.495,6.353
				c1.668-0.039,3.434,0.209,4.951,1.051c0.341,0.19,0.433,0.472,0.459,0.748v2.044c0,0.282-0.311,0.609-0.638,0.439
				c-2.672-1.385-6.217-1.537-9.171,0.015c-0.302,0.16-0.617-0.161-0.617-0.443v-1.945c0-0.311,0.006-0.842,0.322-1.316l5.21-7.395
				l-4.536-0.001C114.826,117.231,114.603,117.035,114.602,116.749z"/>
			<path fill-rule="evenodd" clip-rule="evenodd" fill="#231F20" d="M82.94,128.718H80.3c-0.252-0.016-0.453-0.203-0.472-0.441
				l0.002-13.41c0-0.27,0.228-0.484,0.509-0.484l2.459-0.001c0.257,0.013,0.464,0.206,0.481,0.45v1.751h0.049
				c0.641-1.693,1.848-2.483,3.475-2.483c1.651,0,2.687,0.79,3.426,2.483c0.641-1.693,2.095-2.483,3.648-2.483
				c1.109,0,2.317,0.452,3.056,1.468c0.838,1.128,0.666,2.766,0.666,4.205l-0.002,8.463c0,0.268-0.229,0.483-0.509,0.483h-2.638
				c-0.265-0.016-0.475-0.225-0.475-0.483v-7.108c0-0.565,0.049-1.976-0.075-2.512c-0.197-0.903-0.788-1.157-1.552-1.157
				c-0.641,0-1.307,0.424-1.577,1.101c-0.271,0.678-0.247,1.805-0.247,2.569v7.108c0,0.268-0.228,0.483-0.509,0.483h-2.638
				c-0.265-0.016-0.475-0.225-0.475-0.483l-0.002-7.108c0-1.496,0.246-3.698-1.627-3.698c-1.898,0-1.824,2.145-1.824,3.698
				l-0.001,7.108C83.45,128.504,83.222,128.718,82.94,128.718z"/>
			<path fill-rule="evenodd" clip-rule="evenodd" fill="#231F20" d="M131.744,114.1c3.92,0,6.039,3.33,6.039,7.563
				c0,4.092-2.341,7.338-6.039,7.338c-3.845,0-5.94-3.331-5.94-7.479C125.804,117.345,127.923,114.1,131.744,114.1z
				 M131.769,116.837c-1.947,0-2.07,2.624-2.07,4.262c0,1.636-0.025,5.135,2.046,5.135c2.046,0,2.145-2.821,2.145-4.542
				c0-1.129-0.049-2.483-0.394-3.556C133.198,117.204,132.606,116.837,131.769,116.837z"/>
			<path fill-rule="evenodd" clip-rule="evenodd" fill="#231F20" d="M142.866,128.718h-2.631c-0.265-0.016-0.474-0.225-0.474-0.483
				l-0.004-13.414c0.023-0.246,0.241-0.438,0.508-0.438l2.45-0.001c0.23,0.012,0.421,0.167,0.469,0.376v2.051h0.05
				c0.739-1.834,1.774-2.709,3.598-2.709c1.183,0,2.342,0.424,3.081,1.581c0.69,1.073,0.69,2.878,0.69,4.176v8.438
				c-0.03,0.239-0.245,0.423-0.505,0.423h-2.647c-0.245-0.016-0.442-0.193-0.471-0.423v-7.281c0-1.468,0.174-3.612-1.651-3.612
				c-0.641,0-1.233,0.423-1.527,1.072c-0.37,0.818-0.42,1.636-0.42,2.54v7.221C143.376,128.504,143.147,128.718,142.866,128.718z"/>
			<path fill-rule="evenodd" clip-rule="evenodd" fill="#231F20" d="M107.683,122.313c0,1.018,0.025,1.866-0.494,2.772
				c-0.421,0.735-1.087,1.188-1.828,1.188c-1.013,0-1.605-0.764-1.605-1.895c0-2.226,2.017-2.63,3.928-2.63V122.313z
				 M110.345,128.684c-0.175,0.156-0.427,0.165-0.624,0.062c-0.878-0.722-1.035-1.055-1.514-1.741
				c-1.45,1.461-2.476,1.899-4.354,1.899c-2.223,0-3.953-1.359-3.953-4.074c0-2.12,1.161-3.563,2.816-4.27
				c1.433-0.622,3.435-0.735,4.966-0.906v-0.338c0-0.622,0.048-1.357-0.321-1.894c-0.321-0.482-0.939-0.679-1.482-0.679
				c-1.007,0-1.902,0.51-2.123,1.569c-0.046,0.234-0.219,0.467-0.458,0.48l-2.56-0.274c-0.216-0.048-0.456-0.22-0.394-0.546
				c0.588-3.072,3.392-4.001,5.905-4.001c1.284,0,2.964,0.34,3.976,1.302c1.286,1.188,1.161,2.772,1.161,4.497v4.071
				c0,1.223,0.515,1.761,0.997,2.423c0.169,0.237,0.207,0.519-0.009,0.693c-0.539,0.446-1.497,1.271-2.024,1.735L110.345,128.684z"
				/>
			<path fill-rule="evenodd" clip-rule="evenodd" fill="#231F20" d="M73.067,122.313c0,1.018,0.025,1.866-0.494,2.772
				c-0.419,0.735-1.086,1.188-1.828,1.188c-1.012,0-1.606-0.764-1.606-1.895c0-2.226,2.018-2.63,3.928-2.63V122.313z
				 M75.729,128.684c-0.175,0.156-0.427,0.165-0.623,0.062c-0.877-0.722-1.035-1.055-1.514-1.741
				c-1.449,1.461-2.476,1.899-4.353,1.899c-2.224,0-3.952-1.359-3.952-4.074c0-2.12,1.161-3.563,2.815-4.27
				c1.433-0.622,3.434-0.735,4.965-0.906v-0.338c0-0.622,0.05-1.357-0.321-1.894c-0.322-0.482-0.939-0.679-1.483-0.679
				c-1.007,0-1.903,0.51-2.122,1.569c-0.046,0.234-0.219,0.467-0.459,0.48l-2.559-0.274c-0.217-0.048-0.457-0.22-0.394-0.546
				c0.588-3.072,3.392-4.001,5.905-4.001c1.284,0,2.964,0.34,3.978,1.302c1.284,1.188,1.16,2.772,1.16,4.497v4.071
				c0,1.223,0.514,1.761,0.997,2.423c0.169,0.237,0.206,0.519-0.009,0.693c-0.539,0.446-1.498,1.271-2.025,1.735L75.729,128.684z"/>
		</g>
		<g>
			<path fill="#231F20" d="M68.338,100.21h1.178l3.13,7.927h-1.178l-0.875-2.387h-3.389l-0.897,2.387h-1.099L68.338,100.21z
				 M67.541,104.862h2.715l-1.335-3.697h-0.022L67.541,104.862z"/>
			<path fill="#231F20" d="M75.046,108.137h-1.021l-2.154-5.74h1.066l1.627,4.785h0.023l1.582-4.785h0.999L75.046,108.137z"/>
			<path fill="#231F20" d="M82.62,108.114c-0.169,0.1-0.382,0.156-0.685,0.156c-0.494,0-0.808-0.267-0.808-0.888
				c-0.528,0.611-1.234,0.888-2.042,0.888c-1.055,0-1.919-0.466-1.919-1.61c0-1.299,0.976-1.576,1.963-1.765
				c1.055-0.2,1.952-0.133,1.952-0.844c0-0.822-0.684-0.955-1.29-0.955c-0.808,0-1.402,0.244-1.447,1.088h-0.954
				c0.056-1.421,1.167-1.921,2.457-1.921c1.043,0,2.176,0.233,2.176,1.576v2.954c0,0.444,0,0.644,0.303,0.644
				c0.079,0,0.169-0.011,0.292-0.056V108.114z M81.071,105.173c-0.37,0.267-1.088,0.277-1.728,0.389
				c-0.628,0.111-1.167,0.333-1.167,1.032c0,0.622,0.538,0.844,1.122,0.844c1.256,0,1.773-0.777,1.773-1.299V105.173z"/>
			<path fill="#231F20" d="M84.235,101.364h-0.954v-1.154h0.954V101.364z M83.281,102.397h0.954v5.74h-0.954V102.397z"/>
			<path fill="#231F20" d="M85.547,100.21H86.5v7.927h-0.953V100.21z"/>
			<path fill="#231F20" d="M92.84,108.114c-0.169,0.1-0.382,0.156-0.685,0.156c-0.494,0-0.808-0.267-0.808-0.888
				c-0.527,0.611-1.235,0.888-2.042,0.888c-1.054,0-1.918-0.466-1.918-1.61c0-1.299,0.976-1.576,1.964-1.765
				c1.054-0.2,1.952-0.133,1.952-0.844c0-0.822-0.685-0.955-1.29-0.955c-0.808,0-1.402,0.244-1.447,1.088h-0.953
				c0.056-1.421,1.167-1.921,2.457-1.921c1.043,0,2.176,0.233,2.176,1.576v2.954c0,0.444,0,0.644,0.303,0.644
				c0.079,0,0.168-0.011,0.292-0.056V108.114z M91.291,105.173c-0.37,0.267-1.088,0.277-1.728,0.389
				c-0.628,0.111-1.167,0.333-1.167,1.032c0,0.622,0.539,0.844,1.122,0.844c1.257,0,1.773-0.777,1.773-1.299V105.173z"/>
			<path fill="#231F20" d="M93.478,100.21h0.954v2.964h0.023c0.314-0.633,1.054-0.91,1.851-0.91c1.784,0,2.67,1.399,2.67,3.02
				c0,1.621-0.876,2.987-2.648,2.987c-0.594,0-1.447-0.222-1.873-0.899h-0.023v0.766h-0.954V100.21z M96.172,103.097
				c-1.279,0-1.773,1.088-1.773,2.165c0,1.132,0.516,2.176,1.828,2.176c1.301,0,1.739-1.099,1.739-2.22
				C97.966,104.14,97.406,103.097,96.172,103.097z"/>
			<path fill="#231F20" d="M99.705,100.21h0.954v7.927h-0.954V100.21z"/>
			<path fill="#231F20" d="M106.807,106.316c-0.258,1.266-1.178,1.954-2.48,1.954c-1.851,0-2.726-1.266-2.782-3.02
				c0-1.721,1.144-2.986,2.726-2.986c2.053,0,2.682,1.898,2.625,3.286h-4.342c-0.034,0.999,0.539,1.888,1.806,1.888
				c0.785,0,1.336-0.378,1.504-1.121H106.807z M105.886,104.718c-0.044-0.899-0.729-1.621-1.671-1.621
				c-0.999,0-1.594,0.744-1.661,1.621H105.886z"/>
			<path fill="#231F20" d="M116.141,108.114c-0.168,0.1-0.381,0.156-0.684,0.156c-0.493,0-0.808-0.267-0.808-0.888
				c-0.527,0.611-1.234,0.888-2.042,0.888c-1.054,0-1.918-0.466-1.918-1.61c0-1.299,0.976-1.576,1.963-1.765
				c1.055-0.2,1.953-0.133,1.953-0.844c0-0.822-0.685-0.955-1.29-0.955c-0.808,0-1.403,0.244-1.448,1.088h-0.953
				c0.056-1.421,1.166-1.921,2.456-1.921c1.044,0,2.177,0.233,2.177,1.576v2.954c0,0.444,0,0.644,0.302,0.644
				c0.079,0,0.169-0.011,0.292-0.056V108.114z M114.593,105.173c-0.371,0.267-1.089,0.277-1.728,0.389
				c-0.628,0.111-1.167,0.333-1.167,1.032c0,0.622,0.539,0.844,1.122,0.844c1.256,0,1.773-0.777,1.773-1.299V105.173z"/>
			<path fill="#231F20" d="M118.351,102.397h1.155v0.832h-1.155v3.564c0,0.433,0.123,0.511,0.718,0.511h0.437v0.832h-0.729
				c-0.987,0-1.38-0.2-1.38-1.254v-3.653h-0.988v-0.832h0.988v-1.721h0.953V102.397z"/>
		</g>
	</g>
	<g>
		<g>
			<path fill="#FFFFFF" d="M54.778,233.953c0,3.059-2.506,5.539-5.597,5.539H16.148c-3.091,0-5.597-2.479-5.597-5.539v-32.686
				c0-3.059,2.506-5.539,5.597-5.539h33.033c3.091,0,5.597,2.48,5.597,5.539V233.953z"/>
			<linearGradient id="SVGID_3_" gradientUnits="userSpaceOnUse" x1="32.7512" y1="210.0024" x2="32.7512" y2="239.5779">
				<stop  offset="0" style="stop-color:#F89E3A"/>
				<stop  offset="1" style="stop-color:#C56A23"/>
			</linearGradient>
			<path fill="url(#SVGID_3_)" d="M54.865,234.039c0,3.059-2.506,5.539-5.598,5.539H16.235c-3.091,0-5.597-2.48-5.597-5.539v-24.037
				c0,0,9.415,1.624,22.114,1.532c11.923-0.086,22.113-1.532,22.113-1.532V234.039z"/>
			<path fill="#231F20" d="M49.267,239.535H16.235c-3.11,0-5.641-2.504-5.641-5.582v-32.686c0-3.078,2.531-5.582,5.641-5.582h33.032
				c3.111,0,5.641,2.504,5.641,5.582v32.686C54.908,237.031,52.378,239.535,49.267,239.535z M16.235,195.771
				c-3.063,0-5.554,2.466-5.554,5.496v32.686c0,3.031,2.492,5.497,5.554,5.497h33.032c3.063,0,5.555-2.466,5.555-5.497v-32.686
				c0-3.031-2.492-5.496-5.555-5.496H16.235z"/>
			<path fill-rule="evenodd" clip-rule="evenodd" fill="#231F20" d="M36.505,207.218c-1.805,1.352-4.423,2.071-6.676,2.071
				c-3.159,0-6.003-1.185-8.156-3.157c-0.169-0.155-0.018-0.366,0.185-0.246c2.322,1.371,5.194,2.197,8.16,2.197
				c2.001,0,4.201-0.421,6.225-1.292C36.547,206.658,36.804,206.994,36.505,207.218z"/>
			<path fill-rule="evenodd" clip-rule="evenodd" fill="#231F20" d="M37.256,206.348c-0.231-0.3-1.526-0.142-2.108-0.072
				c-0.176,0.021-0.203-0.135-0.045-0.248c1.033-0.737,2.727-0.524,2.924-0.277c0.198,0.249-0.052,1.971-1.021,2.794
				c-0.149,0.127-0.29,0.059-0.225-0.108C36.999,207.884,37.487,206.647,37.256,206.348z"/>
			<path fill-rule="evenodd" clip-rule="evenodd" fill="#231F20" d="M35.102,200.825v-0.716c0-0.109,0.081-0.181,0.179-0.181h3.161
				c0.101,0,0.182,0.075,0.182,0.181l0,0.614c-0.001,0.103-0.086,0.237-0.238,0.451l-1.638,2.372
				c0.608-0.014,1.251,0.078,1.803,0.393c0.125,0.071,0.158,0.176,0.168,0.279v0.764c0,0.105-0.114,0.227-0.233,0.163
				c-0.973-0.517-2.264-0.574-3.34,0.006c-0.11,0.06-0.225-0.06-0.225-0.165v-0.726c0-0.116,0.002-0.315,0.118-0.492l1.897-2.762
				h-1.652C35.184,201.005,35.103,200.932,35.102,200.825z"/>
			<path fill-rule="evenodd" clip-rule="evenodd" fill="#231F20" d="M23.658,205.295h-0.962c-0.091-0.006-0.165-0.076-0.172-0.165
				l0.001-5.008c0-0.1,0.083-0.18,0.186-0.18l0.895,0c0.094,0.005,0.169,0.077,0.175,0.168v0.654h0.018
				c0.233-0.632,0.673-0.928,1.266-0.928c0.601,0,0.978,0.295,1.248,0.928c0.233-0.632,0.763-0.928,1.329-0.928
				c0.404,0,0.844,0.169,1.113,0.548c0.305,0.422,0.243,1.033,0.243,1.57l-0.001,3.161c0,0.1-0.083,0.18-0.185,0.18H27.85
				c-0.097-0.006-0.173-0.084-0.173-0.18v-2.655c0-0.211,0.018-0.737-0.027-0.938c-0.072-0.337-0.287-0.432-0.565-0.432
				c-0.234,0-0.476,0.158-0.575,0.411c-0.099,0.253-0.09,0.675-0.09,0.959v2.655c0,0.1-0.083,0.18-0.185,0.18h-0.961
				c-0.097-0.006-0.173-0.084-0.173-0.18l-0.001-2.655c0-0.559,0.09-1.38-0.592-1.38c-0.691,0-0.665,0.801-0.665,1.38l0,2.655
				C23.844,205.215,23.761,205.295,23.658,205.295z"/>
			<path fill-rule="evenodd" clip-rule="evenodd" fill="#231F20" d="M41.259,199.836c1.427,0,2.199,1.244,2.199,2.825
				c0,1.528-0.853,2.74-2.199,2.74c-1.4,0-2.164-1.244-2.164-2.793C39.096,201.048,39.868,199.836,41.259,199.836z M41.268,200.858
				c-0.71,0-0.754,0.98-0.754,1.591c0,0.611-0.009,1.918,0.745,1.918c0.745,0,0.781-1.054,0.781-1.697
				c0-0.421-0.018-0.927-0.144-1.328C41.789,200.995,41.573,200.858,41.268,200.858z"/>
			<path fill-rule="evenodd" clip-rule="evenodd" fill="#231F20" d="M45.31,205.295h-0.958c-0.096-0.006-0.173-0.084-0.173-0.18
				l-0.002-5.01c0.008-0.092,0.088-0.163,0.185-0.163l0.892,0c0.084,0.004,0.153,0.062,0.171,0.14v0.766h0.018
				c0.269-0.685,0.646-1.012,1.311-1.012c0.431,0,0.853,0.158,1.122,0.59c0.251,0.4,0.251,1.075,0.251,1.56v3.152
				c-0.011,0.089-0.089,0.158-0.184,0.158h-0.964c-0.089-0.006-0.161-0.072-0.171-0.158v-2.719c0-0.548,0.063-1.349-0.601-1.349
				c-0.234,0-0.449,0.158-0.557,0.4c-0.134,0.306-0.152,0.611-0.152,0.949v2.697C45.495,205.215,45.412,205.295,45.31,205.295z"/>
			<path fill-rule="evenodd" clip-rule="evenodd" fill="#231F20" d="M32.669,202.903c0,0.38,0.009,0.697-0.18,1.035
				c-0.153,0.275-0.396,0.443-0.666,0.443c-0.368,0-0.585-0.285-0.585-0.707c0-0.831,0.735-0.982,1.43-0.982V202.903z
				 M33.638,205.282c-0.064,0.058-0.155,0.062-0.227,0.023c-0.319-0.269-0.376-0.394-0.551-0.65
				c-0.528,0.546-0.902,0.709-1.586,0.709c-0.81,0-1.439-0.507-1.439-1.521c0-0.792,0.423-1.33,1.025-1.595
				c0.522-0.232,1.251-0.275,1.808-0.338v-0.127c0-0.232,0.018-0.507-0.117-0.707c-0.117-0.18-0.342-0.254-0.54-0.254
				c-0.366,0-0.693,0.191-0.773,0.586c-0.017,0.088-0.08,0.175-0.167,0.179l-0.932-0.102c-0.079-0.018-0.166-0.082-0.143-0.204
				c0.214-1.147,1.236-1.494,2.151-1.494c0.468,0,1.079,0.127,1.448,0.486c0.468,0.443,0.423,1.035,0.423,1.679v1.52
				c0,0.458,0.187,0.658,0.363,0.905c0.062,0.089,0.075,0.194-0.003,0.259c-0.196,0.167-0.545,0.475-0.737,0.648L33.638,205.282z"/>
			<path fill-rule="evenodd" clip-rule="evenodd" fill="#231F20" d="M20.149,202.903c0,0.38,0.009,0.697-0.18,1.035
				c-0.153,0.275-0.396,0.443-0.666,0.443c-0.369,0-0.585-0.285-0.585-0.707c0-0.831,0.735-0.982,1.43-0.982V202.903z
				 M21.118,205.282c-0.064,0.058-0.156,0.062-0.227,0.023c-0.32-0.269-0.377-0.394-0.551-0.65
				c-0.528,0.546-0.902,0.709-1.586,0.709c-0.81,0-1.439-0.507-1.439-1.521c0-0.792,0.423-1.33,1.026-1.595
				c0.521-0.232,1.25-0.275,1.808-0.338v-0.127c0-0.232,0.018-0.507-0.117-0.707c-0.117-0.18-0.342-0.254-0.54-0.254
				c-0.367,0-0.693,0.191-0.773,0.586c-0.017,0.088-0.08,0.175-0.167,0.179l-0.932-0.102c-0.079-0.018-0.166-0.082-0.143-0.204
				c0.214-1.147,1.235-1.494,2.151-1.494c0.468,0,1.079,0.127,1.448,0.486c0.468,0.443,0.423,1.035,0.423,1.679v1.52
				c0,0.458,0.187,0.658,0.363,0.905c0.062,0.089,0.075,0.194-0.003,0.259c-0.196,0.167-0.545,0.475-0.737,0.648L21.118,205.282z"/>
			<ellipse fill="#182B72" cx="20.285" cy="223.892" rx="7.818" ry="7.737"/>
			<path fill="#FFFFFF" d="M20.722,220.938h-1.875v6.878c0,0-0.083,0.135-0.248-0.086c-0.082-0.11-2.289-3.353-2.289-3.353
				s-0.359-0.354-0.883-0.218c-0.524,0.136-0.717,0.491-0.469,0.928c0.248,0.436,1.93,4.393,4.109,5.485
				c1.549,0.776,3.392,0.49,4.44,0c0.928-0.434,2.378-1.501,2.488-2.92c0.11-1.42-0.002-2.675-0.002-2.675h-0.976v1.719H24.39
				v-2.511h-1.104v2.053h-0.658v-2.68h-1.241v2.543h-0.603L20.722,220.938z"/>
			<rect x="15.537" y="220.938" fill="#FFFFFF" width="1.572" height="0.956"/>
			<rect x="22.556" y="220.938" fill="#FFFFFF" width="1.572" height="0.956"/>
			<rect x="18.957" y="217.5" fill="#FFFFFF" width="1.627" height="1.801"/>
			<polygon fill="#FFFFFF" points="17.55,220.174 18.13,219.601 17.058,218.51 16.41,219.083 			"/>
			<polygon fill="#FFFFFF" points="22.188,220.004 21.696,219.345 22.854,218.424 23.329,219.083 			"/>
			<g>
				<g>
					<path fill="#FFFFFF" d="M30.61,220.499c0.41-0.212,0.983-0.503,1.908-0.503c1.873,0,2.306,1.033,2.306,2.742v2.981
						c0,0.491-0.04,0.941-0.005,1.206h-1.311c-0.03-0.312,0.004-0.596,0.004-0.927H33.49c-0.363,0.557-0.82,1.034-1.686,1.034
						c-0.936,0-1.803-0.729-1.803-2.001c0-1.855,1.334-2.319,3.172-2.319h0.293v-0.252c0-0.676-0.293-1.298-1.124-1.298
						c-0.726,0-1.37,0.398-1.65,0.662L30.61,220.499z M33.466,223.586h-0.129c-1.241,0-1.978,0.291-1.978,1.285
						c0,0.623,0.363,1.047,0.925,1.047c0.866,0,1.182-0.729,1.182-1.947V223.586z"/>
					<path fill="#FFFFFF" d="M31.804,227.073c-0.917,0-1.846-0.702-1.846-2.044c0-2.093,1.718-2.361,3.215-2.361h0.249v-0.209
						c0-0.377-0.105-1.256-1.08-1.256c-0.735,0-1.364,0.41-1.621,0.651c-0.012,0.012-0.03,0.015-0.046,0.009
						c-0.016-0.006-0.026-0.02-0.027-0.037l-0.082-1.325c-0.001-0.016,0.008-0.032,0.023-0.041c0.391-0.202,0.982-0.508,1.928-0.508
						c1.95,0,2.349,1.113,2.349,2.785v2.981c0,0.183-0.005,0.357-0.011,0.525c-0.009,0.275-0.016,0.512,0.006,0.675
						c0.002,0.013-0.002,0.025-0.01,0.034c-0.008,0.009-0.02,0.015-0.032,0.015h-1.311c-0.022,0-0.041-0.017-0.043-0.039
						c-0.019-0.204-0.012-0.393-0.004-0.593c0.003-0.075,0.006-0.151,0.007-0.23C33.133,226.598,32.666,227.073,31.804,227.073z
						 M33.174,222.754c-2.164,0-3.129,0.702-3.129,2.276c0,1.285,0.885,1.958,1.759,1.958c0.868,0,1.306-0.488,1.649-1.014
						c0.008-0.012,0.022-0.019,0.037-0.019h0.023c0.024,0,0.043,0.019,0.043,0.042c0,0.119-0.004,0.233-0.009,0.342
						c-0.007,0.185-0.014,0.359,0.001,0.544h1.223c-0.016-0.166-0.009-0.388-0.001-0.641c0.005-0.167,0.01-0.34,0.01-0.522v-2.981
						c0-1.621-0.385-2.7-2.262-2.7c-0.905,0-1.479,0.287-1.863,0.486l0.075,1.209c0.298-0.252,0.909-0.614,1.613-0.614
						c0.742,0,1.167,0.488,1.167,1.341v0.252c0,0.024-0.019,0.043-0.043,0.043H33.174z M32.284,225.96
						c-0.579,0-0.968-0.438-0.968-1.09c0-0.931,0.605-1.327,2.021-1.327h0.129c0.024,0,0.043,0.019,0.043,0.042v0.385
						C33.509,225.328,33.12,225.96,32.284,225.96z M33.338,223.629c-1.356,0-1.935,0.372-1.935,1.242
						c0,0.61,0.346,1.004,0.881,1.004c0.777,0,1.139-0.605,1.139-1.905v-0.342H33.338z"/>
				</g>
				<g>
					<path fill="#FFFFFF" d="M36.193,221.267c0-0.49-0.004-0.865-0.004-1.154l1.27,0.003c0.012,0.213,0.005,0.239,0.005,0.703H37.5
						c0.234-0.582,0.753-0.823,1.69-0.823c1.498,0,2.205,1.616,2.205,3.51c0,2.226-0.871,3.353-2.169,3.353
						c-0.867,0-1.347-0.129-1.557-0.659h-0.023v3.244h-1.452V221.267z M38.768,225.654c0.808,0,1.261-0.716,1.261-2.081
						c0-1.576-0.395-2.371-1.238-2.371c-0.855,0-1.147,0.961-1.147,2.246C37.645,224.772,37.972,225.654,38.768,225.654z"/>
					<path fill="#FFFFFF" d="M37.645,229.487h-1.452c-0.024,0-0.043-0.019-0.043-0.043v-8.177c0-0.277-0.001-0.518-0.002-0.726
						c-0.001-0.161-0.002-0.302-0.002-0.428c0-0.011,0.004-0.023,0.013-0.031c0.008-0.007,0.019-0.012,0.031-0.012l0,0l1.271,0.003
						c0.023,0,0.042,0.018,0.043,0.041c0.007,0.142,0.007,0.201,0.006,0.359c0,0.058-0.001,0.129-0.001,0.222
						c0.258-0.519,0.769-0.742,1.682-0.742c1.366,0,2.248,1.395,2.248,3.553c0,2.159-0.806,3.396-2.212,3.396
						c-0.772,0-1.283-0.095-1.537-0.558v3.1C37.688,229.467,37.669,229.487,37.645,229.487z M36.237,229.402h1.365V226.2
						c0-0.024,0.019-0.043,0.043-0.043h0.023c0.018,0,0.034,0.011,0.04,0.028c0.185,0.466,0.582,0.632,1.517,0.632
						c1.351,0,2.126-1.206,2.126-3.311c0-1.6-0.566-3.468-2.162-3.468c-0.932,0-1.425,0.239-1.65,0.798
						c-0.007,0.016-0.022,0.027-0.04,0.027h-0.035c-0.024,0-0.043-0.02-0.043-0.043c0-0.158,0.001-0.265,0.002-0.347
						c0.001-0.14,0.002-0.201-0.004-0.313l-1.186-0.003c0,0.115,0.001,0.243,0.002,0.385c0.001,0.209,0.003,0.449,0.003,0.727
						V229.402z M38.768,225.697c-0.763,0-1.167-0.778-1.167-2.25c0-1.519,0.4-2.289,1.19-2.289c0.862,0,1.281,0.789,1.281,2.414
						C40.073,224.942,39.61,225.697,38.768,225.697z M38.792,221.243c-0.733,0-1.104,0.741-1.104,2.203
						c0,0.987,0.187,2.164,1.081,2.164c0.785,0,1.218-0.724,1.218-2.038C39.986,222.005,39.596,221.243,38.792,221.243z"/>
				</g>
				<g>
					<path fill="#FFFFFF" d="M48.46,225.095c0.244,0.103,0.866,0.523,1.573,0.523c0.549,0,0.976-0.142,0.976-0.656
						c0-0.257-0.122-0.501-0.671-0.837l-0.881-0.557c-0.634-0.399-1.07-0.689-1.07-1.61c0-1.063,0.841-1.963,2.17-1.963
						c0.805,0,1.427,0.218,1.573,0.27l-0.086,1.235c-0.378-0.154-0.78-0.296-1.329-0.296c-0.61,0-0.866,0.245-0.866,0.643
						c0,0.36,0.184,0.5,0.622,0.796l1.042,0.493c0.82,0.475,1.043,1.137,1.043,1.735c0,1.223-0.889,2.041-2.255,2.041
						c-0.781,0-1.6-0.278-1.917-0.407L48.46,225.095z"/>
					<path fill="#FFFFFF" d="M50.303,226.956c-0.878,0-1.764-0.342-1.933-0.41c-0.017-0.007-0.027-0.024-0.027-0.041l0.073-1.411
						c0.001-0.014,0.008-0.027,0.02-0.034c0.012-0.007,0.027-0.009,0.04-0.003c0.052,0.022,0.12,0.057,0.198,0.098
						c0.302,0.157,0.806,0.421,1.358,0.421c0.636,0,0.932-0.195,0.932-0.613c0-0.242-0.11-0.471-0.65-0.8l-0.882-0.557
						c-0.609-0.383-1.09-0.686-1.09-1.645c0-1.163,0.931-2.006,2.213-2.006c0.371,0,0.947,0.047,1.588,0.273
						c0.018,0.006,0.03,0.024,0.029,0.043l-0.086,1.236c-0.001,0.014-0.009,0.026-0.02,0.033c-0.012,0.007-0.027,0.008-0.039,0.003
						c-0.362-0.148-0.762-0.293-1.313-0.293c-0.553,0-0.822,0.196-0.822,0.6c0,0.34,0.174,0.471,0.603,0.761l1.036,0.489
						c0.71,0.411,1.068,1.008,1.068,1.774C52.601,226.118,51.678,226.956,50.303,226.956z M48.432,226.477
						c0.221,0.088,1.051,0.393,1.872,0.393c1.343,0,2.212-0.785,2.212-1.999c0-0.733-0.344-1.305-1.022-1.698l-1.039-0.491
						c-0.451-0.303-0.647-0.452-0.647-0.835c0-0.312,0.158-0.686,0.909-0.686c0.538,0,0.934,0.133,1.29,0.277l0.079-1.144
						c-0.617-0.212-1.17-0.257-1.528-0.257c-1.233,0-2.127,0.808-2.127,1.921c0,0.914,0.44,1.19,1.05,1.573l0.881,0.557
						c0.49,0.298,0.69,0.552,0.69,0.872c0,0.471-0.333,0.699-1.019,0.699c-0.573,0-1.09-0.269-1.398-0.431
						c-0.05-0.026-0.096-0.049-0.135-0.069L48.432,226.477z"/>
				</g>
				<g>
					<path fill="#FFFFFF" d="M42.43,221.267c0-0.49-0.004-0.865-0.004-1.154l1.271,0.003c0.012,0.213,0.005,0.239,0.005,0.703h0.035
						c0.234-0.582,0.754-0.823,1.69-0.823c1.498,0,2.205,1.616,2.205,3.51c0,2.226-0.87,3.353-2.169,3.353
						c-0.866,0-1.346-0.129-1.557-0.659h-0.023v3.244H42.43V221.267z M45.005,225.654c0.808,0,1.261-0.716,1.261-2.081
						c0-1.576-0.395-2.371-1.238-2.371c-0.854,0-1.147,0.961-1.147,2.246C43.881,224.772,44.209,225.654,45.005,225.654z"/>
					<path fill="#FFFFFF" d="M43.881,229.487H42.43c-0.024,0-0.043-0.019-0.043-0.043v-8.177c0-0.277-0.001-0.518-0.003-0.726
						c-0.001-0.161-0.001-0.302-0.001-0.428c0-0.011,0.004-0.023,0.013-0.031c0.008-0.007,0.019-0.012,0.03-0.012l0,0l1.271,0.003
						c0.023,0,0.042,0.018,0.043,0.041c0.008,0.142,0.007,0.201,0.006,0.359c0,0.058-0.001,0.129-0.001,0.222
						c0.258-0.519,0.769-0.742,1.681-0.742c1.366,0,2.249,1.395,2.249,3.553c0,2.159-0.807,3.396-2.213,3.396
						c-0.772,0-1.283-0.095-1.537-0.558v3.1C43.925,229.467,43.905,229.487,43.881,229.487z M42.473,229.402h1.365V226.2
						c0-0.024,0.02-0.043,0.043-0.043h0.023c0.018,0,0.034,0.011,0.04,0.028c0.185,0.466,0.583,0.632,1.517,0.632
						c1.351,0,2.126-1.206,2.126-3.311c0-1.6-0.566-3.468-2.162-3.468c-0.932,0-1.425,0.239-1.65,0.798
						c-0.007,0.016-0.022,0.027-0.04,0.027h-0.035c-0.024,0-0.043-0.02-0.043-0.043c0-0.158,0.001-0.265,0.001-0.347
						c0.001-0.14,0.002-0.201-0.004-0.313l-1.186-0.003c0,0.115,0.001,0.243,0.001,0.385c0.001,0.209,0.002,0.449,0.002,0.727
						V229.402z M45.005,225.697c-0.763,0-1.167-0.778-1.167-2.25c0-1.519,0.4-2.289,1.19-2.289c0.862,0,1.281,0.789,1.281,2.414
						C46.309,224.942,45.846,225.697,45.005,225.697z M45.028,221.243c-0.733,0-1.104,0.741-1.104,2.203
						c0,0.987,0.187,2.164,1.08,2.164c0.785,0,1.218-0.724,1.218-2.038C46.223,222.005,45.832,221.243,45.028,221.243z"/>
				</g>
			</g>
		</g>
		<g>
			<g>
				<path fill-rule="evenodd" clip-rule="evenodd" fill="#F7971F" d="M118.215,233.866c-4.957,3.619-12.144,5.545-18.333,5.545
					c-8.673,0-16.483-3.172-22.393-8.453c-0.464-0.415-0.05-0.982,0.508-0.66c6.377,3.672,14.263,5.883,22.407,5.883
					c5.495,0,11.534-1.129,17.091-3.459C118.332,232.369,119.035,233.268,118.215,233.866z"/>
				<path fill-rule="evenodd" clip-rule="evenodd" fill="#F7971F" d="M120.278,231.536c-0.635-0.804-4.191-0.381-5.789-0.191
					c-0.485,0.058-0.559-0.361-0.123-0.664c2.838-1.971,7.487-1.403,8.028-0.742c0.544,0.666-0.143,5.279-2.802,7.48
					c-0.408,0.339-0.798,0.158-0.617-0.29C119.573,235.651,120.912,232.339,120.278,231.536z"/>
			</g>
			<path fill-rule="evenodd" clip-rule="evenodd" fill="#231F20" d="M114.602,216.749v-1.917c0.001-0.292,0.223-0.486,0.49-0.485
				l8.679-0.001c0.278,0,0.501,0.2,0.501,0.484v1.644c-0.002,0.276-0.237,0.636-0.654,1.206l-4.495,6.353
				c1.668-0.039,3.434,0.209,4.951,1.051c0.341,0.19,0.433,0.472,0.459,0.748v2.044c0,0.282-0.311,0.609-0.638,0.439
				c-2.672-1.385-6.217-1.537-9.171,0.015c-0.302,0.16-0.617-0.161-0.617-0.443v-1.945c0-0.311,0.006-0.842,0.322-1.316l5.21-7.395
				l-4.536-0.001C114.826,217.231,114.603,217.035,114.602,216.749z"/>
			<path fill-rule="evenodd" clip-rule="evenodd" fill="#231F20" d="M82.94,228.718H80.3c-0.252-0.016-0.453-0.203-0.472-0.441
				l0.002-13.41c0-0.27,0.228-0.484,0.509-0.484l2.459-0.001c0.257,0.013,0.464,0.206,0.481,0.45v1.751h0.049
				c0.641-1.693,1.848-2.483,3.475-2.483c1.651,0,2.687,0.79,3.426,2.483c0.641-1.693,2.095-2.483,3.648-2.483
				c1.109,0,2.317,0.452,3.056,1.468c0.838,1.128,0.666,2.766,0.666,4.205l-0.002,8.463c0,0.268-0.229,0.483-0.509,0.483h-2.638
				c-0.265-0.016-0.475-0.225-0.475-0.483v-7.108c0-0.565,0.049-1.976-0.075-2.512c-0.197-0.903-0.788-1.157-1.552-1.157
				c-0.641,0-1.307,0.424-1.577,1.101c-0.271,0.678-0.247,1.805-0.247,2.569v7.108c0,0.268-0.228,0.483-0.509,0.483h-2.638
				c-0.265-0.016-0.475-0.225-0.475-0.483l-0.002-7.108c0-1.496,0.246-3.698-1.627-3.698c-1.898,0-1.824,2.145-1.824,3.698
				l-0.001,7.108C83.45,228.504,83.222,228.718,82.94,228.718z"/>
			<path fill-rule="evenodd" clip-rule="evenodd" fill="#231F20" d="M131.744,214.1c3.92,0,6.039,3.33,6.039,7.563
				c0,4.092-2.341,7.338-6.039,7.338c-3.845,0-5.94-3.331-5.94-7.479C125.804,217.345,127.923,214.1,131.744,214.1z
				 M131.769,216.837c-1.947,0-2.07,2.624-2.07,4.262c0,1.636-0.025,5.135,2.046,5.135c2.046,0,2.145-2.821,2.145-4.542
				c0-1.129-0.049-2.483-0.394-3.556C133.198,217.204,132.606,216.837,131.769,216.837z"/>
			<path fill-rule="evenodd" clip-rule="evenodd" fill="#231F20" d="M142.866,228.718h-2.631c-0.265-0.016-0.474-0.225-0.474-0.483
				l-0.004-13.414c0.023-0.246,0.241-0.438,0.508-0.438l2.45-0.001c0.23,0.012,0.421,0.167,0.469,0.376v2.051h0.05
				c0.739-1.834,1.774-2.709,3.598-2.709c1.183,0,2.342,0.424,3.081,1.581c0.69,1.073,0.69,2.878,0.69,4.176v8.438
				c-0.03,0.239-0.245,0.423-0.505,0.423h-2.647c-0.245-0.016-0.442-0.193-0.471-0.423v-7.281c0-1.468,0.174-3.612-1.651-3.612
				c-0.641,0-1.233,0.423-1.527,1.072c-0.37,0.818-0.42,1.636-0.42,2.54v7.221C143.376,228.504,143.147,228.718,142.866,228.718z"/>
			<path fill-rule="evenodd" clip-rule="evenodd" fill="#231F20" d="M107.683,222.313c0,1.018,0.025,1.866-0.494,2.772
				c-0.421,0.735-1.087,1.188-1.828,1.188c-1.013,0-1.605-0.764-1.605-1.895c0-2.226,2.017-2.63,3.928-2.63V222.313z
				 M110.345,228.684c-0.175,0.156-0.427,0.165-0.624,0.062c-0.878-0.722-1.035-1.055-1.514-1.741
				c-1.45,1.461-2.476,1.899-4.354,1.899c-2.223,0-3.953-1.359-3.953-4.074c0-2.12,1.161-3.563,2.816-4.27
				c1.433-0.622,3.435-0.735,4.966-0.906v-0.338c0-0.622,0.048-1.357-0.321-1.894c-0.321-0.482-0.939-0.679-1.482-0.679
				c-1.007,0-1.902,0.51-2.123,1.569c-0.046,0.234-0.219,0.467-0.458,0.48l-2.56-0.274c-0.216-0.048-0.456-0.22-0.394-0.546
				c0.588-3.072,3.392-4.001,5.905-4.001c1.284,0,2.964,0.34,3.976,1.302c1.286,1.188,1.161,2.772,1.161,4.497v4.071
				c0,1.223,0.515,1.761,0.997,2.423c0.169,0.237,0.207,0.519-0.009,0.693c-0.539,0.446-1.497,1.271-2.024,1.735L110.345,228.684z"
				/>
			<path fill-rule="evenodd" clip-rule="evenodd" fill="#231F20" d="M73.067,222.313c0,1.018,0.025,1.866-0.494,2.772
				c-0.419,0.735-1.086,1.188-1.828,1.188c-1.012,0-1.606-0.764-1.606-1.895c0-2.226,2.018-2.63,3.928-2.63V222.313z
				 M75.729,228.684c-0.175,0.156-0.427,0.165-0.623,0.062c-0.877-0.722-1.035-1.055-1.514-1.741
				c-1.449,1.461-2.476,1.899-4.353,1.899c-2.224,0-3.952-1.359-3.952-4.074c0-2.12,1.161-3.563,2.815-4.27
				c1.433-0.622,3.434-0.735,4.965-0.906v-0.338c0-0.622,0.05-1.357-0.321-1.894c-0.322-0.482-0.939-0.679-1.483-0.679
				c-1.007,0-1.903,0.51-2.122,1.569c-0.046,0.234-0.219,0.467-0.459,0.48l-2.559-0.274c-0.217-0.048-0.457-0.22-0.394-0.546
				c0.588-3.072,3.392-4.001,5.905-4.001c1.284,0,2.964,0.34,3.978,1.302c1.284,1.188,1.16,2.772,1.16,4.497v4.071
				c0,1.223,0.514,1.761,0.997,2.423c0.169,0.237,0.206,0.519-0.009,0.693c-0.539,0.446-1.498,1.271-2.025,1.735L75.729,228.684z"/>
		</g>
		<g>
			<path fill="#231F20" d="M68.338,200.21h1.178l3.13,7.927h-1.178l-0.875-2.387h-3.389l-0.897,2.387h-1.099L68.338,200.21z
				 M67.541,204.862h2.715l-1.335-3.697h-0.022L67.541,204.862z"/>
			<path fill="#231F20" d="M75.046,208.137h-1.021l-2.154-5.74h1.066l1.627,4.785h0.023l1.582-4.785h0.999L75.046,208.137z"/>
			<path fill="#231F20" d="M82.62,208.114c-0.169,0.1-0.382,0.156-0.685,0.156c-0.494,0-0.808-0.267-0.808-0.888
				c-0.528,0.611-1.234,0.888-2.042,0.888c-1.055,0-1.919-0.466-1.919-1.61c0-1.299,0.976-1.576,1.963-1.765
				c1.055-0.2,1.952-0.133,1.952-0.844c0-0.822-0.684-0.955-1.29-0.955c-0.808,0-1.402,0.244-1.447,1.088h-0.954
				c0.056-1.421,1.167-1.921,2.457-1.921c1.043,0,2.176,0.233,2.176,1.576v2.954c0,0.444,0,0.644,0.303,0.644
				c0.079,0,0.169-0.011,0.292-0.056V208.114z M81.071,205.173c-0.37,0.267-1.088,0.277-1.728,0.389
				c-0.628,0.111-1.167,0.333-1.167,1.032c0,0.622,0.538,0.844,1.122,0.844c1.256,0,1.773-0.777,1.773-1.299V205.173z"/>
			<path fill="#231F20" d="M84.235,201.364h-0.954v-1.154h0.954V201.364z M83.281,202.397h0.954v5.74h-0.954V202.397z"/>
			<path fill="#231F20" d="M85.547,200.21H86.5v7.927h-0.953V200.21z"/>
			<path fill="#231F20" d="M92.84,208.114c-0.169,0.1-0.382,0.156-0.685,0.156c-0.494,0-0.808-0.267-0.808-0.888
				c-0.527,0.611-1.235,0.888-2.042,0.888c-1.054,0-1.918-0.466-1.918-1.61c0-1.299,0.976-1.576,1.964-1.765
				c1.054-0.2,1.952-0.133,1.952-0.844c0-0.822-0.685-0.955-1.29-0.955c-0.808,0-1.402,0.244-1.447,1.088h-0.953
				c0.056-1.421,1.167-1.921,2.457-1.921c1.043,0,2.176,0.233,2.176,1.576v2.954c0,0.444,0,0.644,0.303,0.644
				c0.079,0,0.168-0.011,0.292-0.056V208.114z M91.291,205.173c-0.37,0.267-1.088,0.277-1.728,0.389
				c-0.628,0.111-1.167,0.333-1.167,1.032c0,0.622,0.539,0.844,1.122,0.844c1.257,0,1.773-0.777,1.773-1.299V205.173z"/>
			<path fill="#231F20" d="M93.478,200.21h0.954v2.964h0.023c0.314-0.633,1.054-0.91,1.851-0.91c1.784,0,2.67,1.399,2.67,3.02
				c0,1.621-0.876,2.987-2.648,2.987c-0.594,0-1.447-0.222-1.873-0.899h-0.023v0.766h-0.954V200.21z M96.172,203.097
				c-1.279,0-1.773,1.088-1.773,2.165c0,1.132,0.516,2.176,1.828,2.176c1.301,0,1.739-1.099,1.739-2.22
				C97.966,204.14,97.406,203.097,96.172,203.097z"/>
			<path fill="#231F20" d="M99.705,200.21h0.954v7.927h-0.954V200.21z"/>
			<path fill="#231F20" d="M106.807,206.316c-0.258,1.266-1.178,1.954-2.48,1.954c-1.851,0-2.726-1.266-2.782-3.02
				c0-1.721,1.144-2.986,2.726-2.986c2.053,0,2.682,1.898,2.625,3.286h-4.342c-0.034,0.999,0.539,1.887,1.806,1.887
				c0.785,0,1.336-0.378,1.504-1.121H106.807z M105.886,204.718c-0.044-0.899-0.729-1.621-1.671-1.621
				c-0.999,0-1.594,0.744-1.661,1.621H105.886z"/>
			<path fill="#231F20" d="M116.141,208.114c-0.168,0.1-0.381,0.156-0.684,0.156c-0.493,0-0.808-0.267-0.808-0.888
				c-0.527,0.611-1.234,0.888-2.042,0.888c-1.054,0-1.918-0.466-1.918-1.61c0-1.299,0.976-1.576,1.963-1.765
				c1.055-0.2,1.953-0.133,1.953-0.844c0-0.822-0.685-0.955-1.29-0.955c-0.808,0-1.403,0.244-1.448,1.088h-0.953
				c0.056-1.421,1.166-1.921,2.456-1.921c1.044,0,2.177,0.233,2.177,1.576v2.954c0,0.444,0,0.644,0.302,0.644
				c0.079,0,0.169-0.011,0.292-0.056V208.114z M114.593,205.173c-0.371,0.267-1.089,0.277-1.728,0.389
				c-0.628,0.111-1.167,0.333-1.167,1.032c0,0.622,0.539,0.844,1.122,0.844c1.256,0,1.773-0.777,1.773-1.299V205.173z"/>
			<path fill="#231F20" d="M118.351,202.397h1.155v0.832h-1.155v3.564c0,0.433,0.123,0.511,0.718,0.511h0.437v0.832h-0.729
				c-0.987,0-1.38-0.2-1.38-1.254v-3.653h-0.988v-0.832h0.988v-1.721h0.953V202.397z"/>
		</g>
	</g>
</g>
<g id="Layer_2">
</g>
</svg>
